G04 #@! TF.GenerationSoftware,KiCad,Pcbnew,5.1.5-52549c5~84~ubuntu18.04.1*
G04 #@! TF.CreationDate,2020-03-02T16:39:28-05:00*
G04 #@! TF.ProjectId,Etapa de potencia,45746170-6120-4646-9520-706f74656e63,rev?*
G04 #@! TF.SameCoordinates,Original*
G04 #@! TF.FileFunction,Legend,Bot*
G04 #@! TF.FilePolarity,Positive*
%FSLAX46Y46*%
G04 Gerber Fmt 4.6, Leading zero omitted, Abs format (unit mm)*
G04 Created by KiCad (PCBNEW 5.1.5-52549c5~84~ubuntu18.04.1) date 2020-03-02 16:39:28*
%MOMM*%
%LPD*%
G04 APERTURE LIST*
%ADD10C,0.120000*%
%ADD11C,0.150000*%
G04 APERTURE END LIST*
D10*
X98163748Y-114860000D02*
X98686252Y-114860000D01*
X98163748Y-116280000D02*
X98686252Y-116280000D01*
X92785000Y-98163748D02*
X92785000Y-98686252D01*
X91365000Y-98163748D02*
X91365000Y-98686252D01*
X117550000Y-71493748D02*
X117550000Y-72016252D01*
X116130000Y-71493748D02*
X116130000Y-72016252D01*
X96475000Y-97330000D02*
X96475000Y-90780000D01*
X100375000Y-97330000D02*
X96475000Y-97330000D01*
X100375000Y-90780000D02*
X100375000Y-97330000D01*
X99135000Y-100591252D02*
X99135000Y-100068748D01*
X97715000Y-100591252D02*
X97715000Y-100068748D01*
X106120000Y-96258748D02*
X106120000Y-96781252D01*
X104700000Y-96258748D02*
X104700000Y-96781252D01*
X118475000Y-111820000D02*
G75*
G03X116475000Y-111820000I-1000000J0D01*
G01*
X116475000Y-111820000D02*
X115225000Y-111820000D01*
X115225000Y-111820000D02*
X115225000Y-91380000D01*
X115225000Y-91380000D02*
X119725000Y-91380000D01*
X119725000Y-91380000D02*
X119725000Y-111820000D01*
X119725000Y-111820000D02*
X118475000Y-111820000D01*
D11*
X98591666Y-117672380D02*
X98925000Y-117196190D01*
X99163095Y-117672380D02*
X99163095Y-116672380D01*
X98782142Y-116672380D01*
X98686904Y-116720000D01*
X98639285Y-116767619D01*
X98591666Y-116862857D01*
X98591666Y-117005714D01*
X98639285Y-117100952D01*
X98686904Y-117148571D01*
X98782142Y-117196190D01*
X99163095Y-117196190D01*
X97639285Y-117672380D02*
X98210714Y-117672380D01*
X97925000Y-117672380D02*
X97925000Y-116672380D01*
X98020238Y-116815238D01*
X98115476Y-116910476D01*
X98210714Y-116958095D01*
X93932142Y-98658333D02*
X93979761Y-98610714D01*
X94027380Y-98467857D01*
X94027380Y-98372619D01*
X93979761Y-98229761D01*
X93884523Y-98134523D01*
X93789285Y-98086904D01*
X93598809Y-98039285D01*
X93455952Y-98039285D01*
X93265476Y-98086904D01*
X93170238Y-98134523D01*
X93075000Y-98229761D01*
X93027380Y-98372619D01*
X93027380Y-98467857D01*
X93075000Y-98610714D01*
X93122619Y-98658333D01*
X94027380Y-99610714D02*
X94027380Y-99039285D01*
X94027380Y-99325000D02*
X93027380Y-99325000D01*
X93170238Y-99229761D01*
X93265476Y-99134523D01*
X93313095Y-99039285D01*
X119542380Y-71588333D02*
X119066190Y-71255000D01*
X119542380Y-71016904D02*
X118542380Y-71016904D01*
X118542380Y-71397857D01*
X118590000Y-71493095D01*
X118637619Y-71540714D01*
X118732857Y-71588333D01*
X118875714Y-71588333D01*
X118970952Y-71540714D01*
X119018571Y-71493095D01*
X119066190Y-71397857D01*
X119066190Y-71016904D01*
X118637619Y-71969285D02*
X118590000Y-72016904D01*
X118542380Y-72112142D01*
X118542380Y-72350238D01*
X118590000Y-72445476D01*
X118637619Y-72493095D01*
X118732857Y-72540714D01*
X118828095Y-72540714D01*
X118970952Y-72493095D01*
X119542380Y-71921666D01*
X119542380Y-72540714D01*
X98801190Y-88703809D02*
X99277380Y-88703809D01*
X98277380Y-88370476D02*
X98801190Y-88703809D01*
X98277380Y-89037142D01*
X99277380Y-89894285D02*
X99277380Y-89322857D01*
X99277380Y-89608571D02*
X98277380Y-89608571D01*
X98420238Y-89513333D01*
X98515476Y-89418095D01*
X98563095Y-89322857D01*
X96782142Y-99913333D02*
X96829761Y-99865714D01*
X96877380Y-99722857D01*
X96877380Y-99627619D01*
X96829761Y-99484761D01*
X96734523Y-99389523D01*
X96639285Y-99341904D01*
X96448809Y-99294285D01*
X96305952Y-99294285D01*
X96115476Y-99341904D01*
X96020238Y-99389523D01*
X95925000Y-99484761D01*
X95877380Y-99627619D01*
X95877380Y-99722857D01*
X95925000Y-99865714D01*
X95972619Y-99913333D01*
X95972619Y-100294285D02*
X95925000Y-100341904D01*
X95877380Y-100437142D01*
X95877380Y-100675238D01*
X95925000Y-100770476D01*
X95972619Y-100818095D01*
X96067857Y-100865714D01*
X96163095Y-100865714D01*
X96305952Y-100818095D01*
X96877380Y-100246666D01*
X96877380Y-100865714D01*
X104117142Y-96353333D02*
X104164761Y-96305714D01*
X104212380Y-96162857D01*
X104212380Y-96067619D01*
X104164761Y-95924761D01*
X104069523Y-95829523D01*
X103974285Y-95781904D01*
X103783809Y-95734285D01*
X103640952Y-95734285D01*
X103450476Y-95781904D01*
X103355238Y-95829523D01*
X103260000Y-95924761D01*
X103212380Y-96067619D01*
X103212380Y-96162857D01*
X103260000Y-96305714D01*
X103307619Y-96353333D01*
X103212380Y-96686666D02*
X103212380Y-97305714D01*
X103593333Y-96972380D01*
X103593333Y-97115238D01*
X103640952Y-97210476D01*
X103688571Y-97258095D01*
X103783809Y-97305714D01*
X104021904Y-97305714D01*
X104117142Y-97258095D01*
X104164761Y-97210476D01*
X104212380Y-97115238D01*
X104212380Y-96829523D01*
X104164761Y-96734285D01*
X104117142Y-96686666D01*
X118236904Y-112272380D02*
X118236904Y-113081904D01*
X118189285Y-113177142D01*
X118141666Y-113224761D01*
X118046428Y-113272380D01*
X117855952Y-113272380D01*
X117760714Y-113224761D01*
X117713095Y-113177142D01*
X117665476Y-113081904D01*
X117665476Y-112272380D01*
X116760714Y-112272380D02*
X116951190Y-112272380D01*
X117046428Y-112320000D01*
X117094047Y-112367619D01*
X117189285Y-112510476D01*
X117236904Y-112700952D01*
X117236904Y-113081904D01*
X117189285Y-113177142D01*
X117141666Y-113224761D01*
X117046428Y-113272380D01*
X116855952Y-113272380D01*
X116760714Y-113224761D01*
X116713095Y-113177142D01*
X116665476Y-113081904D01*
X116665476Y-112843809D01*
X116713095Y-112748571D01*
X116760714Y-112700952D01*
X116855952Y-112653333D01*
X117046428Y-112653333D01*
X117141666Y-112700952D01*
X117189285Y-112748571D01*
X117236904Y-112843809D01*
M02*
