G04 #@! TF.GenerationSoftware,KiCad,Pcbnew,5.1.5-52549c5~84~ubuntu18.04.1*
G04 #@! TF.CreationDate,2020-03-02T16:39:28-05:00*
G04 #@! TF.ProjectId,Etapa de potencia,45746170-6120-4646-9520-706f74656e63,rev?*
G04 #@! TF.SameCoordinates,Original*
G04 #@! TF.FileFunction,Copper,L2,Bot*
G04 #@! TF.FilePolarity,Positive*
%FSLAX46Y46*%
G04 Gerber Fmt 4.6, Leading zero omitted, Abs format (unit mm)*
G04 Created by KiCad (PCBNEW 5.1.5-52549c5~84~ubuntu18.04.1) date 2020-03-02 16:39:28*
%MOMM*%
%LPD*%
G04 APERTURE LIST*
%ADD10R,1.500000X1.500000*%
%ADD11C,1.500000*%
%ADD12C,2.000000*%
%ADD13C,0.100000*%
%ADD14O,3.960000X1.980000*%
%ADD15R,3.960000X1.980000*%
%ADD16O,2.400000X2.400000*%
%ADD17C,2.400000*%
%ADD18O,1.600000X1.600000*%
%ADD19R,1.600000X1.600000*%
%ADD20O,2.400000X1.600000*%
%ADD21R,2.400000X1.600000*%
%ADD22R,2.500000X1.900000*%
%ADD23O,2.000000X1.600000*%
%ADD24R,2.000000X2.000000*%
%ADD25O,1.600000X2.400000*%
%ADD26R,1.600000X2.400000*%
%ADD27R,1.905000X2.000000*%
%ADD28O,1.905000X2.000000*%
%ADD29C,3.500000*%
%ADD30C,1.200000*%
%ADD31C,1.800000*%
%ADD32C,0.800000*%
%ADD33C,1.000000*%
%ADD34C,0.800000*%
%ADD35C,0.500000*%
%ADD36C,1.200000*%
G04 APERTURE END LIST*
D10*
X143510000Y-130175000D03*
D11*
X141470000Y-130175000D03*
X139430000Y-130175000D03*
X137390000Y-130175000D03*
X142490000Y-128395000D03*
X140450000Y-128395000D03*
X138410000Y-128395000D03*
X136370000Y-128395000D03*
D12*
X131820000Y-129285000D03*
X148080000Y-129285000D03*
X105920000Y-129285000D03*
X89660000Y-129285000D03*
D11*
X94210000Y-128395000D03*
X96250000Y-128395000D03*
X98290000Y-128395000D03*
X100330000Y-128395000D03*
X95230000Y-130175000D03*
X97270000Y-130175000D03*
X99310000Y-130175000D03*
D10*
X101350000Y-130175000D03*
G04 #@! TA.AperFunction,SMDPad,CuDef*
D13*
G36*
X99799505Y-114871204D02*
G01*
X99823773Y-114874804D01*
X99847572Y-114880765D01*
X99870671Y-114889030D01*
X99892850Y-114899520D01*
X99913893Y-114912132D01*
X99933599Y-114926747D01*
X99951777Y-114943223D01*
X99968253Y-114961401D01*
X99982868Y-114981107D01*
X99995480Y-115002150D01*
X100005970Y-115024329D01*
X100014235Y-115047428D01*
X100020196Y-115071227D01*
X100023796Y-115095495D01*
X100025000Y-115119999D01*
X100025000Y-116020001D01*
X100023796Y-116044505D01*
X100020196Y-116068773D01*
X100014235Y-116092572D01*
X100005970Y-116115671D01*
X99995480Y-116137850D01*
X99982868Y-116158893D01*
X99968253Y-116178599D01*
X99951777Y-116196777D01*
X99933599Y-116213253D01*
X99913893Y-116227868D01*
X99892850Y-116240480D01*
X99870671Y-116250970D01*
X99847572Y-116259235D01*
X99823773Y-116265196D01*
X99799505Y-116268796D01*
X99775001Y-116270000D01*
X99124999Y-116270000D01*
X99100495Y-116268796D01*
X99076227Y-116265196D01*
X99052428Y-116259235D01*
X99029329Y-116250970D01*
X99007150Y-116240480D01*
X98986107Y-116227868D01*
X98966401Y-116213253D01*
X98948223Y-116196777D01*
X98931747Y-116178599D01*
X98917132Y-116158893D01*
X98904520Y-116137850D01*
X98894030Y-116115671D01*
X98885765Y-116092572D01*
X98879804Y-116068773D01*
X98876204Y-116044505D01*
X98875000Y-116020001D01*
X98875000Y-115119999D01*
X98876204Y-115095495D01*
X98879804Y-115071227D01*
X98885765Y-115047428D01*
X98894030Y-115024329D01*
X98904520Y-115002150D01*
X98917132Y-114981107D01*
X98931747Y-114961401D01*
X98948223Y-114943223D01*
X98966401Y-114926747D01*
X98986107Y-114912132D01*
X99007150Y-114899520D01*
X99029329Y-114889030D01*
X99052428Y-114880765D01*
X99076227Y-114874804D01*
X99100495Y-114871204D01*
X99124999Y-114870000D01*
X99775001Y-114870000D01*
X99799505Y-114871204D01*
G37*
G04 #@! TD.AperFunction*
G04 #@! TA.AperFunction,SMDPad,CuDef*
G36*
X97749505Y-114871204D02*
G01*
X97773773Y-114874804D01*
X97797572Y-114880765D01*
X97820671Y-114889030D01*
X97842850Y-114899520D01*
X97863893Y-114912132D01*
X97883599Y-114926747D01*
X97901777Y-114943223D01*
X97918253Y-114961401D01*
X97932868Y-114981107D01*
X97945480Y-115002150D01*
X97955970Y-115024329D01*
X97964235Y-115047428D01*
X97970196Y-115071227D01*
X97973796Y-115095495D01*
X97975000Y-115119999D01*
X97975000Y-116020001D01*
X97973796Y-116044505D01*
X97970196Y-116068773D01*
X97964235Y-116092572D01*
X97955970Y-116115671D01*
X97945480Y-116137850D01*
X97932868Y-116158893D01*
X97918253Y-116178599D01*
X97901777Y-116196777D01*
X97883599Y-116213253D01*
X97863893Y-116227868D01*
X97842850Y-116240480D01*
X97820671Y-116250970D01*
X97797572Y-116259235D01*
X97773773Y-116265196D01*
X97749505Y-116268796D01*
X97725001Y-116270000D01*
X97074999Y-116270000D01*
X97050495Y-116268796D01*
X97026227Y-116265196D01*
X97002428Y-116259235D01*
X96979329Y-116250970D01*
X96957150Y-116240480D01*
X96936107Y-116227868D01*
X96916401Y-116213253D01*
X96898223Y-116196777D01*
X96881747Y-116178599D01*
X96867132Y-116158893D01*
X96854520Y-116137850D01*
X96844030Y-116115671D01*
X96835765Y-116092572D01*
X96829804Y-116068773D01*
X96826204Y-116044505D01*
X96825000Y-116020001D01*
X96825000Y-115119999D01*
X96826204Y-115095495D01*
X96829804Y-115071227D01*
X96835765Y-115047428D01*
X96844030Y-115024329D01*
X96854520Y-115002150D01*
X96867132Y-114981107D01*
X96881747Y-114961401D01*
X96898223Y-114943223D01*
X96916401Y-114926747D01*
X96936107Y-114912132D01*
X96957150Y-114899520D01*
X96979329Y-114889030D01*
X97002428Y-114880765D01*
X97026227Y-114874804D01*
X97050495Y-114871204D01*
X97074999Y-114870000D01*
X97725001Y-114870000D01*
X97749505Y-114871204D01*
G37*
G04 #@! TD.AperFunction*
G04 #@! TA.AperFunction,SMDPad,CuDef*
G36*
X92549505Y-98876204D02*
G01*
X92573773Y-98879804D01*
X92597572Y-98885765D01*
X92620671Y-98894030D01*
X92642850Y-98904520D01*
X92663893Y-98917132D01*
X92683599Y-98931747D01*
X92701777Y-98948223D01*
X92718253Y-98966401D01*
X92732868Y-98986107D01*
X92745480Y-99007150D01*
X92755970Y-99029329D01*
X92764235Y-99052428D01*
X92770196Y-99076227D01*
X92773796Y-99100495D01*
X92775000Y-99124999D01*
X92775000Y-99775001D01*
X92773796Y-99799505D01*
X92770196Y-99823773D01*
X92764235Y-99847572D01*
X92755970Y-99870671D01*
X92745480Y-99892850D01*
X92732868Y-99913893D01*
X92718253Y-99933599D01*
X92701777Y-99951777D01*
X92683599Y-99968253D01*
X92663893Y-99982868D01*
X92642850Y-99995480D01*
X92620671Y-100005970D01*
X92597572Y-100014235D01*
X92573773Y-100020196D01*
X92549505Y-100023796D01*
X92525001Y-100025000D01*
X91624999Y-100025000D01*
X91600495Y-100023796D01*
X91576227Y-100020196D01*
X91552428Y-100014235D01*
X91529329Y-100005970D01*
X91507150Y-99995480D01*
X91486107Y-99982868D01*
X91466401Y-99968253D01*
X91448223Y-99951777D01*
X91431747Y-99933599D01*
X91417132Y-99913893D01*
X91404520Y-99892850D01*
X91394030Y-99870671D01*
X91385765Y-99847572D01*
X91379804Y-99823773D01*
X91376204Y-99799505D01*
X91375000Y-99775001D01*
X91375000Y-99124999D01*
X91376204Y-99100495D01*
X91379804Y-99076227D01*
X91385765Y-99052428D01*
X91394030Y-99029329D01*
X91404520Y-99007150D01*
X91417132Y-98986107D01*
X91431747Y-98966401D01*
X91448223Y-98948223D01*
X91466401Y-98931747D01*
X91486107Y-98917132D01*
X91507150Y-98904520D01*
X91529329Y-98894030D01*
X91552428Y-98885765D01*
X91576227Y-98879804D01*
X91600495Y-98876204D01*
X91624999Y-98875000D01*
X92525001Y-98875000D01*
X92549505Y-98876204D01*
G37*
G04 #@! TD.AperFunction*
G04 #@! TA.AperFunction,SMDPad,CuDef*
G36*
X92549505Y-96826204D02*
G01*
X92573773Y-96829804D01*
X92597572Y-96835765D01*
X92620671Y-96844030D01*
X92642850Y-96854520D01*
X92663893Y-96867132D01*
X92683599Y-96881747D01*
X92701777Y-96898223D01*
X92718253Y-96916401D01*
X92732868Y-96936107D01*
X92745480Y-96957150D01*
X92755970Y-96979329D01*
X92764235Y-97002428D01*
X92770196Y-97026227D01*
X92773796Y-97050495D01*
X92775000Y-97074999D01*
X92775000Y-97725001D01*
X92773796Y-97749505D01*
X92770196Y-97773773D01*
X92764235Y-97797572D01*
X92755970Y-97820671D01*
X92745480Y-97842850D01*
X92732868Y-97863893D01*
X92718253Y-97883599D01*
X92701777Y-97901777D01*
X92683599Y-97918253D01*
X92663893Y-97932868D01*
X92642850Y-97945480D01*
X92620671Y-97955970D01*
X92597572Y-97964235D01*
X92573773Y-97970196D01*
X92549505Y-97973796D01*
X92525001Y-97975000D01*
X91624999Y-97975000D01*
X91600495Y-97973796D01*
X91576227Y-97970196D01*
X91552428Y-97964235D01*
X91529329Y-97955970D01*
X91507150Y-97945480D01*
X91486107Y-97932868D01*
X91466401Y-97918253D01*
X91448223Y-97901777D01*
X91431747Y-97883599D01*
X91417132Y-97863893D01*
X91404520Y-97842850D01*
X91394030Y-97820671D01*
X91385765Y-97797572D01*
X91379804Y-97773773D01*
X91376204Y-97749505D01*
X91375000Y-97725001D01*
X91375000Y-97074999D01*
X91376204Y-97050495D01*
X91379804Y-97026227D01*
X91385765Y-97002428D01*
X91394030Y-96979329D01*
X91404520Y-96957150D01*
X91417132Y-96936107D01*
X91431747Y-96916401D01*
X91448223Y-96898223D01*
X91466401Y-96881747D01*
X91486107Y-96867132D01*
X91507150Y-96854520D01*
X91529329Y-96844030D01*
X91552428Y-96835765D01*
X91576227Y-96829804D01*
X91600495Y-96826204D01*
X91624999Y-96825000D01*
X92525001Y-96825000D01*
X92549505Y-96826204D01*
G37*
G04 #@! TD.AperFunction*
D14*
X144145000Y-105885000D03*
X144145000Y-110885000D03*
X144145000Y-100885000D03*
D15*
X144145000Y-95885000D03*
G04 #@! TA.AperFunction,SMDPad,CuDef*
D13*
G36*
X117314505Y-72206204D02*
G01*
X117338773Y-72209804D01*
X117362572Y-72215765D01*
X117385671Y-72224030D01*
X117407850Y-72234520D01*
X117428893Y-72247132D01*
X117448599Y-72261747D01*
X117466777Y-72278223D01*
X117483253Y-72296401D01*
X117497868Y-72316107D01*
X117510480Y-72337150D01*
X117520970Y-72359329D01*
X117529235Y-72382428D01*
X117535196Y-72406227D01*
X117538796Y-72430495D01*
X117540000Y-72454999D01*
X117540000Y-73105001D01*
X117538796Y-73129505D01*
X117535196Y-73153773D01*
X117529235Y-73177572D01*
X117520970Y-73200671D01*
X117510480Y-73222850D01*
X117497868Y-73243893D01*
X117483253Y-73263599D01*
X117466777Y-73281777D01*
X117448599Y-73298253D01*
X117428893Y-73312868D01*
X117407850Y-73325480D01*
X117385671Y-73335970D01*
X117362572Y-73344235D01*
X117338773Y-73350196D01*
X117314505Y-73353796D01*
X117290001Y-73355000D01*
X116389999Y-73355000D01*
X116365495Y-73353796D01*
X116341227Y-73350196D01*
X116317428Y-73344235D01*
X116294329Y-73335970D01*
X116272150Y-73325480D01*
X116251107Y-73312868D01*
X116231401Y-73298253D01*
X116213223Y-73281777D01*
X116196747Y-73263599D01*
X116182132Y-73243893D01*
X116169520Y-73222850D01*
X116159030Y-73200671D01*
X116150765Y-73177572D01*
X116144804Y-73153773D01*
X116141204Y-73129505D01*
X116140000Y-73105001D01*
X116140000Y-72454999D01*
X116141204Y-72430495D01*
X116144804Y-72406227D01*
X116150765Y-72382428D01*
X116159030Y-72359329D01*
X116169520Y-72337150D01*
X116182132Y-72316107D01*
X116196747Y-72296401D01*
X116213223Y-72278223D01*
X116231401Y-72261747D01*
X116251107Y-72247132D01*
X116272150Y-72234520D01*
X116294329Y-72224030D01*
X116317428Y-72215765D01*
X116341227Y-72209804D01*
X116365495Y-72206204D01*
X116389999Y-72205000D01*
X117290001Y-72205000D01*
X117314505Y-72206204D01*
G37*
G04 #@! TD.AperFunction*
G04 #@! TA.AperFunction,SMDPad,CuDef*
G36*
X117314505Y-70156204D02*
G01*
X117338773Y-70159804D01*
X117362572Y-70165765D01*
X117385671Y-70174030D01*
X117407850Y-70184520D01*
X117428893Y-70197132D01*
X117448599Y-70211747D01*
X117466777Y-70228223D01*
X117483253Y-70246401D01*
X117497868Y-70266107D01*
X117510480Y-70287150D01*
X117520970Y-70309329D01*
X117529235Y-70332428D01*
X117535196Y-70356227D01*
X117538796Y-70380495D01*
X117540000Y-70404999D01*
X117540000Y-71055001D01*
X117538796Y-71079505D01*
X117535196Y-71103773D01*
X117529235Y-71127572D01*
X117520970Y-71150671D01*
X117510480Y-71172850D01*
X117497868Y-71193893D01*
X117483253Y-71213599D01*
X117466777Y-71231777D01*
X117448599Y-71248253D01*
X117428893Y-71262868D01*
X117407850Y-71275480D01*
X117385671Y-71285970D01*
X117362572Y-71294235D01*
X117338773Y-71300196D01*
X117314505Y-71303796D01*
X117290001Y-71305000D01*
X116389999Y-71305000D01*
X116365495Y-71303796D01*
X116341227Y-71300196D01*
X116317428Y-71294235D01*
X116294329Y-71285970D01*
X116272150Y-71275480D01*
X116251107Y-71262868D01*
X116231401Y-71248253D01*
X116213223Y-71231777D01*
X116196747Y-71213599D01*
X116182132Y-71193893D01*
X116169520Y-71172850D01*
X116159030Y-71150671D01*
X116150765Y-71127572D01*
X116144804Y-71103773D01*
X116141204Y-71079505D01*
X116140000Y-71055001D01*
X116140000Y-70404999D01*
X116141204Y-70380495D01*
X116144804Y-70356227D01*
X116150765Y-70332428D01*
X116159030Y-70309329D01*
X116169520Y-70287150D01*
X116182132Y-70266107D01*
X116196747Y-70246401D01*
X116213223Y-70228223D01*
X116231401Y-70211747D01*
X116251107Y-70197132D01*
X116272150Y-70184520D01*
X116294329Y-70174030D01*
X116317428Y-70165765D01*
X116341227Y-70159804D01*
X116365495Y-70156204D01*
X116389999Y-70155000D01*
X117290001Y-70155000D01*
X117314505Y-70156204D01*
G37*
G04 #@! TD.AperFunction*
D16*
X135890000Y-67945000D03*
D17*
X148590000Y-67945000D03*
D18*
X94615000Y-115570000D03*
X102235000Y-82550000D03*
X94615000Y-113030000D03*
X102235000Y-85090000D03*
X94615000Y-110490000D03*
X102235000Y-87630000D03*
X94615000Y-107950000D03*
X102235000Y-90170000D03*
X94615000Y-105410000D03*
X102235000Y-92710000D03*
X94615000Y-102870000D03*
X102235000Y-95250000D03*
X94615000Y-100330000D03*
X102235000Y-97790000D03*
X94615000Y-97790000D03*
X102235000Y-100330000D03*
X94615000Y-95250000D03*
X102235000Y-102870000D03*
X94615000Y-92710000D03*
X102235000Y-105410000D03*
X94615000Y-90170000D03*
X102235000Y-107950000D03*
X94615000Y-87630000D03*
X102235000Y-110490000D03*
X94615000Y-85090000D03*
X102235000Y-113030000D03*
X94615000Y-82550000D03*
D19*
X102235000Y-115570000D03*
D20*
X129540000Y-70485000D03*
X121920000Y-75565000D03*
X129540000Y-73025000D03*
X121920000Y-73025000D03*
X129540000Y-75565000D03*
D21*
X121920000Y-70485000D03*
D22*
X98425000Y-91780000D03*
X98425000Y-96180000D03*
G04 #@! TA.AperFunction,SMDPad,CuDef*
D13*
G36*
X98899505Y-100781204D02*
G01*
X98923773Y-100784804D01*
X98947572Y-100790765D01*
X98970671Y-100799030D01*
X98992850Y-100809520D01*
X99013893Y-100822132D01*
X99033599Y-100836747D01*
X99051777Y-100853223D01*
X99068253Y-100871401D01*
X99082868Y-100891107D01*
X99095480Y-100912150D01*
X99105970Y-100934329D01*
X99114235Y-100957428D01*
X99120196Y-100981227D01*
X99123796Y-101005495D01*
X99125000Y-101029999D01*
X99125000Y-101680001D01*
X99123796Y-101704505D01*
X99120196Y-101728773D01*
X99114235Y-101752572D01*
X99105970Y-101775671D01*
X99095480Y-101797850D01*
X99082868Y-101818893D01*
X99068253Y-101838599D01*
X99051777Y-101856777D01*
X99033599Y-101873253D01*
X99013893Y-101887868D01*
X98992850Y-101900480D01*
X98970671Y-101910970D01*
X98947572Y-101919235D01*
X98923773Y-101925196D01*
X98899505Y-101928796D01*
X98875001Y-101930000D01*
X97974999Y-101930000D01*
X97950495Y-101928796D01*
X97926227Y-101925196D01*
X97902428Y-101919235D01*
X97879329Y-101910970D01*
X97857150Y-101900480D01*
X97836107Y-101887868D01*
X97816401Y-101873253D01*
X97798223Y-101856777D01*
X97781747Y-101838599D01*
X97767132Y-101818893D01*
X97754520Y-101797850D01*
X97744030Y-101775671D01*
X97735765Y-101752572D01*
X97729804Y-101728773D01*
X97726204Y-101704505D01*
X97725000Y-101680001D01*
X97725000Y-101029999D01*
X97726204Y-101005495D01*
X97729804Y-100981227D01*
X97735765Y-100957428D01*
X97744030Y-100934329D01*
X97754520Y-100912150D01*
X97767132Y-100891107D01*
X97781747Y-100871401D01*
X97798223Y-100853223D01*
X97816401Y-100836747D01*
X97836107Y-100822132D01*
X97857150Y-100809520D01*
X97879329Y-100799030D01*
X97902428Y-100790765D01*
X97926227Y-100784804D01*
X97950495Y-100781204D01*
X97974999Y-100780000D01*
X98875001Y-100780000D01*
X98899505Y-100781204D01*
G37*
G04 #@! TD.AperFunction*
G04 #@! TA.AperFunction,SMDPad,CuDef*
G36*
X98899505Y-98731204D02*
G01*
X98923773Y-98734804D01*
X98947572Y-98740765D01*
X98970671Y-98749030D01*
X98992850Y-98759520D01*
X99013893Y-98772132D01*
X99033599Y-98786747D01*
X99051777Y-98803223D01*
X99068253Y-98821401D01*
X99082868Y-98841107D01*
X99095480Y-98862150D01*
X99105970Y-98884329D01*
X99114235Y-98907428D01*
X99120196Y-98931227D01*
X99123796Y-98955495D01*
X99125000Y-98979999D01*
X99125000Y-99630001D01*
X99123796Y-99654505D01*
X99120196Y-99678773D01*
X99114235Y-99702572D01*
X99105970Y-99725671D01*
X99095480Y-99747850D01*
X99082868Y-99768893D01*
X99068253Y-99788599D01*
X99051777Y-99806777D01*
X99033599Y-99823253D01*
X99013893Y-99837868D01*
X98992850Y-99850480D01*
X98970671Y-99860970D01*
X98947572Y-99869235D01*
X98923773Y-99875196D01*
X98899505Y-99878796D01*
X98875001Y-99880000D01*
X97974999Y-99880000D01*
X97950495Y-99878796D01*
X97926227Y-99875196D01*
X97902428Y-99869235D01*
X97879329Y-99860970D01*
X97857150Y-99850480D01*
X97836107Y-99837868D01*
X97816401Y-99823253D01*
X97798223Y-99806777D01*
X97781747Y-99788599D01*
X97767132Y-99768893D01*
X97754520Y-99747850D01*
X97744030Y-99725671D01*
X97735765Y-99702572D01*
X97729804Y-99678773D01*
X97726204Y-99654505D01*
X97725000Y-99630001D01*
X97725000Y-98979999D01*
X97726204Y-98955495D01*
X97729804Y-98931227D01*
X97735765Y-98907428D01*
X97744030Y-98884329D01*
X97754520Y-98862150D01*
X97767132Y-98841107D01*
X97781747Y-98821401D01*
X97798223Y-98803223D01*
X97816401Y-98786747D01*
X97836107Y-98772132D01*
X97857150Y-98759520D01*
X97879329Y-98749030D01*
X97902428Y-98740765D01*
X97926227Y-98734804D01*
X97950495Y-98731204D01*
X97974999Y-98730000D01*
X98875001Y-98730000D01*
X98899505Y-98731204D01*
G37*
G04 #@! TD.AperFunction*
G04 #@! TA.AperFunction,SMDPad,CuDef*
G36*
X105884505Y-96971204D02*
G01*
X105908773Y-96974804D01*
X105932572Y-96980765D01*
X105955671Y-96989030D01*
X105977850Y-96999520D01*
X105998893Y-97012132D01*
X106018599Y-97026747D01*
X106036777Y-97043223D01*
X106053253Y-97061401D01*
X106067868Y-97081107D01*
X106080480Y-97102150D01*
X106090970Y-97124329D01*
X106099235Y-97147428D01*
X106105196Y-97171227D01*
X106108796Y-97195495D01*
X106110000Y-97219999D01*
X106110000Y-97870001D01*
X106108796Y-97894505D01*
X106105196Y-97918773D01*
X106099235Y-97942572D01*
X106090970Y-97965671D01*
X106080480Y-97987850D01*
X106067868Y-98008893D01*
X106053253Y-98028599D01*
X106036777Y-98046777D01*
X106018599Y-98063253D01*
X105998893Y-98077868D01*
X105977850Y-98090480D01*
X105955671Y-98100970D01*
X105932572Y-98109235D01*
X105908773Y-98115196D01*
X105884505Y-98118796D01*
X105860001Y-98120000D01*
X104959999Y-98120000D01*
X104935495Y-98118796D01*
X104911227Y-98115196D01*
X104887428Y-98109235D01*
X104864329Y-98100970D01*
X104842150Y-98090480D01*
X104821107Y-98077868D01*
X104801401Y-98063253D01*
X104783223Y-98046777D01*
X104766747Y-98028599D01*
X104752132Y-98008893D01*
X104739520Y-97987850D01*
X104729030Y-97965671D01*
X104720765Y-97942572D01*
X104714804Y-97918773D01*
X104711204Y-97894505D01*
X104710000Y-97870001D01*
X104710000Y-97219999D01*
X104711204Y-97195495D01*
X104714804Y-97171227D01*
X104720765Y-97147428D01*
X104729030Y-97124329D01*
X104739520Y-97102150D01*
X104752132Y-97081107D01*
X104766747Y-97061401D01*
X104783223Y-97043223D01*
X104801401Y-97026747D01*
X104821107Y-97012132D01*
X104842150Y-96999520D01*
X104864329Y-96989030D01*
X104887428Y-96980765D01*
X104911227Y-96974804D01*
X104935495Y-96971204D01*
X104959999Y-96970000D01*
X105860001Y-96970000D01*
X105884505Y-96971204D01*
G37*
G04 #@! TD.AperFunction*
G04 #@! TA.AperFunction,SMDPad,CuDef*
G36*
X105884505Y-94921204D02*
G01*
X105908773Y-94924804D01*
X105932572Y-94930765D01*
X105955671Y-94939030D01*
X105977850Y-94949520D01*
X105998893Y-94962132D01*
X106018599Y-94976747D01*
X106036777Y-94993223D01*
X106053253Y-95011401D01*
X106067868Y-95031107D01*
X106080480Y-95052150D01*
X106090970Y-95074329D01*
X106099235Y-95097428D01*
X106105196Y-95121227D01*
X106108796Y-95145495D01*
X106110000Y-95169999D01*
X106110000Y-95820001D01*
X106108796Y-95844505D01*
X106105196Y-95868773D01*
X106099235Y-95892572D01*
X106090970Y-95915671D01*
X106080480Y-95937850D01*
X106067868Y-95958893D01*
X106053253Y-95978599D01*
X106036777Y-95996777D01*
X106018599Y-96013253D01*
X105998893Y-96027868D01*
X105977850Y-96040480D01*
X105955671Y-96050970D01*
X105932572Y-96059235D01*
X105908773Y-96065196D01*
X105884505Y-96068796D01*
X105860001Y-96070000D01*
X104959999Y-96070000D01*
X104935495Y-96068796D01*
X104911227Y-96065196D01*
X104887428Y-96059235D01*
X104864329Y-96050970D01*
X104842150Y-96040480D01*
X104821107Y-96027868D01*
X104801401Y-96013253D01*
X104783223Y-95996777D01*
X104766747Y-95978599D01*
X104752132Y-95958893D01*
X104739520Y-95937850D01*
X104729030Y-95915671D01*
X104720765Y-95892572D01*
X104714804Y-95868773D01*
X104711204Y-95844505D01*
X104710000Y-95820001D01*
X104710000Y-95169999D01*
X104711204Y-95145495D01*
X104714804Y-95121227D01*
X104720765Y-95097428D01*
X104729030Y-95074329D01*
X104739520Y-95052150D01*
X104752132Y-95031107D01*
X104766747Y-95011401D01*
X104783223Y-94993223D01*
X104801401Y-94976747D01*
X104821107Y-94962132D01*
X104842150Y-94949520D01*
X104864329Y-94939030D01*
X104887428Y-94930765D01*
X104911227Y-94924804D01*
X104935495Y-94921204D01*
X104959999Y-94920000D01*
X105860001Y-94920000D01*
X105884505Y-94921204D01*
G37*
G04 #@! TD.AperFunction*
D23*
X131445000Y-110490000D03*
D24*
X131445000Y-113030000D03*
D23*
X131445000Y-107950000D03*
X131445000Y-105410000D03*
X131445000Y-102870000D03*
X131445000Y-100330000D03*
X131445000Y-97790000D03*
X131445000Y-95250000D03*
X108585000Y-95250000D03*
X108585000Y-97790000D03*
X108585000Y-100330000D03*
X108585000Y-102870000D03*
X108585000Y-105410000D03*
X108585000Y-107950000D03*
X108585000Y-110490000D03*
X108585000Y-113030000D03*
D15*
X74930000Y-120175000D03*
D14*
X74930000Y-125175000D03*
X74930000Y-135175000D03*
X74930000Y-130175000D03*
D10*
X93345000Y-57150000D03*
D11*
X95385000Y-57150000D03*
X97425000Y-57150000D03*
X99465000Y-57150000D03*
X94365000Y-58930000D03*
X96405000Y-58930000D03*
X98445000Y-58930000D03*
X100485000Y-58930000D03*
D12*
X105035000Y-58040000D03*
X88775000Y-58040000D03*
X77090000Y-87755000D03*
X77090000Y-71495000D03*
D11*
X77980000Y-76045000D03*
X77980000Y-78085000D03*
X77980000Y-80125000D03*
X77980000Y-82165000D03*
X76200000Y-77065000D03*
X76200000Y-79105000D03*
X76200000Y-81145000D03*
D10*
X76200000Y-83185000D03*
X137795000Y-57150000D03*
D11*
X139835000Y-57150000D03*
X141875000Y-57150000D03*
X143915000Y-57150000D03*
X138815000Y-58930000D03*
X140855000Y-58930000D03*
X142895000Y-58930000D03*
X144935000Y-58930000D03*
D12*
X149485000Y-58040000D03*
X133225000Y-58040000D03*
X111000000Y-58040000D03*
X127260000Y-58040000D03*
D11*
X122710000Y-58930000D03*
X120670000Y-58930000D03*
X118630000Y-58930000D03*
X116590000Y-58930000D03*
X121690000Y-57150000D03*
X119650000Y-57150000D03*
X117610000Y-57150000D03*
D10*
X115570000Y-57150000D03*
X76325000Y-61615000D03*
D11*
X76325000Y-59575000D03*
X76325000Y-57535000D03*
X76325000Y-55495000D03*
X78105000Y-60595000D03*
X78105000Y-58555000D03*
X78105000Y-56515000D03*
X78105000Y-54475000D03*
D12*
X77215000Y-49925000D03*
X77215000Y-66185000D03*
X127125000Y-129285000D03*
X110865000Y-129285000D03*
D11*
X115415000Y-128395000D03*
X117455000Y-128395000D03*
X119495000Y-128395000D03*
X121535000Y-128395000D03*
X116435000Y-130175000D03*
X118475000Y-130175000D03*
X120515000Y-130175000D03*
D10*
X122555000Y-130175000D03*
D21*
X88265000Y-115570000D03*
D20*
X80645000Y-97790000D03*
X88265000Y-113030000D03*
X80645000Y-100330000D03*
X88265000Y-110490000D03*
X80645000Y-102870000D03*
X88265000Y-107950000D03*
X80645000Y-105410000D03*
X88265000Y-105410000D03*
X80645000Y-107950000D03*
X88265000Y-102870000D03*
X80645000Y-110490000D03*
X88265000Y-100330000D03*
X80645000Y-113030000D03*
X88265000Y-97790000D03*
X80645000Y-115570000D03*
D25*
X92075000Y-69850000D03*
X109855000Y-77470000D03*
X94615000Y-69850000D03*
X107315000Y-77470000D03*
X97155000Y-69850000D03*
X104775000Y-77470000D03*
X99695000Y-69850000D03*
X102235000Y-77470000D03*
X102235000Y-69850000D03*
X99695000Y-77470000D03*
X104775000Y-69850000D03*
X97155000Y-77470000D03*
X107315000Y-69850000D03*
X94615000Y-77470000D03*
X109855000Y-69850000D03*
D26*
X92075000Y-77470000D03*
D21*
X113665000Y-110490000D03*
D20*
X121285000Y-92710000D03*
X113665000Y-107950000D03*
X121285000Y-95250000D03*
X113665000Y-105410000D03*
X121285000Y-97790000D03*
X113665000Y-102870000D03*
X121285000Y-100330000D03*
X113665000Y-100330000D03*
X121285000Y-102870000D03*
X113665000Y-97790000D03*
X121285000Y-105410000D03*
X113665000Y-95250000D03*
X121285000Y-107950000D03*
X113665000Y-92710000D03*
X121285000Y-110490000D03*
D27*
X142240000Y-90805000D03*
D28*
X144780000Y-90805000D03*
X147320000Y-90805000D03*
D29*
X71120000Y-45847000D03*
X153797000Y-56769000D03*
X153797000Y-96012000D03*
X67691000Y-114173000D03*
X153797000Y-131953000D03*
D30*
X78232000Y-68834000D03*
D31*
X83185000Y-124460000D03*
X113030000Y-73660000D03*
D30*
X117602000Y-95885000D03*
X118989500Y-75555500D03*
X91948000Y-100838000D03*
D31*
X138430000Y-85090000D03*
X132715000Y-75565000D03*
D30*
X104775000Y-100330000D03*
X104775000Y-95250000D03*
X129540000Y-135890000D03*
X108585000Y-135890000D03*
X88646000Y-95250000D03*
X86995000Y-123190000D03*
X106045000Y-102870000D03*
X116205000Y-75565000D03*
D32*
X86995000Y-118745000D03*
X99695000Y-107950000D03*
X90170000Y-118745000D03*
X99695000Y-105410000D03*
D33*
X94225000Y-97400000D02*
X94615000Y-97790000D01*
X92075000Y-97400000D02*
X94225000Y-97400000D01*
D34*
X102235000Y-97790000D02*
X108585000Y-97790000D01*
X94615000Y-100330000D02*
X95885000Y-100330000D01*
X96910000Y-99305000D02*
X98425000Y-99305000D01*
X95885000Y-100330000D02*
X96910000Y-99305000D01*
X102235000Y-97790000D02*
X100965000Y-97790000D01*
X99450000Y-99305000D02*
X98425000Y-99305000D01*
X100965000Y-97790000D02*
X99450000Y-99305000D01*
X110385000Y-97790000D02*
X111125000Y-97050000D01*
X108585000Y-97790000D02*
X110385000Y-97790000D01*
X111125000Y-93250000D02*
X111665000Y-92710000D01*
X111665000Y-92710000D02*
X113665000Y-92710000D01*
X111125000Y-97050000D02*
X111125000Y-93250000D01*
D33*
X92075000Y-100025000D02*
X92075000Y-99450000D01*
X92380000Y-100330000D02*
X92075000Y-100025000D01*
X94615000Y-100330000D02*
X92380000Y-100330000D01*
X91375000Y-99450000D02*
X89715000Y-97790000D01*
X92075000Y-99450000D02*
X91375000Y-99450000D01*
X89715000Y-97790000D02*
X88265000Y-97790000D01*
D35*
X77980000Y-82165000D02*
X77980000Y-76045000D01*
X76325000Y-61615000D02*
X76325000Y-55495000D01*
X93345000Y-57150000D02*
X99465000Y-57150000D01*
X115570000Y-57150000D02*
X121690000Y-57150000D01*
D34*
X94210000Y-129155000D02*
X95230000Y-130175000D01*
X94210000Y-128395000D02*
X94210000Y-129155000D01*
D35*
X95230000Y-130175000D02*
X95230000Y-132695000D01*
X95230000Y-132695000D02*
X99695000Y-137160000D01*
X117455000Y-129155000D02*
X118475000Y-130175000D01*
X117455000Y-128395000D02*
X117455000Y-129155000D01*
X118475000Y-131235660D02*
X118491000Y-131251660D01*
X118475000Y-130175000D02*
X118475000Y-131235660D01*
X118491000Y-134493000D02*
X115824000Y-137160000D01*
X118491000Y-131251660D02*
X118491000Y-134493000D01*
X99695000Y-137160000D02*
X115824000Y-137160000D01*
X138410000Y-129155000D02*
X139430000Y-130175000D01*
X138410000Y-128395000D02*
X138410000Y-129155000D01*
X118110000Y-137160000D02*
X115824000Y-137160000D01*
X137160000Y-137160000D02*
X118110000Y-137160000D01*
X138680001Y-135639999D02*
X137160000Y-137160000D01*
X139430000Y-130175000D02*
X138680001Y-130924999D01*
X138680001Y-130924999D02*
X138680001Y-135639999D01*
D34*
X139430000Y-131810000D02*
X139430000Y-130175000D01*
X139065000Y-131445000D02*
X139430000Y-131810000D01*
D35*
X111790000Y-78105000D02*
X116440000Y-78105000D01*
X111155000Y-77470000D02*
X111790000Y-78105000D01*
X121520000Y-73025000D02*
X121920000Y-73025000D01*
X116440000Y-78105000D02*
X118989500Y-75555500D01*
X109855000Y-77470000D02*
X111155000Y-77470000D01*
D33*
X143915000Y-57150000D02*
X137795000Y-57150000D01*
X74930000Y-130175000D02*
X74930000Y-125175000D01*
D35*
X99695000Y-137160000D02*
X80010000Y-137160000D01*
X80010000Y-137160000D02*
X79375000Y-137795000D01*
X79375000Y-137795000D02*
X72390000Y-137795000D01*
X72390000Y-137795000D02*
X71120000Y-136525000D01*
X72450000Y-130175000D02*
X74930000Y-130175000D01*
X71120000Y-131505000D02*
X72450000Y-130175000D01*
X71120000Y-136525000D02*
X71120000Y-131505000D01*
D36*
X74930000Y-125175000D02*
X82470000Y-125175000D01*
X82470000Y-125175000D02*
X83185000Y-124460000D01*
X83185000Y-124460000D02*
X83185000Y-124460000D01*
D34*
X111455000Y-77470000D02*
X113030000Y-75895000D01*
X109855000Y-77470000D02*
X111455000Y-77470000D01*
X113030000Y-75895000D02*
X113030000Y-73660000D01*
X115365000Y-92710000D02*
X117602000Y-94947000D01*
X113665000Y-92710000D02*
X115365000Y-92710000D01*
X117602000Y-94947000D02*
X117602000Y-95885000D01*
X117602000Y-95885000D02*
X117602000Y-95885000D01*
D35*
X118989500Y-75555500D02*
X121520000Y-73025000D01*
D33*
X92456000Y-100330000D02*
X91948000Y-100838000D01*
X94615000Y-100330000D02*
X92456000Y-100330000D01*
X116903999Y-51625001D02*
X117411001Y-51625001D01*
X119650000Y-53864000D02*
X119650000Y-57150000D01*
X117411001Y-51625001D02*
X119650000Y-53864000D01*
X141125001Y-54003001D02*
X141125001Y-56400001D01*
X141125001Y-56400001D02*
X141875000Y-57150000D01*
X116903999Y-51625001D02*
X138747001Y-51625001D01*
X138747001Y-51625001D02*
X141125001Y-54003001D01*
X76325000Y-54434340D02*
X76327000Y-54432340D01*
X76325000Y-55495000D02*
X76325000Y-54434340D01*
X76327000Y-54432340D02*
X76327000Y-53213000D01*
X77914999Y-51625001D02*
X78930999Y-51625001D01*
X76327000Y-53213000D02*
X77914999Y-51625001D01*
D34*
X76325000Y-61615000D02*
X76347000Y-61615000D01*
X79375000Y-64643000D02*
X79375000Y-69088000D01*
X76347000Y-61615000D02*
X79375000Y-64643000D01*
D35*
X79375000Y-69088000D02*
X79375000Y-66929000D01*
D34*
X79121000Y-68834000D02*
X79375000Y-69088000D01*
X78232000Y-68834000D02*
X79121000Y-68834000D01*
X79375000Y-74650000D02*
X79375000Y-69088000D01*
X77980000Y-76045000D02*
X79375000Y-74650000D01*
X94805001Y-51625001D02*
X97536000Y-54356000D01*
D33*
X94805001Y-51625001D02*
X78930999Y-51625001D01*
X116903999Y-51625001D02*
X94805001Y-51625001D01*
D34*
X97425000Y-54467000D02*
X97425000Y-57150000D01*
X97536000Y-54356000D02*
X97425000Y-54467000D01*
D33*
X142000000Y-110885000D02*
X144145000Y-110885000D01*
X139700000Y-108585000D02*
X142000000Y-110885000D01*
X142240000Y-90805000D02*
X139700000Y-93345000D01*
X139700000Y-93345000D02*
X139700000Y-108585000D01*
X147125000Y-95885000D02*
X151130000Y-91880000D01*
X144145000Y-95885000D02*
X147125000Y-95885000D01*
X151130000Y-70485000D02*
X148590000Y-67945000D01*
X151130000Y-91880000D02*
X151130000Y-70485000D01*
X144780000Y-95250000D02*
X144145000Y-95885000D01*
X144780000Y-90805000D02*
X144780000Y-95250000D01*
X147320000Y-88805000D02*
X143605000Y-85090000D01*
X147320000Y-90805000D02*
X147320000Y-88805000D01*
X143605000Y-85090000D02*
X138430000Y-85090000D01*
X138430000Y-85090000D02*
X138430000Y-85090000D01*
X129540000Y-75565000D02*
X132715000Y-75565000D01*
D35*
X107315000Y-71550000D02*
X106475000Y-72390000D01*
X107315000Y-69850000D02*
X107315000Y-71550000D01*
X106475000Y-72390000D02*
X90805000Y-72390000D01*
X90805000Y-72390000D02*
X89535000Y-71120000D01*
X89535000Y-71120000D02*
X89535000Y-62865000D01*
X89535000Y-62865000D02*
X86360000Y-59690000D01*
X86360000Y-59690000D02*
X86360000Y-56515000D01*
X84320000Y-54475000D02*
X78105000Y-54475000D01*
X86360000Y-56515000D02*
X84320000Y-54475000D01*
X78105000Y-56515000D02*
X81280000Y-56515000D01*
X81280000Y-56515000D02*
X83185000Y-58420000D01*
X83185000Y-58420000D02*
X83185000Y-89535000D01*
X83185000Y-89535000D02*
X77470000Y-95250000D01*
X78945000Y-100330000D02*
X80645000Y-100330000D01*
X77470000Y-98855000D02*
X78945000Y-100330000D01*
X77470000Y-95250000D02*
X77470000Y-98855000D01*
X80145000Y-58555000D02*
X78105000Y-58555000D01*
X76835000Y-102870000D02*
X75565000Y-101600000D01*
X75565000Y-101600000D02*
X75565000Y-95250000D01*
X80645000Y-102870000D02*
X76835000Y-102870000D01*
X75565000Y-95250000D02*
X81915000Y-88900000D01*
X81915000Y-88900000D02*
X81915000Y-60325000D01*
X81915000Y-60325000D02*
X80145000Y-58555000D01*
X78854999Y-61344999D02*
X79124999Y-61344999D01*
X78105000Y-60595000D02*
X78854999Y-61344999D01*
X79124999Y-61344999D02*
X80645000Y-62865000D01*
X80645000Y-62865000D02*
X80645000Y-88265000D01*
X80645000Y-88265000D02*
X73660000Y-95250000D01*
X73660000Y-95250000D02*
X73660000Y-102870000D01*
X76200000Y-105410000D02*
X80645000Y-105410000D01*
X73660000Y-102870000D02*
X76200000Y-105410000D01*
X80645000Y-115570000D02*
X73660000Y-115570000D01*
X73660000Y-115570000D02*
X67310000Y-109220000D01*
X67310000Y-109220000D02*
X67310000Y-81280000D01*
X71525000Y-77065000D02*
X76200000Y-77065000D01*
X67310000Y-81280000D02*
X71525000Y-77065000D01*
X71390000Y-79105000D02*
X76200000Y-79105000D01*
X68580000Y-81915000D02*
X71390000Y-79105000D01*
X68580000Y-107950000D02*
X68580000Y-81915000D01*
X80645000Y-113030000D02*
X73660000Y-113030000D01*
X73660000Y-113030000D02*
X68580000Y-107950000D01*
X71255000Y-81145000D02*
X76200000Y-81145000D01*
X69850000Y-82550000D02*
X71255000Y-81145000D01*
X69850000Y-107315000D02*
X69850000Y-82550000D01*
X80645000Y-110490000D02*
X73025000Y-110490000D01*
X73025000Y-110490000D02*
X69850000Y-107315000D01*
X76200000Y-83185000D02*
X71755000Y-83185000D01*
X71755000Y-83185000D02*
X71120000Y-83820000D01*
X71120000Y-83820000D02*
X71120000Y-106045000D01*
X73025000Y-107950000D02*
X80645000Y-107950000D01*
X71120000Y-106045000D02*
X73025000Y-107950000D01*
D34*
X104775000Y-67850000D02*
X108490000Y-64135000D01*
X104775000Y-69850000D02*
X104775000Y-67850000D01*
X108490000Y-64135000D02*
X116840000Y-64135000D01*
X118630000Y-62345000D02*
X118630000Y-58930000D01*
X116840000Y-64135000D02*
X118630000Y-62345000D01*
X102235000Y-67850000D02*
X107855000Y-62230000D01*
X102235000Y-69850000D02*
X102235000Y-67850000D01*
X113290000Y-62230000D02*
X116590000Y-58930000D01*
X107855000Y-62230000D02*
X113290000Y-62230000D01*
X100485000Y-62710000D02*
X100485000Y-58930000D01*
X99695000Y-69850000D02*
X99695000Y-63500000D01*
X99695000Y-63500000D02*
X100485000Y-62710000D01*
X98445000Y-61575000D02*
X98445000Y-58930000D01*
X97155000Y-69850000D02*
X97155000Y-62865000D01*
X97155000Y-62865000D02*
X98445000Y-61575000D01*
X94615000Y-69850000D02*
X94615000Y-62865000D01*
X96405000Y-61075000D02*
X96405000Y-58930000D01*
X94615000Y-62865000D02*
X96405000Y-61075000D01*
X92075000Y-61220000D02*
X94365000Y-58930000D01*
X92075000Y-69850000D02*
X92075000Y-61220000D01*
D35*
X120670000Y-58930000D02*
X120670000Y-60345000D01*
X120670000Y-60345000D02*
X125095000Y-64770000D01*
X122985000Y-100330000D02*
X121285000Y-100330000D01*
X125095000Y-98220000D02*
X122985000Y-100330000D01*
X125095000Y-64770000D02*
X125095000Y-98220000D01*
X121285000Y-102870000D02*
X125730000Y-102870000D01*
X125730000Y-102870000D02*
X126365000Y-102235000D01*
X126365000Y-62585000D02*
X122710000Y-58930000D01*
X126365000Y-102235000D02*
X126365000Y-62585000D01*
D34*
X108585000Y-95250000D02*
X108585000Y-91440000D01*
X108585000Y-91440000D02*
X109855000Y-90170000D01*
X121285000Y-91110000D02*
X121285000Y-92710000D01*
X120345000Y-90170000D02*
X121285000Y-91110000D01*
X109855000Y-90170000D02*
X120345000Y-90170000D01*
D33*
X97400000Y-101680000D02*
X97725000Y-101355000D01*
X97725000Y-101355000D02*
X98425000Y-101355000D01*
X97400000Y-115570000D02*
X97400000Y-101680000D01*
X101210000Y-101355000D02*
X98425000Y-101355000D01*
X102235000Y-100330000D02*
X101210000Y-101355000D01*
X102235000Y-100330000D02*
X104775000Y-100330000D01*
X108585000Y-95250000D02*
X104775000Y-95250000D01*
D35*
X96250000Y-129155000D02*
X97270000Y-130175000D01*
X96250000Y-128395000D02*
X96250000Y-129155000D01*
X115415000Y-129155000D02*
X116435000Y-130175000D01*
X115415000Y-128395000D02*
X115415000Y-129155000D01*
X97270000Y-131235660D02*
X97409000Y-131374660D01*
D34*
X97270000Y-130175000D02*
X97270000Y-131235660D01*
X97409000Y-131374660D02*
X97409000Y-132461000D01*
X97409000Y-132461000D02*
X100838000Y-135890000D01*
X100838000Y-135890000D02*
X108585000Y-135890000D01*
X116435000Y-133628000D02*
X116435000Y-130175000D01*
X114173000Y-135890000D02*
X116435000Y-133628000D01*
D35*
X136370000Y-129155000D02*
X137390000Y-130175000D01*
X136370000Y-128395000D02*
X136370000Y-129155000D01*
X137390000Y-131235660D02*
X137160000Y-131465660D01*
D34*
X137390000Y-130175000D02*
X137390000Y-131235660D01*
X137160000Y-131465660D02*
X137160000Y-132226002D01*
X137160000Y-133350000D02*
X134620000Y-135890000D01*
X137160000Y-132226002D02*
X137160000Y-133350000D01*
X134620000Y-135890000D02*
X129540000Y-135890000D01*
X108585000Y-135890000D02*
X114173000Y-135890000D01*
X115415000Y-128395000D02*
X114665001Y-127645001D01*
X96250000Y-128395000D02*
X96250000Y-126095000D01*
X93345000Y-123190000D02*
X86995000Y-123190000D01*
X96250000Y-126095000D02*
X93345000Y-123190000D01*
D33*
X74930000Y-135175000D02*
X81995000Y-135175000D01*
X86995000Y-130175000D02*
X86995000Y-123190000D01*
X81995000Y-135175000D02*
X86995000Y-130175000D01*
D34*
X97400000Y-116270000D02*
X106225000Y-125095000D01*
X97400000Y-115570000D02*
X97400000Y-116270000D01*
X112115000Y-125095000D02*
X115415000Y-128395000D01*
X106225000Y-125095000D02*
X112115000Y-125095000D01*
D33*
X88646000Y-95250000D02*
X94615000Y-95250000D01*
X109855000Y-72050000D02*
X109855000Y-69850000D01*
X80645000Y-95990000D02*
X85725000Y-90910000D01*
X85725000Y-77470000D02*
X88900000Y-74295000D01*
X80645000Y-97790000D02*
X80645000Y-95990000D01*
X88900000Y-74295000D02*
X107610000Y-74295000D01*
X85725000Y-90910000D02*
X85725000Y-77470000D01*
X107610000Y-74295000D02*
X109855000Y-72050000D01*
X82845000Y-97790000D02*
X83820000Y-98765000D01*
X80645000Y-97790000D02*
X82845000Y-97790000D01*
X83820000Y-98765000D02*
X83820000Y-117475000D01*
X81120000Y-120175000D02*
X74930000Y-120175000D01*
X83820000Y-117475000D02*
X81120000Y-120175000D01*
X144145000Y-105885000D02*
X144145000Y-100885000D01*
X102235000Y-115570000D02*
X99450000Y-115570000D01*
D35*
X102235000Y-102870000D02*
X106045000Y-102870000D01*
X106045000Y-102870000D02*
X106045000Y-102870000D01*
X106045000Y-102870000D02*
X106045000Y-102870000D01*
X116840000Y-74930000D02*
X116205000Y-75565000D01*
X116840000Y-72780000D02*
X116840000Y-74930000D01*
X121675000Y-70730000D02*
X121920000Y-70485000D01*
X116840000Y-70730000D02*
X121675000Y-70730000D01*
D34*
X108585000Y-107950000D02*
X113665000Y-107950000D01*
X108585000Y-105410000D02*
X113665000Y-105410000D01*
D33*
X133350000Y-70485000D02*
X135890000Y-67945000D01*
X129540000Y-70485000D02*
X133350000Y-70485000D01*
D34*
X102235000Y-113030000D02*
X108585000Y-113030000D01*
D33*
X94615000Y-85090000D02*
X97155000Y-85090000D01*
X99695000Y-82550000D02*
X99695000Y-77470000D01*
X97155000Y-85090000D02*
X99695000Y-82550000D01*
D34*
X102235000Y-110490000D02*
X108585000Y-110490000D01*
X94615000Y-79470000D02*
X94615000Y-77470000D01*
X94075000Y-80010000D02*
X94615000Y-79470000D01*
X94615000Y-87630000D02*
X93345000Y-87630000D01*
X93345000Y-87630000D02*
X92075000Y-86360000D01*
X92075000Y-81280000D02*
X93345000Y-80010000D01*
X92075000Y-86360000D02*
X92075000Y-81280000D01*
X93345000Y-80010000D02*
X94075000Y-80010000D01*
D33*
X94615000Y-82550000D02*
X97155000Y-80010000D01*
X97155000Y-80010000D02*
X97155000Y-77470000D01*
D34*
X90475000Y-77470000D02*
X92075000Y-77470000D01*
X89535000Y-78410000D02*
X90475000Y-77470000D01*
X89535000Y-88900000D02*
X89535000Y-78410000D01*
X90805000Y-90170000D02*
X89535000Y-88900000D01*
X94615000Y-90170000D02*
X90805000Y-90170000D01*
D33*
X102235000Y-82550000D02*
X102235000Y-77470000D01*
D35*
X86565000Y-100330000D02*
X85725000Y-99490000D01*
X88265000Y-100330000D02*
X86565000Y-100330000D01*
X85725000Y-99490000D02*
X85725000Y-95250000D01*
X88265000Y-92710000D02*
X94615000Y-92710000D01*
X85725000Y-95250000D02*
X88265000Y-92710000D01*
D33*
X102235000Y-85090000D02*
X103505000Y-85090000D01*
X104775000Y-83820000D02*
X104775000Y-77470000D01*
X103505000Y-85090000D02*
X104775000Y-83820000D01*
D34*
X98425000Y-96180000D02*
X98765000Y-96180000D01*
X99695000Y-95250000D02*
X102235000Y-95250000D01*
X98765000Y-96180000D02*
X99695000Y-95250000D01*
D33*
X88265000Y-102870000D02*
X94615000Y-102870000D01*
D34*
X99355000Y-92710000D02*
X98425000Y-91780000D01*
X102235000Y-92710000D02*
X99355000Y-92710000D01*
D33*
X88265000Y-105410000D02*
X94615000Y-105410000D01*
X102235000Y-87630000D02*
X104775000Y-87630000D01*
X107315000Y-85090000D02*
X107315000Y-77470000D01*
X104775000Y-87630000D02*
X107315000Y-85090000D01*
X88265000Y-107950000D02*
X94615000Y-107950000D01*
X88265000Y-110490000D02*
X94615000Y-110490000D01*
D35*
X88265000Y-115570000D02*
X86995000Y-116840000D01*
X86995000Y-116840000D02*
X86995000Y-118745000D01*
X86995000Y-118745000D02*
X86995000Y-118745000D01*
X102235000Y-107950000D02*
X99695000Y-107950000D01*
X89965000Y-113030000D02*
X90805000Y-113870000D01*
X88265000Y-113030000D02*
X89965000Y-113030000D01*
X90805000Y-113870000D02*
X90805000Y-118110000D01*
X90805000Y-118110000D02*
X90170000Y-118745000D01*
X90170000Y-118745000D02*
X90170000Y-118745000D01*
X102235000Y-105410000D02*
X99695000Y-105410000D01*
D34*
X113665000Y-112090000D02*
X114605000Y-113030000D01*
X113665000Y-110490000D02*
X113665000Y-112090000D01*
X114605000Y-113030000D02*
X126365000Y-113030000D01*
X126365000Y-113030000D02*
X127635000Y-111760000D01*
X129645000Y-105410000D02*
X131445000Y-105410000D01*
X127635000Y-107420000D02*
X129645000Y-105410000D01*
X127635000Y-111760000D02*
X127635000Y-107420000D01*
D35*
X133985000Y-103910000D02*
X133985000Y-121920000D01*
X131445000Y-102870000D02*
X132945000Y-102870000D01*
X132945000Y-102870000D02*
X133985000Y-103910000D01*
X119495000Y-123710000D02*
X120650000Y-122555000D01*
X119495000Y-128395000D02*
X119495000Y-123710000D01*
X133350000Y-122555000D02*
X133985000Y-121920000D01*
X120650000Y-122555000D02*
X133350000Y-122555000D01*
X132945000Y-100330000D02*
X131445000Y-100330000D01*
X135255000Y-102640000D02*
X132945000Y-100330000D01*
X122284999Y-127645001D02*
X122284999Y-124730001D01*
X121535000Y-128395000D02*
X122284999Y-127645001D01*
X122284999Y-124730001D02*
X123190000Y-123825000D01*
X135255000Y-102640000D02*
X135255000Y-123317000D01*
X134747000Y-123825000D02*
X123190000Y-123825000D01*
X135255000Y-123317000D02*
X134747000Y-123825000D01*
X140450000Y-128395000D02*
X142490000Y-128395000D01*
X136525000Y-122430000D02*
X142490000Y-128395000D01*
X136525000Y-101370000D02*
X136525000Y-122430000D01*
X131445000Y-97790000D02*
X132945000Y-97790000D01*
X132945000Y-97790000D02*
X136525000Y-101370000D01*
X125730000Y-105410000D02*
X121285000Y-105410000D01*
X140855000Y-61710000D02*
X138430000Y-64135000D01*
X138430000Y-64135000D02*
X138430000Y-72390000D01*
X140855000Y-58930000D02*
X140855000Y-61710000D01*
X138430000Y-72390000D02*
X127635000Y-83185000D01*
X127635000Y-83185000D02*
X127635000Y-103505000D01*
X127635000Y-103505000D02*
X125730000Y-105410000D01*
X125095000Y-107950000D02*
X128905000Y-104140000D01*
X142895000Y-61575000D02*
X142895000Y-58930000D01*
X121285000Y-107950000D02*
X125095000Y-107950000D01*
X128905000Y-104140000D02*
X128905000Y-83820000D01*
X128905000Y-83820000D02*
X139700000Y-73025000D01*
X139700000Y-64770000D02*
X142895000Y-61575000D01*
X139700000Y-73025000D02*
X139700000Y-64770000D01*
X98290000Y-128395000D02*
X98290000Y-125865000D01*
X92710000Y-113030000D02*
X94615000Y-113030000D01*
X91940000Y-113800000D02*
X92710000Y-113030000D01*
X91940000Y-119245000D02*
X91940000Y-113800000D01*
X98290000Y-128395000D02*
X98290000Y-125595000D01*
X98290000Y-125595000D02*
X91940000Y-119245000D01*
X100330000Y-125730000D02*
X100330000Y-128395000D01*
X94615000Y-115570000D02*
X94615000Y-120015000D01*
X94615000Y-120015000D02*
X100330000Y-125730000D01*
D34*
X108585000Y-100330000D02*
X113665000Y-100330000D01*
X108585000Y-102870000D02*
X113665000Y-102870000D01*
D35*
G36*
X72547235Y-116578555D02*
G01*
X72594208Y-116635792D01*
X72822613Y-116823238D01*
X73083198Y-116962524D01*
X73280177Y-117022277D01*
X73365948Y-117048295D01*
X73659999Y-117077257D01*
X73733679Y-117070000D01*
X78841321Y-117070000D01*
X79100570Y-117282760D01*
X79456703Y-117473117D01*
X79843130Y-117590338D01*
X80144291Y-117620000D01*
X81145709Y-117620000D01*
X81206072Y-117614055D01*
X80395127Y-118425000D01*
X77903339Y-118425000D01*
X77798160Y-118296840D01*
X77607823Y-118140634D01*
X77390669Y-118024563D01*
X77155043Y-117953087D01*
X76910000Y-117928952D01*
X72950000Y-117928952D01*
X72704957Y-117953087D01*
X72469331Y-118024563D01*
X72252177Y-118140634D01*
X72061840Y-118296840D01*
X71905634Y-118487177D01*
X71789563Y-118704331D01*
X71718087Y-118939957D01*
X71693952Y-119185000D01*
X71693952Y-121165000D01*
X71718087Y-121410043D01*
X71789563Y-121645669D01*
X71905634Y-121862823D01*
X72061840Y-122053160D01*
X72252177Y-122209366D01*
X72469331Y-122325437D01*
X72704957Y-122396913D01*
X72950000Y-122421048D01*
X76910000Y-122421048D01*
X77155043Y-122396913D01*
X77390669Y-122325437D01*
X77607823Y-122209366D01*
X77798160Y-122053160D01*
X77903339Y-121925000D01*
X81034035Y-121925000D01*
X81120000Y-121933467D01*
X81205965Y-121925000D01*
X81205968Y-121925000D01*
X81463060Y-121899679D01*
X81792936Y-121799612D01*
X82096952Y-121637112D01*
X82363424Y-121418424D01*
X82418229Y-121351645D01*
X84996650Y-118773224D01*
X85063424Y-118718424D01*
X85236326Y-118507743D01*
X85282112Y-118451952D01*
X85444612Y-118147937D01*
X85482037Y-118024563D01*
X85495001Y-117981827D01*
X85495001Y-118054661D01*
X85408408Y-118263713D01*
X85345000Y-118582489D01*
X85345000Y-118907511D01*
X85408408Y-119226287D01*
X85532789Y-119526568D01*
X85713361Y-119796814D01*
X85943186Y-120026639D01*
X86213432Y-120207211D01*
X86513713Y-120331592D01*
X86832489Y-120395000D01*
X87157511Y-120395000D01*
X87476287Y-120331592D01*
X87776568Y-120207211D01*
X88046814Y-120026639D01*
X88276639Y-119796814D01*
X88457211Y-119526568D01*
X88581592Y-119226287D01*
X88582500Y-119221722D01*
X88583408Y-119226287D01*
X88707789Y-119526568D01*
X88888361Y-119796814D01*
X89118186Y-120026639D01*
X89388432Y-120207211D01*
X89688713Y-120331592D01*
X90007489Y-120395000D01*
X90332511Y-120395000D01*
X90651287Y-120331592D01*
X90830394Y-120257403D01*
X90874208Y-120310792D01*
X90931450Y-120357769D01*
X92113681Y-121540000D01*
X87845828Y-121540000D01*
X87534625Y-121411095D01*
X87177209Y-121340000D01*
X86812791Y-121340000D01*
X86455375Y-121411095D01*
X86118697Y-121550552D01*
X85815694Y-121753011D01*
X85558011Y-122010694D01*
X85355552Y-122313697D01*
X85216095Y-122650375D01*
X85145000Y-123007791D01*
X85145000Y-123372209D01*
X85216095Y-123729625D01*
X85245001Y-123799410D01*
X85245000Y-129450126D01*
X81270127Y-133425000D01*
X77318551Y-133425000D01*
X77170499Y-133303497D01*
X76781358Y-133095497D01*
X76359117Y-132967411D01*
X76030041Y-132935000D01*
X73829959Y-132935000D01*
X73500883Y-132967411D01*
X73078642Y-133095497D01*
X72689501Y-133303497D01*
X72348417Y-133583417D01*
X72068497Y-133924501D01*
X71860497Y-134313642D01*
X71732411Y-134735883D01*
X71689162Y-135175000D01*
X71732411Y-135614117D01*
X71860497Y-136036358D01*
X72068497Y-136425499D01*
X72348417Y-136766583D01*
X72689501Y-137046503D01*
X73078642Y-137254503D01*
X73500883Y-137382589D01*
X73829959Y-137415000D01*
X76030041Y-137415000D01*
X76359117Y-137382589D01*
X76781358Y-137254503D01*
X77170499Y-137046503D01*
X77318551Y-136925000D01*
X81909035Y-136925000D01*
X81995000Y-136933467D01*
X82080965Y-136925000D01*
X82080968Y-136925000D01*
X82338060Y-136899679D01*
X82667936Y-136799612D01*
X82971952Y-136637112D01*
X83238424Y-136418424D01*
X83293229Y-136351644D01*
X88171651Y-131473223D01*
X88238424Y-131418424D01*
X88331610Y-131304877D01*
X88438373Y-131174787D01*
X88594225Y-131278924D01*
X88874822Y-131395151D01*
X88675485Y-131876393D01*
X88565000Y-132431837D01*
X88565000Y-132998163D01*
X88675485Y-133553607D01*
X88892208Y-134076823D01*
X89206842Y-134547706D01*
X89607294Y-134948158D01*
X90078177Y-135262792D01*
X90601393Y-135479515D01*
X91156837Y-135590000D01*
X91723163Y-135590000D01*
X92278607Y-135479515D01*
X92801823Y-135262792D01*
X93272706Y-134948158D01*
X93673158Y-134547706D01*
X93987792Y-134076823D01*
X94204515Y-133553607D01*
X94315000Y-132998163D01*
X94315000Y-132431837D01*
X94204515Y-131876393D01*
X93987792Y-131353177D01*
X93673158Y-130882294D01*
X93272706Y-130481842D01*
X92801823Y-130167208D01*
X92278607Y-129950485D01*
X91839097Y-129863061D01*
X91910000Y-129506606D01*
X91910000Y-129063394D01*
X91823534Y-128628699D01*
X91703747Y-128339507D01*
X92695719Y-128339507D01*
X92713989Y-128635995D01*
X92789750Y-128923222D01*
X92920091Y-129190149D01*
X92981751Y-129282430D01*
X93269696Y-129329647D01*
X94204343Y-128395000D01*
X93269696Y-127460353D01*
X92981751Y-127507570D01*
X92832222Y-127764241D01*
X92735641Y-128045152D01*
X92695719Y-128339507D01*
X91703747Y-128339507D01*
X91653924Y-128219225D01*
X91407689Y-127850708D01*
X91094292Y-127537311D01*
X90725775Y-127291076D01*
X90316301Y-127121466D01*
X89881606Y-127035000D01*
X89438394Y-127035000D01*
X89003699Y-127121466D01*
X88745000Y-127228623D01*
X88745000Y-124840000D01*
X92661549Y-124840000D01*
X94600001Y-126778453D01*
X94600001Y-126934446D01*
X94559848Y-126920641D01*
X94265493Y-126880719D01*
X93969005Y-126898989D01*
X93681778Y-126974750D01*
X93414851Y-127105091D01*
X93322570Y-127166751D01*
X93275353Y-127454696D01*
X94210000Y-128389343D01*
X94224142Y-128375201D01*
X94229799Y-128380858D01*
X94215657Y-128395000D01*
X94229799Y-128409142D01*
X94224142Y-128414799D01*
X94210000Y-128400657D01*
X93275353Y-129335304D01*
X93322570Y-129623249D01*
X93579241Y-129772778D01*
X93754569Y-129833058D01*
X93715719Y-130119507D01*
X93733989Y-130415995D01*
X93809750Y-130703222D01*
X93940091Y-130970149D01*
X94001751Y-131062430D01*
X94289696Y-131109647D01*
X95181658Y-130217685D01*
X95184208Y-130220792D01*
X95187315Y-130223342D01*
X94295353Y-131115304D01*
X94342570Y-131403249D01*
X94599241Y-131552778D01*
X94880152Y-131649359D01*
X95174507Y-131689281D01*
X95470995Y-131671011D01*
X95662495Y-131620500D01*
X95738223Y-131870143D01*
X95759000Y-131909013D01*
X95759000Y-132379958D01*
X95751018Y-132461000D01*
X95759000Y-132542042D01*
X95759000Y-132542052D01*
X95782875Y-132784456D01*
X95877223Y-133095483D01*
X96030439Y-133382126D01*
X96236630Y-133633371D01*
X96299589Y-133685040D01*
X99613960Y-136999412D01*
X99665629Y-137062371D01*
X99916874Y-137268562D01*
X100203517Y-137421777D01*
X100514544Y-137516125D01*
X100756948Y-137540000D01*
X100756957Y-137540000D01*
X100837999Y-137547982D01*
X100919041Y-137540000D01*
X107734172Y-137540000D01*
X108045375Y-137668905D01*
X108402791Y-137740000D01*
X108767209Y-137740000D01*
X109124625Y-137668905D01*
X109435828Y-137540000D01*
X114091958Y-137540000D01*
X114173000Y-137547982D01*
X114254042Y-137540000D01*
X114254052Y-137540000D01*
X114496456Y-137516125D01*
X114807483Y-137421777D01*
X115094126Y-137268562D01*
X115345371Y-137062371D01*
X115397044Y-136999407D01*
X117544413Y-134852039D01*
X117607371Y-134800371D01*
X117813562Y-134549126D01*
X117966777Y-134262483D01*
X118061125Y-133951456D01*
X118085000Y-133709052D01*
X118085000Y-133709043D01*
X118092982Y-133628001D01*
X118085000Y-133546959D01*
X118085000Y-131635554D01*
X118125152Y-131649359D01*
X118419507Y-131689281D01*
X118715995Y-131671011D01*
X119003222Y-131595250D01*
X119072832Y-131561259D01*
X119240074Y-131728501D01*
X119567645Y-131947377D01*
X119931622Y-132098141D01*
X120318017Y-132175000D01*
X120711983Y-132175000D01*
X121098378Y-132098141D01*
X121239070Y-132039864D01*
X121324331Y-132085437D01*
X121559957Y-132156913D01*
X121805000Y-132181048D01*
X122519885Y-132181048D01*
X122470000Y-132431837D01*
X122470000Y-132998163D01*
X122580485Y-133553607D01*
X122797208Y-134076823D01*
X123111842Y-134547706D01*
X123512294Y-134948158D01*
X123983177Y-135262792D01*
X124506393Y-135479515D01*
X125061837Y-135590000D01*
X125628163Y-135590000D01*
X126183607Y-135479515D01*
X126706823Y-135262792D01*
X127177706Y-134948158D01*
X127578158Y-134547706D01*
X127892792Y-134076823D01*
X128109515Y-133553607D01*
X128220000Y-132998163D01*
X128220000Y-132431837D01*
X128109515Y-131876393D01*
X127910178Y-131395151D01*
X128190775Y-131278924D01*
X128559292Y-131032689D01*
X128872689Y-130719292D01*
X129118924Y-130350775D01*
X129288534Y-129941301D01*
X129375000Y-129506606D01*
X129375000Y-129063394D01*
X129288534Y-128628699D01*
X129118924Y-128219225D01*
X128872689Y-127850708D01*
X128559292Y-127537311D01*
X128190775Y-127291076D01*
X127781301Y-127121466D01*
X127346606Y-127035000D01*
X126903394Y-127035000D01*
X126468699Y-127121466D01*
X126059225Y-127291076D01*
X125690708Y-127537311D01*
X125377311Y-127850708D01*
X125131076Y-128219225D01*
X124961466Y-128628699D01*
X124875000Y-129063394D01*
X124875000Y-129506606D01*
X124945903Y-129863061D01*
X124561048Y-129939613D01*
X124561048Y-129425000D01*
X124536913Y-129179957D01*
X124465437Y-128944331D01*
X124349366Y-128727177D01*
X124193160Y-128536840D01*
X124002823Y-128380634D01*
X123785669Y-128264563D01*
X123672945Y-128230369D01*
X123677523Y-128221803D01*
X123763294Y-127939052D01*
X123784999Y-127718681D01*
X123784999Y-127718680D01*
X123792256Y-127645001D01*
X123784999Y-127571321D01*
X123784999Y-125351320D01*
X123811320Y-125325000D01*
X134673320Y-125325000D01*
X134747000Y-125332257D01*
X134820680Y-125325000D01*
X135041051Y-125303295D01*
X135323802Y-125217524D01*
X135584387Y-125078238D01*
X135812792Y-124890792D01*
X135859769Y-124833550D01*
X136263550Y-124429769D01*
X136320792Y-124382792D01*
X136336875Y-124363194D01*
X138964780Y-126991099D01*
X138759848Y-126920641D01*
X138465493Y-126880719D01*
X138169005Y-126898989D01*
X137881778Y-126974750D01*
X137812168Y-127008741D01*
X137644926Y-126841499D01*
X137317355Y-126622623D01*
X136953378Y-126471859D01*
X136566983Y-126395000D01*
X136173017Y-126395000D01*
X135786622Y-126471859D01*
X135422645Y-126622623D01*
X135095074Y-126841499D01*
X134816499Y-127120074D01*
X134597623Y-127447645D01*
X134446859Y-127811622D01*
X134370000Y-128198017D01*
X134370000Y-128591983D01*
X134446859Y-128978378D01*
X134597623Y-129342355D01*
X134816499Y-129669926D01*
X135091272Y-129944699D01*
X135116762Y-129992387D01*
X135304208Y-130220792D01*
X135361448Y-130267767D01*
X135390000Y-130296319D01*
X135390000Y-130371983D01*
X135408656Y-130465772D01*
X134961823Y-130167208D01*
X134438607Y-129950485D01*
X133999097Y-129863061D01*
X134070000Y-129506606D01*
X134070000Y-129063394D01*
X133983534Y-128628699D01*
X133813924Y-128219225D01*
X133567689Y-127850708D01*
X133254292Y-127537311D01*
X132885775Y-127291076D01*
X132476301Y-127121466D01*
X132041606Y-127035000D01*
X131598394Y-127035000D01*
X131163699Y-127121466D01*
X130754225Y-127291076D01*
X130385708Y-127537311D01*
X130072311Y-127850708D01*
X129826076Y-128219225D01*
X129656466Y-128628699D01*
X129570000Y-129063394D01*
X129570000Y-129506606D01*
X129656466Y-129941301D01*
X129826076Y-130350775D01*
X130072311Y-130719292D01*
X130385708Y-131032689D01*
X130754225Y-131278924D01*
X131034822Y-131395151D01*
X130835485Y-131876393D01*
X130725000Y-132431837D01*
X130725000Y-132998163D01*
X130835485Y-133553607D01*
X131052208Y-134076823D01*
X131161239Y-134240000D01*
X130390828Y-134240000D01*
X130079625Y-134111095D01*
X129722209Y-134040000D01*
X129357791Y-134040000D01*
X129000375Y-134111095D01*
X128663697Y-134250552D01*
X128360694Y-134453011D01*
X128103011Y-134710694D01*
X127900552Y-135013697D01*
X127761095Y-135350375D01*
X127690000Y-135707791D01*
X127690000Y-136072209D01*
X127761095Y-136429625D01*
X127900552Y-136766303D01*
X128103011Y-137069306D01*
X128360694Y-137326989D01*
X128663697Y-137529448D01*
X129000375Y-137668905D01*
X129357791Y-137740000D01*
X129722209Y-137740000D01*
X130079625Y-137668905D01*
X130390828Y-137540000D01*
X134538958Y-137540000D01*
X134620000Y-137547982D01*
X134701042Y-137540000D01*
X134701052Y-137540000D01*
X134943456Y-137516125D01*
X135254483Y-137421777D01*
X135541126Y-137268562D01*
X135792371Y-137062371D01*
X135844044Y-136999407D01*
X138269417Y-134574036D01*
X138332371Y-134522371D01*
X138389294Y-134453011D01*
X138538561Y-134271127D01*
X138538562Y-134271126D01*
X138691777Y-133984483D01*
X138786125Y-133673456D01*
X138810000Y-133431052D01*
X138810000Y-133431043D01*
X138817982Y-133350001D01*
X138810000Y-133268959D01*
X138810000Y-132079262D01*
X138921777Y-131870143D01*
X138997383Y-131620902D01*
X139080152Y-131649359D01*
X139374507Y-131689281D01*
X139670995Y-131671011D01*
X139958222Y-131595250D01*
X140027832Y-131561259D01*
X140195074Y-131728501D01*
X140522645Y-131947377D01*
X140886622Y-132098141D01*
X141273017Y-132175000D01*
X141666983Y-132175000D01*
X142053378Y-132098141D01*
X142194070Y-132039864D01*
X142279331Y-132085437D01*
X142514957Y-132156913D01*
X142760000Y-132181048D01*
X143474885Y-132181048D01*
X143425000Y-132431837D01*
X143425000Y-132998163D01*
X143535485Y-133553607D01*
X143752208Y-134076823D01*
X144066842Y-134547706D01*
X144467294Y-134948158D01*
X144938177Y-135262792D01*
X145461393Y-135479515D01*
X146016837Y-135590000D01*
X146583163Y-135590000D01*
X147138607Y-135479515D01*
X147661823Y-135262792D01*
X148132706Y-134948158D01*
X148533158Y-134547706D01*
X148847792Y-134076823D01*
X149064515Y-133553607D01*
X149175000Y-132998163D01*
X149175000Y-132431837D01*
X149064515Y-131876393D01*
X148865178Y-131395151D01*
X149145775Y-131278924D01*
X149514292Y-131032689D01*
X149827689Y-130719292D01*
X150073924Y-130350775D01*
X150243534Y-129941301D01*
X150330000Y-129506606D01*
X150330000Y-129063394D01*
X150243534Y-128628699D01*
X150073924Y-128219225D01*
X149827689Y-127850708D01*
X149514292Y-127537311D01*
X149145775Y-127291076D01*
X148736301Y-127121466D01*
X148301606Y-127035000D01*
X147858394Y-127035000D01*
X147423699Y-127121466D01*
X147014225Y-127291076D01*
X146645708Y-127537311D01*
X146332311Y-127850708D01*
X146086076Y-128219225D01*
X145916466Y-128628699D01*
X145830000Y-129063394D01*
X145830000Y-129506606D01*
X145900903Y-129863061D01*
X145516048Y-129939613D01*
X145516048Y-129425000D01*
X145491913Y-129179957D01*
X145420437Y-128944331D01*
X145304366Y-128727177D01*
X145148160Y-128536840D01*
X144957823Y-128380634D01*
X144740669Y-128264563D01*
X144505043Y-128193087D01*
X144488699Y-128191477D01*
X144413141Y-127811622D01*
X144262377Y-127447645D01*
X144043501Y-127120074D01*
X143764926Y-126841499D01*
X143437355Y-126622623D01*
X143073378Y-126471859D01*
X142686983Y-126395000D01*
X142611320Y-126395000D01*
X138025000Y-121808681D01*
X138025000Y-119240593D01*
X138212095Y-119248762D01*
X138223000Y-119249000D01*
X150792179Y-119249000D01*
X151213264Y-119267458D01*
X151625684Y-119321973D01*
X152031754Y-119412366D01*
X152428373Y-119537950D01*
X152812451Y-119697743D01*
X153181104Y-119890548D01*
X153531447Y-120114854D01*
X153860834Y-120368968D01*
X154166720Y-120650926D01*
X154446758Y-120958565D01*
X154698801Y-121289525D01*
X154855978Y-121538432D01*
X154835905Y-129136152D01*
X154672068Y-129068288D01*
X154092474Y-128953000D01*
X153501526Y-128953000D01*
X152921932Y-129068288D01*
X152375967Y-129294434D01*
X151884611Y-129622748D01*
X151466748Y-130040611D01*
X151138434Y-130531967D01*
X150912288Y-131077932D01*
X150797000Y-131657526D01*
X150797000Y-132248474D01*
X150912288Y-132828068D01*
X151138434Y-133374033D01*
X151466748Y-133865389D01*
X151884611Y-134283252D01*
X152375967Y-134611566D01*
X152921932Y-134837712D01*
X153501526Y-134953000D01*
X154092474Y-134953000D01*
X154672068Y-134837712D01*
X154821005Y-134776020D01*
X154815819Y-136738835D01*
X154761314Y-136835724D01*
X154512977Y-137195267D01*
X154232639Y-137530476D01*
X153922695Y-137838489D01*
X153585748Y-138116720D01*
X153224648Y-138362813D01*
X153127246Y-138416808D01*
X66769350Y-138177590D01*
X66476481Y-137952088D01*
X66170740Y-137670863D01*
X65890739Y-137363998D01*
X65664000Y-137067074D01*
X65664000Y-130452397D01*
X72214151Y-130452397D01*
X72224808Y-130512095D01*
X72323529Y-130840235D01*
X72484370Y-131142811D01*
X72701150Y-131408194D01*
X72965538Y-131626186D01*
X73267374Y-131788410D01*
X73595059Y-131888632D01*
X73936000Y-131923000D01*
X74926000Y-131923000D01*
X74926000Y-130179000D01*
X74934000Y-130179000D01*
X74934000Y-131923000D01*
X75924000Y-131923000D01*
X76264941Y-131888632D01*
X76592626Y-131788410D01*
X76894462Y-131626186D01*
X77158850Y-131408194D01*
X77375630Y-131142811D01*
X77536471Y-130840235D01*
X77635192Y-130512095D01*
X77645849Y-130452397D01*
X77478495Y-130179000D01*
X74934000Y-130179000D01*
X74926000Y-130179000D01*
X72381505Y-130179000D01*
X72214151Y-130452397D01*
X65664000Y-130452397D01*
X65664000Y-129897603D01*
X72214151Y-129897603D01*
X72381505Y-130171000D01*
X74926000Y-130171000D01*
X74926000Y-128427000D01*
X74934000Y-128427000D01*
X74934000Y-130171000D01*
X77478495Y-130171000D01*
X77645849Y-129897603D01*
X77635192Y-129837905D01*
X77536471Y-129509765D01*
X77375630Y-129207189D01*
X77158850Y-128941806D01*
X76894462Y-128723814D01*
X76592626Y-128561590D01*
X76264941Y-128461368D01*
X75924000Y-128427000D01*
X74934000Y-128427000D01*
X74926000Y-128427000D01*
X73936000Y-128427000D01*
X73595059Y-128461368D01*
X73267374Y-128561590D01*
X72965538Y-128723814D01*
X72701150Y-128941806D01*
X72484370Y-129207189D01*
X72323529Y-129509765D01*
X72224808Y-129837905D01*
X72214151Y-129897603D01*
X65664000Y-129897603D01*
X65664000Y-125452397D01*
X72214151Y-125452397D01*
X72224808Y-125512095D01*
X72323529Y-125840235D01*
X72484370Y-126142811D01*
X72701150Y-126408194D01*
X72965538Y-126626186D01*
X73267374Y-126788410D01*
X73595059Y-126888632D01*
X73936000Y-126923000D01*
X74926000Y-126923000D01*
X74926000Y-125179000D01*
X74934000Y-125179000D01*
X74934000Y-126923000D01*
X75924000Y-126923000D01*
X76264941Y-126888632D01*
X76592626Y-126788410D01*
X76894462Y-126626186D01*
X77158850Y-126408194D01*
X77375630Y-126142811D01*
X77536471Y-125840235D01*
X77635192Y-125512095D01*
X77645849Y-125452397D01*
X77478495Y-125179000D01*
X74934000Y-125179000D01*
X74926000Y-125179000D01*
X72381505Y-125179000D01*
X72214151Y-125452397D01*
X65664000Y-125452397D01*
X65664000Y-124897603D01*
X72214151Y-124897603D01*
X72381505Y-125171000D01*
X74926000Y-125171000D01*
X74926000Y-123427000D01*
X74934000Y-123427000D01*
X74934000Y-125171000D01*
X77478495Y-125171000D01*
X77645849Y-124897603D01*
X77635192Y-124837905D01*
X77536471Y-124509765D01*
X77375630Y-124207189D01*
X77158850Y-123941806D01*
X76894462Y-123723814D01*
X76592626Y-123561590D01*
X76264941Y-123461368D01*
X75924000Y-123427000D01*
X74934000Y-123427000D01*
X74926000Y-123427000D01*
X73936000Y-123427000D01*
X73595059Y-123461368D01*
X73267374Y-123561590D01*
X72965538Y-123723814D01*
X72701150Y-123941806D01*
X72484370Y-124207189D01*
X72323529Y-124509765D01*
X72224808Y-124837905D01*
X72214151Y-124897603D01*
X65664000Y-124897603D01*
X65664000Y-116388641D01*
X65778611Y-116503252D01*
X66269967Y-116831566D01*
X66815932Y-117057712D01*
X67395526Y-117173000D01*
X67986474Y-117173000D01*
X68566068Y-117057712D01*
X69112033Y-116831566D01*
X69603389Y-116503252D01*
X70021252Y-116085389D01*
X70349566Y-115594033D01*
X70575712Y-115048068D01*
X70648884Y-114680204D01*
X72547235Y-116578555D01*
G37*
X72547235Y-116578555D02*
X72594208Y-116635792D01*
X72822613Y-116823238D01*
X73083198Y-116962524D01*
X73280177Y-117022277D01*
X73365948Y-117048295D01*
X73659999Y-117077257D01*
X73733679Y-117070000D01*
X78841321Y-117070000D01*
X79100570Y-117282760D01*
X79456703Y-117473117D01*
X79843130Y-117590338D01*
X80144291Y-117620000D01*
X81145709Y-117620000D01*
X81206072Y-117614055D01*
X80395127Y-118425000D01*
X77903339Y-118425000D01*
X77798160Y-118296840D01*
X77607823Y-118140634D01*
X77390669Y-118024563D01*
X77155043Y-117953087D01*
X76910000Y-117928952D01*
X72950000Y-117928952D01*
X72704957Y-117953087D01*
X72469331Y-118024563D01*
X72252177Y-118140634D01*
X72061840Y-118296840D01*
X71905634Y-118487177D01*
X71789563Y-118704331D01*
X71718087Y-118939957D01*
X71693952Y-119185000D01*
X71693952Y-121165000D01*
X71718087Y-121410043D01*
X71789563Y-121645669D01*
X71905634Y-121862823D01*
X72061840Y-122053160D01*
X72252177Y-122209366D01*
X72469331Y-122325437D01*
X72704957Y-122396913D01*
X72950000Y-122421048D01*
X76910000Y-122421048D01*
X77155043Y-122396913D01*
X77390669Y-122325437D01*
X77607823Y-122209366D01*
X77798160Y-122053160D01*
X77903339Y-121925000D01*
X81034035Y-121925000D01*
X81120000Y-121933467D01*
X81205965Y-121925000D01*
X81205968Y-121925000D01*
X81463060Y-121899679D01*
X81792936Y-121799612D01*
X82096952Y-121637112D01*
X82363424Y-121418424D01*
X82418229Y-121351645D01*
X84996650Y-118773224D01*
X85063424Y-118718424D01*
X85236326Y-118507743D01*
X85282112Y-118451952D01*
X85444612Y-118147937D01*
X85482037Y-118024563D01*
X85495001Y-117981827D01*
X85495001Y-118054661D01*
X85408408Y-118263713D01*
X85345000Y-118582489D01*
X85345000Y-118907511D01*
X85408408Y-119226287D01*
X85532789Y-119526568D01*
X85713361Y-119796814D01*
X85943186Y-120026639D01*
X86213432Y-120207211D01*
X86513713Y-120331592D01*
X86832489Y-120395000D01*
X87157511Y-120395000D01*
X87476287Y-120331592D01*
X87776568Y-120207211D01*
X88046814Y-120026639D01*
X88276639Y-119796814D01*
X88457211Y-119526568D01*
X88581592Y-119226287D01*
X88582500Y-119221722D01*
X88583408Y-119226287D01*
X88707789Y-119526568D01*
X88888361Y-119796814D01*
X89118186Y-120026639D01*
X89388432Y-120207211D01*
X89688713Y-120331592D01*
X90007489Y-120395000D01*
X90332511Y-120395000D01*
X90651287Y-120331592D01*
X90830394Y-120257403D01*
X90874208Y-120310792D01*
X90931450Y-120357769D01*
X92113681Y-121540000D01*
X87845828Y-121540000D01*
X87534625Y-121411095D01*
X87177209Y-121340000D01*
X86812791Y-121340000D01*
X86455375Y-121411095D01*
X86118697Y-121550552D01*
X85815694Y-121753011D01*
X85558011Y-122010694D01*
X85355552Y-122313697D01*
X85216095Y-122650375D01*
X85145000Y-123007791D01*
X85145000Y-123372209D01*
X85216095Y-123729625D01*
X85245001Y-123799410D01*
X85245000Y-129450126D01*
X81270127Y-133425000D01*
X77318551Y-133425000D01*
X77170499Y-133303497D01*
X76781358Y-133095497D01*
X76359117Y-132967411D01*
X76030041Y-132935000D01*
X73829959Y-132935000D01*
X73500883Y-132967411D01*
X73078642Y-133095497D01*
X72689501Y-133303497D01*
X72348417Y-133583417D01*
X72068497Y-133924501D01*
X71860497Y-134313642D01*
X71732411Y-134735883D01*
X71689162Y-135175000D01*
X71732411Y-135614117D01*
X71860497Y-136036358D01*
X72068497Y-136425499D01*
X72348417Y-136766583D01*
X72689501Y-137046503D01*
X73078642Y-137254503D01*
X73500883Y-137382589D01*
X73829959Y-137415000D01*
X76030041Y-137415000D01*
X76359117Y-137382589D01*
X76781358Y-137254503D01*
X77170499Y-137046503D01*
X77318551Y-136925000D01*
X81909035Y-136925000D01*
X81995000Y-136933467D01*
X82080965Y-136925000D01*
X82080968Y-136925000D01*
X82338060Y-136899679D01*
X82667936Y-136799612D01*
X82971952Y-136637112D01*
X83238424Y-136418424D01*
X83293229Y-136351644D01*
X88171651Y-131473223D01*
X88238424Y-131418424D01*
X88331610Y-131304877D01*
X88438373Y-131174787D01*
X88594225Y-131278924D01*
X88874822Y-131395151D01*
X88675485Y-131876393D01*
X88565000Y-132431837D01*
X88565000Y-132998163D01*
X88675485Y-133553607D01*
X88892208Y-134076823D01*
X89206842Y-134547706D01*
X89607294Y-134948158D01*
X90078177Y-135262792D01*
X90601393Y-135479515D01*
X91156837Y-135590000D01*
X91723163Y-135590000D01*
X92278607Y-135479515D01*
X92801823Y-135262792D01*
X93272706Y-134948158D01*
X93673158Y-134547706D01*
X93987792Y-134076823D01*
X94204515Y-133553607D01*
X94315000Y-132998163D01*
X94315000Y-132431837D01*
X94204515Y-131876393D01*
X93987792Y-131353177D01*
X93673158Y-130882294D01*
X93272706Y-130481842D01*
X92801823Y-130167208D01*
X92278607Y-129950485D01*
X91839097Y-129863061D01*
X91910000Y-129506606D01*
X91910000Y-129063394D01*
X91823534Y-128628699D01*
X91703747Y-128339507D01*
X92695719Y-128339507D01*
X92713989Y-128635995D01*
X92789750Y-128923222D01*
X92920091Y-129190149D01*
X92981751Y-129282430D01*
X93269696Y-129329647D01*
X94204343Y-128395000D01*
X93269696Y-127460353D01*
X92981751Y-127507570D01*
X92832222Y-127764241D01*
X92735641Y-128045152D01*
X92695719Y-128339507D01*
X91703747Y-128339507D01*
X91653924Y-128219225D01*
X91407689Y-127850708D01*
X91094292Y-127537311D01*
X90725775Y-127291076D01*
X90316301Y-127121466D01*
X89881606Y-127035000D01*
X89438394Y-127035000D01*
X89003699Y-127121466D01*
X88745000Y-127228623D01*
X88745000Y-124840000D01*
X92661549Y-124840000D01*
X94600001Y-126778453D01*
X94600001Y-126934446D01*
X94559848Y-126920641D01*
X94265493Y-126880719D01*
X93969005Y-126898989D01*
X93681778Y-126974750D01*
X93414851Y-127105091D01*
X93322570Y-127166751D01*
X93275353Y-127454696D01*
X94210000Y-128389343D01*
X94224142Y-128375201D01*
X94229799Y-128380858D01*
X94215657Y-128395000D01*
X94229799Y-128409142D01*
X94224142Y-128414799D01*
X94210000Y-128400657D01*
X93275353Y-129335304D01*
X93322570Y-129623249D01*
X93579241Y-129772778D01*
X93754569Y-129833058D01*
X93715719Y-130119507D01*
X93733989Y-130415995D01*
X93809750Y-130703222D01*
X93940091Y-130970149D01*
X94001751Y-131062430D01*
X94289696Y-131109647D01*
X95181658Y-130217685D01*
X95184208Y-130220792D01*
X95187315Y-130223342D01*
X94295353Y-131115304D01*
X94342570Y-131403249D01*
X94599241Y-131552778D01*
X94880152Y-131649359D01*
X95174507Y-131689281D01*
X95470995Y-131671011D01*
X95662495Y-131620500D01*
X95738223Y-131870143D01*
X95759000Y-131909013D01*
X95759000Y-132379958D01*
X95751018Y-132461000D01*
X95759000Y-132542042D01*
X95759000Y-132542052D01*
X95782875Y-132784456D01*
X95877223Y-133095483D01*
X96030439Y-133382126D01*
X96236630Y-133633371D01*
X96299589Y-133685040D01*
X99613960Y-136999412D01*
X99665629Y-137062371D01*
X99916874Y-137268562D01*
X100203517Y-137421777D01*
X100514544Y-137516125D01*
X100756948Y-137540000D01*
X100756957Y-137540000D01*
X100837999Y-137547982D01*
X100919041Y-137540000D01*
X107734172Y-137540000D01*
X108045375Y-137668905D01*
X108402791Y-137740000D01*
X108767209Y-137740000D01*
X109124625Y-137668905D01*
X109435828Y-137540000D01*
X114091958Y-137540000D01*
X114173000Y-137547982D01*
X114254042Y-137540000D01*
X114254052Y-137540000D01*
X114496456Y-137516125D01*
X114807483Y-137421777D01*
X115094126Y-137268562D01*
X115345371Y-137062371D01*
X115397044Y-136999407D01*
X117544413Y-134852039D01*
X117607371Y-134800371D01*
X117813562Y-134549126D01*
X117966777Y-134262483D01*
X118061125Y-133951456D01*
X118085000Y-133709052D01*
X118085000Y-133709043D01*
X118092982Y-133628001D01*
X118085000Y-133546959D01*
X118085000Y-131635554D01*
X118125152Y-131649359D01*
X118419507Y-131689281D01*
X118715995Y-131671011D01*
X119003222Y-131595250D01*
X119072832Y-131561259D01*
X119240074Y-131728501D01*
X119567645Y-131947377D01*
X119931622Y-132098141D01*
X120318017Y-132175000D01*
X120711983Y-132175000D01*
X121098378Y-132098141D01*
X121239070Y-132039864D01*
X121324331Y-132085437D01*
X121559957Y-132156913D01*
X121805000Y-132181048D01*
X122519885Y-132181048D01*
X122470000Y-132431837D01*
X122470000Y-132998163D01*
X122580485Y-133553607D01*
X122797208Y-134076823D01*
X123111842Y-134547706D01*
X123512294Y-134948158D01*
X123983177Y-135262792D01*
X124506393Y-135479515D01*
X125061837Y-135590000D01*
X125628163Y-135590000D01*
X126183607Y-135479515D01*
X126706823Y-135262792D01*
X127177706Y-134948158D01*
X127578158Y-134547706D01*
X127892792Y-134076823D01*
X128109515Y-133553607D01*
X128220000Y-132998163D01*
X128220000Y-132431837D01*
X128109515Y-131876393D01*
X127910178Y-131395151D01*
X128190775Y-131278924D01*
X128559292Y-131032689D01*
X128872689Y-130719292D01*
X129118924Y-130350775D01*
X129288534Y-129941301D01*
X129375000Y-129506606D01*
X129375000Y-129063394D01*
X129288534Y-128628699D01*
X129118924Y-128219225D01*
X128872689Y-127850708D01*
X128559292Y-127537311D01*
X128190775Y-127291076D01*
X127781301Y-127121466D01*
X127346606Y-127035000D01*
X126903394Y-127035000D01*
X126468699Y-127121466D01*
X126059225Y-127291076D01*
X125690708Y-127537311D01*
X125377311Y-127850708D01*
X125131076Y-128219225D01*
X124961466Y-128628699D01*
X124875000Y-129063394D01*
X124875000Y-129506606D01*
X124945903Y-129863061D01*
X124561048Y-129939613D01*
X124561048Y-129425000D01*
X124536913Y-129179957D01*
X124465437Y-128944331D01*
X124349366Y-128727177D01*
X124193160Y-128536840D01*
X124002823Y-128380634D01*
X123785669Y-128264563D01*
X123672945Y-128230369D01*
X123677523Y-128221803D01*
X123763294Y-127939052D01*
X123784999Y-127718681D01*
X123784999Y-127718680D01*
X123792256Y-127645001D01*
X123784999Y-127571321D01*
X123784999Y-125351320D01*
X123811320Y-125325000D01*
X134673320Y-125325000D01*
X134747000Y-125332257D01*
X134820680Y-125325000D01*
X135041051Y-125303295D01*
X135323802Y-125217524D01*
X135584387Y-125078238D01*
X135812792Y-124890792D01*
X135859769Y-124833550D01*
X136263550Y-124429769D01*
X136320792Y-124382792D01*
X136336875Y-124363194D01*
X138964780Y-126991099D01*
X138759848Y-126920641D01*
X138465493Y-126880719D01*
X138169005Y-126898989D01*
X137881778Y-126974750D01*
X137812168Y-127008741D01*
X137644926Y-126841499D01*
X137317355Y-126622623D01*
X136953378Y-126471859D01*
X136566983Y-126395000D01*
X136173017Y-126395000D01*
X135786622Y-126471859D01*
X135422645Y-126622623D01*
X135095074Y-126841499D01*
X134816499Y-127120074D01*
X134597623Y-127447645D01*
X134446859Y-127811622D01*
X134370000Y-128198017D01*
X134370000Y-128591983D01*
X134446859Y-128978378D01*
X134597623Y-129342355D01*
X134816499Y-129669926D01*
X135091272Y-129944699D01*
X135116762Y-129992387D01*
X135304208Y-130220792D01*
X135361448Y-130267767D01*
X135390000Y-130296319D01*
X135390000Y-130371983D01*
X135408656Y-130465772D01*
X134961823Y-130167208D01*
X134438607Y-129950485D01*
X133999097Y-129863061D01*
X134070000Y-129506606D01*
X134070000Y-129063394D01*
X133983534Y-128628699D01*
X133813924Y-128219225D01*
X133567689Y-127850708D01*
X133254292Y-127537311D01*
X132885775Y-127291076D01*
X132476301Y-127121466D01*
X132041606Y-127035000D01*
X131598394Y-127035000D01*
X131163699Y-127121466D01*
X130754225Y-127291076D01*
X130385708Y-127537311D01*
X130072311Y-127850708D01*
X129826076Y-128219225D01*
X129656466Y-128628699D01*
X129570000Y-129063394D01*
X129570000Y-129506606D01*
X129656466Y-129941301D01*
X129826076Y-130350775D01*
X130072311Y-130719292D01*
X130385708Y-131032689D01*
X130754225Y-131278924D01*
X131034822Y-131395151D01*
X130835485Y-131876393D01*
X130725000Y-132431837D01*
X130725000Y-132998163D01*
X130835485Y-133553607D01*
X131052208Y-134076823D01*
X131161239Y-134240000D01*
X130390828Y-134240000D01*
X130079625Y-134111095D01*
X129722209Y-134040000D01*
X129357791Y-134040000D01*
X129000375Y-134111095D01*
X128663697Y-134250552D01*
X128360694Y-134453011D01*
X128103011Y-134710694D01*
X127900552Y-135013697D01*
X127761095Y-135350375D01*
X127690000Y-135707791D01*
X127690000Y-136072209D01*
X127761095Y-136429625D01*
X127900552Y-136766303D01*
X128103011Y-137069306D01*
X128360694Y-137326989D01*
X128663697Y-137529448D01*
X129000375Y-137668905D01*
X129357791Y-137740000D01*
X129722209Y-137740000D01*
X130079625Y-137668905D01*
X130390828Y-137540000D01*
X134538958Y-137540000D01*
X134620000Y-137547982D01*
X134701042Y-137540000D01*
X134701052Y-137540000D01*
X134943456Y-137516125D01*
X135254483Y-137421777D01*
X135541126Y-137268562D01*
X135792371Y-137062371D01*
X135844044Y-136999407D01*
X138269417Y-134574036D01*
X138332371Y-134522371D01*
X138389294Y-134453011D01*
X138538561Y-134271127D01*
X138538562Y-134271126D01*
X138691777Y-133984483D01*
X138786125Y-133673456D01*
X138810000Y-133431052D01*
X138810000Y-133431043D01*
X138817982Y-133350001D01*
X138810000Y-133268959D01*
X138810000Y-132079262D01*
X138921777Y-131870143D01*
X138997383Y-131620902D01*
X139080152Y-131649359D01*
X139374507Y-131689281D01*
X139670995Y-131671011D01*
X139958222Y-131595250D01*
X140027832Y-131561259D01*
X140195074Y-131728501D01*
X140522645Y-131947377D01*
X140886622Y-132098141D01*
X141273017Y-132175000D01*
X141666983Y-132175000D01*
X142053378Y-132098141D01*
X142194070Y-132039864D01*
X142279331Y-132085437D01*
X142514957Y-132156913D01*
X142760000Y-132181048D01*
X143474885Y-132181048D01*
X143425000Y-132431837D01*
X143425000Y-132998163D01*
X143535485Y-133553607D01*
X143752208Y-134076823D01*
X144066842Y-134547706D01*
X144467294Y-134948158D01*
X144938177Y-135262792D01*
X145461393Y-135479515D01*
X146016837Y-135590000D01*
X146583163Y-135590000D01*
X147138607Y-135479515D01*
X147661823Y-135262792D01*
X148132706Y-134948158D01*
X148533158Y-134547706D01*
X148847792Y-134076823D01*
X149064515Y-133553607D01*
X149175000Y-132998163D01*
X149175000Y-132431837D01*
X149064515Y-131876393D01*
X148865178Y-131395151D01*
X149145775Y-131278924D01*
X149514292Y-131032689D01*
X149827689Y-130719292D01*
X150073924Y-130350775D01*
X150243534Y-129941301D01*
X150330000Y-129506606D01*
X150330000Y-129063394D01*
X150243534Y-128628699D01*
X150073924Y-128219225D01*
X149827689Y-127850708D01*
X149514292Y-127537311D01*
X149145775Y-127291076D01*
X148736301Y-127121466D01*
X148301606Y-127035000D01*
X147858394Y-127035000D01*
X147423699Y-127121466D01*
X147014225Y-127291076D01*
X146645708Y-127537311D01*
X146332311Y-127850708D01*
X146086076Y-128219225D01*
X145916466Y-128628699D01*
X145830000Y-129063394D01*
X145830000Y-129506606D01*
X145900903Y-129863061D01*
X145516048Y-129939613D01*
X145516048Y-129425000D01*
X145491913Y-129179957D01*
X145420437Y-128944331D01*
X145304366Y-128727177D01*
X145148160Y-128536840D01*
X144957823Y-128380634D01*
X144740669Y-128264563D01*
X144505043Y-128193087D01*
X144488699Y-128191477D01*
X144413141Y-127811622D01*
X144262377Y-127447645D01*
X144043501Y-127120074D01*
X143764926Y-126841499D01*
X143437355Y-126622623D01*
X143073378Y-126471859D01*
X142686983Y-126395000D01*
X142611320Y-126395000D01*
X138025000Y-121808681D01*
X138025000Y-119240593D01*
X138212095Y-119248762D01*
X138223000Y-119249000D01*
X150792179Y-119249000D01*
X151213264Y-119267458D01*
X151625684Y-119321973D01*
X152031754Y-119412366D01*
X152428373Y-119537950D01*
X152812451Y-119697743D01*
X153181104Y-119890548D01*
X153531447Y-120114854D01*
X153860834Y-120368968D01*
X154166720Y-120650926D01*
X154446758Y-120958565D01*
X154698801Y-121289525D01*
X154855978Y-121538432D01*
X154835905Y-129136152D01*
X154672068Y-129068288D01*
X154092474Y-128953000D01*
X153501526Y-128953000D01*
X152921932Y-129068288D01*
X152375967Y-129294434D01*
X151884611Y-129622748D01*
X151466748Y-130040611D01*
X151138434Y-130531967D01*
X150912288Y-131077932D01*
X150797000Y-131657526D01*
X150797000Y-132248474D01*
X150912288Y-132828068D01*
X151138434Y-133374033D01*
X151466748Y-133865389D01*
X151884611Y-134283252D01*
X152375967Y-134611566D01*
X152921932Y-134837712D01*
X153501526Y-134953000D01*
X154092474Y-134953000D01*
X154672068Y-134837712D01*
X154821005Y-134776020D01*
X154815819Y-136738835D01*
X154761314Y-136835724D01*
X154512977Y-137195267D01*
X154232639Y-137530476D01*
X153922695Y-137838489D01*
X153585748Y-138116720D01*
X153224648Y-138362813D01*
X153127246Y-138416808D01*
X66769350Y-138177590D01*
X66476481Y-137952088D01*
X66170740Y-137670863D01*
X65890739Y-137363998D01*
X65664000Y-137067074D01*
X65664000Y-130452397D01*
X72214151Y-130452397D01*
X72224808Y-130512095D01*
X72323529Y-130840235D01*
X72484370Y-131142811D01*
X72701150Y-131408194D01*
X72965538Y-131626186D01*
X73267374Y-131788410D01*
X73595059Y-131888632D01*
X73936000Y-131923000D01*
X74926000Y-131923000D01*
X74926000Y-130179000D01*
X74934000Y-130179000D01*
X74934000Y-131923000D01*
X75924000Y-131923000D01*
X76264941Y-131888632D01*
X76592626Y-131788410D01*
X76894462Y-131626186D01*
X77158850Y-131408194D01*
X77375630Y-131142811D01*
X77536471Y-130840235D01*
X77635192Y-130512095D01*
X77645849Y-130452397D01*
X77478495Y-130179000D01*
X74934000Y-130179000D01*
X74926000Y-130179000D01*
X72381505Y-130179000D01*
X72214151Y-130452397D01*
X65664000Y-130452397D01*
X65664000Y-129897603D01*
X72214151Y-129897603D01*
X72381505Y-130171000D01*
X74926000Y-130171000D01*
X74926000Y-128427000D01*
X74934000Y-128427000D01*
X74934000Y-130171000D01*
X77478495Y-130171000D01*
X77645849Y-129897603D01*
X77635192Y-129837905D01*
X77536471Y-129509765D01*
X77375630Y-129207189D01*
X77158850Y-128941806D01*
X76894462Y-128723814D01*
X76592626Y-128561590D01*
X76264941Y-128461368D01*
X75924000Y-128427000D01*
X74934000Y-128427000D01*
X74926000Y-128427000D01*
X73936000Y-128427000D01*
X73595059Y-128461368D01*
X73267374Y-128561590D01*
X72965538Y-128723814D01*
X72701150Y-128941806D01*
X72484370Y-129207189D01*
X72323529Y-129509765D01*
X72224808Y-129837905D01*
X72214151Y-129897603D01*
X65664000Y-129897603D01*
X65664000Y-125452397D01*
X72214151Y-125452397D01*
X72224808Y-125512095D01*
X72323529Y-125840235D01*
X72484370Y-126142811D01*
X72701150Y-126408194D01*
X72965538Y-126626186D01*
X73267374Y-126788410D01*
X73595059Y-126888632D01*
X73936000Y-126923000D01*
X74926000Y-126923000D01*
X74926000Y-125179000D01*
X74934000Y-125179000D01*
X74934000Y-126923000D01*
X75924000Y-126923000D01*
X76264941Y-126888632D01*
X76592626Y-126788410D01*
X76894462Y-126626186D01*
X77158850Y-126408194D01*
X77375630Y-126142811D01*
X77536471Y-125840235D01*
X77635192Y-125512095D01*
X77645849Y-125452397D01*
X77478495Y-125179000D01*
X74934000Y-125179000D01*
X74926000Y-125179000D01*
X72381505Y-125179000D01*
X72214151Y-125452397D01*
X65664000Y-125452397D01*
X65664000Y-124897603D01*
X72214151Y-124897603D01*
X72381505Y-125171000D01*
X74926000Y-125171000D01*
X74926000Y-123427000D01*
X74934000Y-123427000D01*
X74934000Y-125171000D01*
X77478495Y-125171000D01*
X77645849Y-124897603D01*
X77635192Y-124837905D01*
X77536471Y-124509765D01*
X77375630Y-124207189D01*
X77158850Y-123941806D01*
X76894462Y-123723814D01*
X76592626Y-123561590D01*
X76264941Y-123461368D01*
X75924000Y-123427000D01*
X74934000Y-123427000D01*
X74926000Y-123427000D01*
X73936000Y-123427000D01*
X73595059Y-123461368D01*
X73267374Y-123561590D01*
X72965538Y-123723814D01*
X72701150Y-123941806D01*
X72484370Y-124207189D01*
X72323529Y-124509765D01*
X72224808Y-124837905D01*
X72214151Y-124897603D01*
X65664000Y-124897603D01*
X65664000Y-116388641D01*
X65778611Y-116503252D01*
X66269967Y-116831566D01*
X66815932Y-117057712D01*
X67395526Y-117173000D01*
X67986474Y-117173000D01*
X68566068Y-117057712D01*
X69112033Y-116831566D01*
X69603389Y-116503252D01*
X70021252Y-116085389D01*
X70349566Y-115594033D01*
X70575712Y-115048068D01*
X70648884Y-114680204D01*
X72547235Y-116578555D01*
G36*
X118494799Y-130160858D02*
G01*
X118480657Y-130175000D01*
X118494799Y-130189142D01*
X118489142Y-130194799D01*
X118475000Y-130180657D01*
X118460858Y-130194799D01*
X118455201Y-130189142D01*
X118469343Y-130175000D01*
X118455201Y-130160858D01*
X118460858Y-130155201D01*
X118475000Y-130169343D01*
X118489142Y-130155201D01*
X118494799Y-130160858D01*
G37*
X118494799Y-130160858D02*
X118480657Y-130175000D01*
X118494799Y-130189142D01*
X118489142Y-130194799D01*
X118475000Y-130180657D01*
X118460858Y-130194799D01*
X118455201Y-130189142D01*
X118469343Y-130175000D01*
X118455201Y-130160858D01*
X118460858Y-130155201D01*
X118475000Y-130169343D01*
X118489142Y-130155201D01*
X118494799Y-130160858D01*
G36*
X139449799Y-130160858D02*
G01*
X139435657Y-130175000D01*
X139449799Y-130189142D01*
X139444142Y-130194799D01*
X139430000Y-130180657D01*
X139415858Y-130194799D01*
X139410201Y-130189142D01*
X139424343Y-130175000D01*
X139410201Y-130160858D01*
X139415858Y-130155201D01*
X139430000Y-130169343D01*
X139444142Y-130155201D01*
X139449799Y-130160858D01*
G37*
X139449799Y-130160858D02*
X139435657Y-130175000D01*
X139449799Y-130189142D01*
X139444142Y-130194799D01*
X139430000Y-130180657D01*
X139415858Y-130194799D01*
X139410201Y-130189142D01*
X139424343Y-130175000D01*
X139410201Y-130160858D01*
X139415858Y-130155201D01*
X139430000Y-130169343D01*
X139444142Y-130155201D01*
X139449799Y-130160858D01*
G36*
X117474799Y-128380858D02*
G01*
X117460657Y-128395000D01*
X117474799Y-128409142D01*
X117469142Y-128414799D01*
X117455000Y-128400657D01*
X117440858Y-128414799D01*
X117435201Y-128409142D01*
X117449343Y-128395000D01*
X117435201Y-128380858D01*
X117440858Y-128375201D01*
X117455000Y-128389343D01*
X117469142Y-128375201D01*
X117474799Y-128380858D01*
G37*
X117474799Y-128380858D02*
X117460657Y-128395000D01*
X117474799Y-128409142D01*
X117469142Y-128414799D01*
X117455000Y-128400657D01*
X117440858Y-128414799D01*
X117435201Y-128409142D01*
X117449343Y-128395000D01*
X117435201Y-128380858D01*
X117440858Y-128375201D01*
X117455000Y-128389343D01*
X117469142Y-128375201D01*
X117474799Y-128380858D01*
G36*
X138429799Y-128380858D02*
G01*
X138415657Y-128395000D01*
X138429799Y-128409142D01*
X138424142Y-128414799D01*
X138410000Y-128400657D01*
X138395858Y-128414799D01*
X138390201Y-128409142D01*
X138404343Y-128395000D01*
X138390201Y-128380858D01*
X138395858Y-128375201D01*
X138410000Y-128389343D01*
X138424142Y-128375201D01*
X138429799Y-128380858D01*
G37*
X138429799Y-128380858D02*
X138415657Y-128395000D01*
X138429799Y-128409142D01*
X138424142Y-128414799D01*
X138410000Y-128400657D01*
X138395858Y-128414799D01*
X138390201Y-128409142D01*
X138404343Y-128395000D01*
X138390201Y-128380858D01*
X138395858Y-128375201D01*
X138410000Y-128389343D01*
X138424142Y-128375201D01*
X138429799Y-128380858D01*
G36*
X152967670Y-44886308D02*
G01*
X153334706Y-45077828D01*
X153683669Y-45300579D01*
X154011906Y-45552869D01*
X154316934Y-45832788D01*
X154596416Y-46138193D01*
X154848257Y-46466794D01*
X155053466Y-46789266D01*
X155034325Y-54034340D01*
X154672068Y-53884288D01*
X154092474Y-53769000D01*
X153501526Y-53769000D01*
X152921932Y-53884288D01*
X152375967Y-54110434D01*
X151884611Y-54438748D01*
X151466748Y-54856611D01*
X151138434Y-55347967D01*
X150912288Y-55893932D01*
X150843164Y-56241444D01*
X150550775Y-56046076D01*
X150270178Y-55929849D01*
X150469515Y-55448607D01*
X150580000Y-54893163D01*
X150580000Y-54326837D01*
X150469515Y-53771393D01*
X150252792Y-53248177D01*
X149938158Y-52777294D01*
X149537706Y-52376842D01*
X149066823Y-52062208D01*
X148543607Y-51845485D01*
X147988163Y-51735000D01*
X147421837Y-51735000D01*
X146866393Y-51845485D01*
X146343177Y-52062208D01*
X145872294Y-52376842D01*
X145471842Y-52777294D01*
X145157208Y-53248177D01*
X144940485Y-53771393D01*
X144830000Y-54326837D01*
X144830000Y-54893163D01*
X144940485Y-55448607D01*
X145157208Y-55971823D01*
X145471842Y-56442706D01*
X145872294Y-56843158D01*
X146343177Y-57157792D01*
X146866393Y-57374515D01*
X147305903Y-57461939D01*
X147235000Y-57818394D01*
X147235000Y-58261606D01*
X147321466Y-58696301D01*
X147491076Y-59105775D01*
X147737311Y-59474292D01*
X148050708Y-59787689D01*
X148419225Y-60033924D01*
X148828699Y-60203534D01*
X149263394Y-60290000D01*
X149706606Y-60290000D01*
X150141301Y-60203534D01*
X150550775Y-60033924D01*
X150919292Y-59787689D01*
X151232689Y-59474292D01*
X151478924Y-59105775D01*
X151599658Y-58814299D01*
X151884611Y-59099252D01*
X152375967Y-59427566D01*
X152921932Y-59653712D01*
X153501526Y-59769000D01*
X154092474Y-59769000D01*
X154672068Y-59653712D01*
X155019859Y-59509652D01*
X155019737Y-59555858D01*
X154846773Y-59827357D01*
X154594528Y-60156090D01*
X154314589Y-60461589D01*
X154009090Y-60741528D01*
X153680357Y-60993773D01*
X153330881Y-61216414D01*
X152963335Y-61407746D01*
X152580509Y-61566318D01*
X152185333Y-61690917D01*
X151780784Y-61780603D01*
X151369972Y-61834687D01*
X150950546Y-61853000D01*
X144374876Y-61853000D01*
X144395000Y-61648680D01*
X144395000Y-61648679D01*
X144402257Y-61575001D01*
X144395000Y-61501323D01*
X144395000Y-60861769D01*
X144738017Y-60930000D01*
X145131983Y-60930000D01*
X145518378Y-60853141D01*
X145882355Y-60702377D01*
X146209926Y-60483501D01*
X146488501Y-60204926D01*
X146707377Y-59877355D01*
X146858141Y-59513378D01*
X146935000Y-59126983D01*
X146935000Y-58733017D01*
X146858141Y-58346622D01*
X146707377Y-57982645D01*
X146488501Y-57655074D01*
X146209926Y-57376499D01*
X145882355Y-57157623D01*
X145518378Y-57006859D01*
X145415783Y-56986452D01*
X145411011Y-56909005D01*
X145335250Y-56621778D01*
X145204909Y-56354851D01*
X145143249Y-56262570D01*
X144855304Y-56215353D01*
X143920657Y-57150000D01*
X143934799Y-57164142D01*
X143929142Y-57169799D01*
X143915000Y-57155657D01*
X143900858Y-57169799D01*
X143895201Y-57164142D01*
X143909343Y-57150000D01*
X143213305Y-56453962D01*
X143202509Y-56431852D01*
X143915000Y-57144343D01*
X144849647Y-56209696D01*
X144802430Y-55921751D01*
X144545759Y-55772222D01*
X144264848Y-55675641D01*
X143970493Y-55635719D01*
X143674005Y-55653989D01*
X143386778Y-55729750D01*
X143119851Y-55860091D01*
X143027570Y-55921751D01*
X142980353Y-56209696D01*
X143019493Y-56248836D01*
X143005960Y-56246617D01*
X142974696Y-56215353D01*
X142895000Y-56228421D01*
X142815304Y-56215353D01*
X142784040Y-56246617D01*
X142770507Y-56248836D01*
X142809647Y-56209696D01*
X142762430Y-55921751D01*
X142505759Y-55772222D01*
X142224848Y-55675641D01*
X141930493Y-55635719D01*
X141634005Y-55653989D01*
X141346778Y-55729750D01*
X141079851Y-55860091D01*
X140987570Y-55921751D01*
X140940353Y-56209696D01*
X140979493Y-56248836D01*
X140965960Y-56246617D01*
X140934696Y-56215353D01*
X140855000Y-56228421D01*
X140775304Y-56215353D01*
X140744040Y-56246617D01*
X140730507Y-56248836D01*
X140769647Y-56209696D01*
X140722430Y-55921751D01*
X140465759Y-55772222D01*
X140184848Y-55675641D01*
X139890493Y-55635719D01*
X139594005Y-55653989D01*
X139306778Y-55729750D01*
X139066253Y-55847199D01*
X138968160Y-55766696D01*
X138836478Y-55696311D01*
X138693594Y-55652967D01*
X138545000Y-55638332D01*
X137988500Y-55642000D01*
X137799000Y-55831500D01*
X137799000Y-57146000D01*
X137819000Y-57146000D01*
X137819000Y-57154000D01*
X137799000Y-57154000D01*
X137799000Y-57174000D01*
X137791000Y-57174000D01*
X137791000Y-57154000D01*
X137771000Y-57154000D01*
X137771000Y-57146000D01*
X137791000Y-57146000D01*
X137791000Y-55831500D01*
X137663661Y-55704161D01*
X137769515Y-55448607D01*
X137880000Y-54893163D01*
X137880000Y-54326837D01*
X137769515Y-53771393D01*
X137552792Y-53248177D01*
X137238158Y-52777294D01*
X136837706Y-52376842D01*
X136366823Y-52062208D01*
X135843607Y-51845485D01*
X135288163Y-51735000D01*
X134721837Y-51735000D01*
X134166393Y-51845485D01*
X133643177Y-52062208D01*
X133172294Y-52376842D01*
X132771842Y-52777294D01*
X132457208Y-53248177D01*
X132240485Y-53771393D01*
X132130000Y-54326837D01*
X132130000Y-54893163D01*
X132240485Y-55448607D01*
X132439822Y-55929849D01*
X132159225Y-56046076D01*
X131790708Y-56292311D01*
X131477311Y-56605708D01*
X131231076Y-56974225D01*
X131061466Y-57383699D01*
X130975000Y-57818394D01*
X130975000Y-58261606D01*
X131061466Y-58696301D01*
X131231076Y-59105775D01*
X131477311Y-59474292D01*
X131790708Y-59787689D01*
X132159225Y-60033924D01*
X132568699Y-60203534D01*
X133003394Y-60290000D01*
X133446606Y-60290000D01*
X133881301Y-60203534D01*
X134290775Y-60033924D01*
X134659292Y-59787689D01*
X134972689Y-59474292D01*
X135218924Y-59105775D01*
X135388534Y-58696301D01*
X135475000Y-58261606D01*
X135475000Y-57818394D01*
X135404097Y-57461939D01*
X135843607Y-57374515D01*
X136366823Y-57157792D01*
X136372495Y-57154002D01*
X136476498Y-57154002D01*
X136287000Y-57343500D01*
X136283332Y-57900000D01*
X136297967Y-58048594D01*
X136341311Y-58191478D01*
X136411696Y-58323160D01*
X136506419Y-58438581D01*
X136621840Y-58533304D01*
X136753522Y-58603689D01*
X136835763Y-58628637D01*
X136815000Y-58733017D01*
X136815000Y-59126983D01*
X136891859Y-59513378D01*
X137042623Y-59877355D01*
X137261499Y-60204926D01*
X137540074Y-60483501D01*
X137867645Y-60702377D01*
X138231622Y-60853141D01*
X138618017Y-60930000D01*
X139011983Y-60930000D01*
X139355001Y-60861769D01*
X139355001Y-61088679D01*
X138590680Y-61853000D01*
X129333000Y-61853000D01*
X129322095Y-61853238D01*
X128886316Y-61872265D01*
X128864590Y-61874166D01*
X128432128Y-61931100D01*
X128410649Y-61934887D01*
X127984795Y-62029297D01*
X127963729Y-62034942D01*
X127782929Y-62091948D01*
X127757524Y-62008197D01*
X127618238Y-61747613D01*
X127477760Y-61576439D01*
X127430792Y-61519208D01*
X127373561Y-61472240D01*
X124710000Y-58808680D01*
X124710000Y-58733017D01*
X124633141Y-58346622D01*
X124482377Y-57982645D01*
X124263501Y-57655074D01*
X123984926Y-57376499D01*
X123657355Y-57157623D01*
X123293378Y-57006859D01*
X123190783Y-56986452D01*
X123186011Y-56909005D01*
X123110250Y-56621778D01*
X122979909Y-56354851D01*
X122918249Y-56262570D01*
X122630304Y-56215353D01*
X121695657Y-57150000D01*
X121709799Y-57164142D01*
X121704142Y-57169799D01*
X121690000Y-57155657D01*
X121675858Y-57169799D01*
X121670201Y-57164142D01*
X121684343Y-57150000D01*
X120988305Y-56453962D01*
X120977509Y-56431852D01*
X121690000Y-57144343D01*
X122624647Y-56209696D01*
X122577430Y-55921751D01*
X122320759Y-55772222D01*
X122039848Y-55675641D01*
X121745493Y-55635719D01*
X121449005Y-55653989D01*
X121161778Y-55729750D01*
X120894851Y-55860091D01*
X120802570Y-55921751D01*
X120755353Y-56209696D01*
X120794493Y-56248836D01*
X120780960Y-56246617D01*
X120749696Y-56215353D01*
X120670000Y-56228421D01*
X120590304Y-56215353D01*
X120559040Y-56246617D01*
X120545507Y-56248836D01*
X120584647Y-56209696D01*
X120537430Y-55921751D01*
X120280759Y-55772222D01*
X119999848Y-55675641D01*
X119705493Y-55635719D01*
X119409005Y-55653989D01*
X119121778Y-55729750D01*
X118854851Y-55860091D01*
X118762570Y-55921751D01*
X118715353Y-56209696D01*
X118754493Y-56248836D01*
X118740960Y-56246617D01*
X118709696Y-56215353D01*
X118630000Y-56228421D01*
X118550304Y-56215353D01*
X118519040Y-56246617D01*
X118505507Y-56248836D01*
X118544647Y-56209696D01*
X118497430Y-55921751D01*
X118240759Y-55772222D01*
X117959848Y-55675641D01*
X117665493Y-55635719D01*
X117369005Y-55653989D01*
X117081778Y-55729750D01*
X116841253Y-55847199D01*
X116743160Y-55766696D01*
X116611478Y-55696311D01*
X116468594Y-55652967D01*
X116320000Y-55638332D01*
X115763500Y-55642000D01*
X115574000Y-55831500D01*
X115574000Y-57146000D01*
X115594000Y-57146000D01*
X115594000Y-57154000D01*
X115574000Y-57154000D01*
X115574000Y-57174000D01*
X115566000Y-57174000D01*
X115566000Y-57154000D01*
X115546000Y-57154000D01*
X115546000Y-57146000D01*
X115566000Y-57146000D01*
X115566000Y-55831500D01*
X115438661Y-55704161D01*
X115544515Y-55448607D01*
X115655000Y-54893163D01*
X115655000Y-54326837D01*
X122605000Y-54326837D01*
X122605000Y-54893163D01*
X122715485Y-55448607D01*
X122932208Y-55971823D01*
X123246842Y-56442706D01*
X123647294Y-56843158D01*
X124118177Y-57157792D01*
X124641393Y-57374515D01*
X125080903Y-57461939D01*
X125010000Y-57818394D01*
X125010000Y-58261606D01*
X125096466Y-58696301D01*
X125266076Y-59105775D01*
X125512311Y-59474292D01*
X125825708Y-59787689D01*
X126194225Y-60033924D01*
X126603699Y-60203534D01*
X127038394Y-60290000D01*
X127481606Y-60290000D01*
X127916301Y-60203534D01*
X128325775Y-60033924D01*
X128694292Y-59787689D01*
X129007689Y-59474292D01*
X129253924Y-59105775D01*
X129423534Y-58696301D01*
X129510000Y-58261606D01*
X129510000Y-57818394D01*
X129423534Y-57383699D01*
X129253924Y-56974225D01*
X129007689Y-56605708D01*
X128694292Y-56292311D01*
X128325775Y-56046076D01*
X128045178Y-55929849D01*
X128244515Y-55448607D01*
X128355000Y-54893163D01*
X128355000Y-54326837D01*
X128244515Y-53771393D01*
X128027792Y-53248177D01*
X127713158Y-52777294D01*
X127312706Y-52376842D01*
X126841823Y-52062208D01*
X126318607Y-51845485D01*
X125763163Y-51735000D01*
X125196837Y-51735000D01*
X124641393Y-51845485D01*
X124118177Y-52062208D01*
X123647294Y-52376842D01*
X123246842Y-52777294D01*
X122932208Y-53248177D01*
X122715485Y-53771393D01*
X122605000Y-54326837D01*
X115655000Y-54326837D01*
X115544515Y-53771393D01*
X115327792Y-53248177D01*
X115013158Y-52777294D01*
X114612706Y-52376842D01*
X114141823Y-52062208D01*
X113618607Y-51845485D01*
X113063163Y-51735000D01*
X112496837Y-51735000D01*
X111941393Y-51845485D01*
X111418177Y-52062208D01*
X110947294Y-52376842D01*
X110546842Y-52777294D01*
X110232208Y-53248177D01*
X110015485Y-53771393D01*
X109905000Y-54326837D01*
X109905000Y-54893163D01*
X110015485Y-55448607D01*
X110214822Y-55929849D01*
X109934225Y-56046076D01*
X109565708Y-56292311D01*
X109252311Y-56605708D01*
X109006076Y-56974225D01*
X108836466Y-57383699D01*
X108750000Y-57818394D01*
X108750000Y-58261606D01*
X108836466Y-58696301D01*
X109006076Y-59105775D01*
X109252311Y-59474292D01*
X109565708Y-59787689D01*
X109934225Y-60033924D01*
X110343699Y-60203534D01*
X110778394Y-60290000D01*
X111221606Y-60290000D01*
X111656301Y-60203534D01*
X112065775Y-60033924D01*
X112434292Y-59787689D01*
X112747689Y-59474292D01*
X112993924Y-59105775D01*
X113163534Y-58696301D01*
X113250000Y-58261606D01*
X113250000Y-57818394D01*
X113179097Y-57461939D01*
X113618607Y-57374515D01*
X114141823Y-57157792D01*
X114147495Y-57154002D01*
X114251498Y-57154002D01*
X114062000Y-57343500D01*
X114058332Y-57900000D01*
X114072967Y-58048594D01*
X114116311Y-58191478D01*
X114186696Y-58323160D01*
X114281419Y-58438581D01*
X114396840Y-58533304D01*
X114528522Y-58603689D01*
X114570212Y-58616336D01*
X112606549Y-60580000D01*
X107936041Y-60580000D01*
X107854999Y-60572018D01*
X107773957Y-60580000D01*
X107773948Y-60580000D01*
X107531544Y-60603875D01*
X107220517Y-60698223D01*
X106933874Y-60851438D01*
X106682629Y-61057629D01*
X106630961Y-61120587D01*
X101345000Y-66406549D01*
X101345000Y-64183451D01*
X101594408Y-63934043D01*
X101657371Y-63882371D01*
X101863562Y-63631126D01*
X102016777Y-63344483D01*
X102111125Y-63033456D01*
X102135000Y-62791052D01*
X102135000Y-62791051D01*
X102142983Y-62710000D01*
X102135000Y-62628948D01*
X102135000Y-60060505D01*
X102257377Y-59877355D01*
X102408141Y-59513378D01*
X102485000Y-59126983D01*
X102485000Y-58733017D01*
X102408141Y-58346622D01*
X102257377Y-57982645D01*
X102038501Y-57655074D01*
X101759926Y-57376499D01*
X101432355Y-57157623D01*
X101068378Y-57006859D01*
X100965783Y-56986452D01*
X100961011Y-56909005D01*
X100885250Y-56621778D01*
X100754909Y-56354851D01*
X100693249Y-56262570D01*
X100405304Y-56215353D01*
X99470657Y-57150000D01*
X99484799Y-57164142D01*
X99479142Y-57169799D01*
X99465000Y-57155657D01*
X99450858Y-57169799D01*
X99445201Y-57164142D01*
X99459343Y-57150000D01*
X98763305Y-56453962D01*
X98752509Y-56431852D01*
X99465000Y-57144343D01*
X100399647Y-56209696D01*
X100352430Y-55921751D01*
X100095759Y-55772222D01*
X99814848Y-55675641D01*
X99520493Y-55635719D01*
X99224005Y-55653989D01*
X98936778Y-55729750D01*
X98669851Y-55860091D01*
X98577570Y-55921751D01*
X98530353Y-56209696D01*
X98569493Y-56248836D01*
X98555960Y-56246617D01*
X98524696Y-56215353D01*
X98445000Y-56228421D01*
X98365304Y-56215353D01*
X98334040Y-56246617D01*
X98320507Y-56248836D01*
X98359647Y-56209696D01*
X98312430Y-55921751D01*
X98055759Y-55772222D01*
X97774848Y-55675641D01*
X97480493Y-55635719D01*
X97184005Y-55653989D01*
X96896778Y-55729750D01*
X96629851Y-55860091D01*
X96537570Y-55921751D01*
X96490353Y-56209696D01*
X96529493Y-56248836D01*
X96515960Y-56246617D01*
X96484696Y-56215353D01*
X96405000Y-56228421D01*
X96325304Y-56215353D01*
X96294040Y-56246617D01*
X96280507Y-56248836D01*
X96319647Y-56209696D01*
X96272430Y-55921751D01*
X96015759Y-55772222D01*
X95734848Y-55675641D01*
X95440493Y-55635719D01*
X95144005Y-55653989D01*
X94856778Y-55729750D01*
X94616253Y-55847199D01*
X94518160Y-55766696D01*
X94386478Y-55696311D01*
X94243594Y-55652967D01*
X94095000Y-55638332D01*
X93538500Y-55642000D01*
X93349000Y-55831500D01*
X93349000Y-57146000D01*
X93369000Y-57146000D01*
X93369000Y-57154000D01*
X93349000Y-57154000D01*
X93349000Y-57174000D01*
X93341000Y-57174000D01*
X93341000Y-57154000D01*
X93321000Y-57154000D01*
X93321000Y-57146000D01*
X93341000Y-57146000D01*
X93341000Y-55831500D01*
X93213661Y-55704161D01*
X93319515Y-55448607D01*
X93430000Y-54893163D01*
X93430000Y-54326837D01*
X100380000Y-54326837D01*
X100380000Y-54893163D01*
X100490485Y-55448607D01*
X100707208Y-55971823D01*
X101021842Y-56442706D01*
X101422294Y-56843158D01*
X101893177Y-57157792D01*
X102416393Y-57374515D01*
X102855903Y-57461939D01*
X102785000Y-57818394D01*
X102785000Y-58261606D01*
X102871466Y-58696301D01*
X103041076Y-59105775D01*
X103287311Y-59474292D01*
X103600708Y-59787689D01*
X103969225Y-60033924D01*
X104378699Y-60203534D01*
X104813394Y-60290000D01*
X105256606Y-60290000D01*
X105691301Y-60203534D01*
X106100775Y-60033924D01*
X106469292Y-59787689D01*
X106782689Y-59474292D01*
X107028924Y-59105775D01*
X107198534Y-58696301D01*
X107285000Y-58261606D01*
X107285000Y-57818394D01*
X107198534Y-57383699D01*
X107028924Y-56974225D01*
X106782689Y-56605708D01*
X106469292Y-56292311D01*
X106100775Y-56046076D01*
X105820178Y-55929849D01*
X106019515Y-55448607D01*
X106130000Y-54893163D01*
X106130000Y-54326837D01*
X106019515Y-53771393D01*
X105802792Y-53248177D01*
X105488158Y-52777294D01*
X105087706Y-52376842D01*
X104616823Y-52062208D01*
X104093607Y-51845485D01*
X103538163Y-51735000D01*
X102971837Y-51735000D01*
X102416393Y-51845485D01*
X101893177Y-52062208D01*
X101422294Y-52376842D01*
X101021842Y-52777294D01*
X100707208Y-53248177D01*
X100490485Y-53771393D01*
X100380000Y-54326837D01*
X93430000Y-54326837D01*
X93319515Y-53771393D01*
X93102792Y-53248177D01*
X92788158Y-52777294D01*
X92387706Y-52376842D01*
X91916823Y-52062208D01*
X91393607Y-51845485D01*
X90838163Y-51735000D01*
X90271837Y-51735000D01*
X89716393Y-51845485D01*
X89193177Y-52062208D01*
X88722294Y-52376842D01*
X88321842Y-52777294D01*
X88007208Y-53248177D01*
X87790485Y-53771393D01*
X87680000Y-54326837D01*
X87680000Y-54893163D01*
X87790485Y-55448607D01*
X87989822Y-55929849D01*
X87776762Y-56018101D01*
X87752524Y-55938197D01*
X87613238Y-55677613D01*
X87472760Y-55506439D01*
X87425792Y-55449208D01*
X87368561Y-55402240D01*
X85432769Y-53466450D01*
X85385792Y-53409208D01*
X85157387Y-53221762D01*
X84896802Y-53082476D01*
X84614051Y-52996705D01*
X84393680Y-52975000D01*
X84320000Y-52967743D01*
X84246320Y-52975000D01*
X79433427Y-52975000D01*
X79379926Y-52921499D01*
X79052355Y-52702623D01*
X78688378Y-52551859D01*
X78301983Y-52475000D01*
X77908017Y-52475000D01*
X77521622Y-52551859D01*
X77157645Y-52702623D01*
X76830074Y-52921499D01*
X76551499Y-53200074D01*
X76332623Y-53527645D01*
X76181859Y-53891622D01*
X76161452Y-53994217D01*
X76084005Y-53998989D01*
X75796778Y-54074750D01*
X75529851Y-54205091D01*
X75437570Y-54266751D01*
X75390353Y-54554696D01*
X76325000Y-55489343D01*
X76339142Y-55475201D01*
X76344799Y-55480858D01*
X76330657Y-55495000D01*
X76344799Y-55509142D01*
X76339142Y-55514799D01*
X76325000Y-55500657D01*
X75628962Y-56196695D01*
X75606852Y-56207491D01*
X76319343Y-55495000D01*
X75384696Y-54560353D01*
X75096751Y-54607570D01*
X74947222Y-54864241D01*
X74850641Y-55145152D01*
X74810719Y-55439507D01*
X74828989Y-55735995D01*
X74904750Y-56023222D01*
X75035091Y-56290149D01*
X75096751Y-56382430D01*
X75384696Y-56429647D01*
X75423836Y-56390507D01*
X75421617Y-56404040D01*
X75390353Y-56435304D01*
X75403421Y-56515000D01*
X75390353Y-56594696D01*
X75421617Y-56625960D01*
X75423836Y-56639493D01*
X75384696Y-56600353D01*
X75096751Y-56647570D01*
X74947222Y-56904241D01*
X74850641Y-57185152D01*
X74810719Y-57479507D01*
X74828989Y-57775995D01*
X74904750Y-58063222D01*
X75035091Y-58330149D01*
X75096751Y-58422430D01*
X75384696Y-58469647D01*
X75423836Y-58430507D01*
X75421617Y-58444040D01*
X75390353Y-58475304D01*
X75403421Y-58555000D01*
X75390353Y-58634696D01*
X75421617Y-58665960D01*
X75423836Y-58679493D01*
X75384696Y-58640353D01*
X75096751Y-58687570D01*
X74947222Y-58944241D01*
X74850641Y-59225152D01*
X74810719Y-59519507D01*
X74828989Y-59815995D01*
X74904750Y-60103222D01*
X75022199Y-60343747D01*
X74941696Y-60441840D01*
X74871311Y-60573522D01*
X74827967Y-60716406D01*
X74813332Y-60865000D01*
X74817000Y-61421500D01*
X75006500Y-61611000D01*
X76321000Y-61611000D01*
X76321000Y-61591000D01*
X76329000Y-61591000D01*
X76329000Y-61611000D01*
X76349000Y-61611000D01*
X76349000Y-61619000D01*
X76329000Y-61619000D01*
X76329000Y-61639000D01*
X76321000Y-61639000D01*
X76321000Y-61619000D01*
X75006500Y-61619000D01*
X74879161Y-61746339D01*
X74623607Y-61640485D01*
X74068163Y-61530000D01*
X73501837Y-61530000D01*
X72946393Y-61640485D01*
X72423177Y-61857208D01*
X71952294Y-62171842D01*
X71551842Y-62572294D01*
X71237208Y-63043177D01*
X71020485Y-63566393D01*
X70910000Y-64121837D01*
X70910000Y-64688163D01*
X71020485Y-65243607D01*
X71237208Y-65766823D01*
X71551842Y-66237706D01*
X71952294Y-66638158D01*
X72423177Y-66952792D01*
X72946393Y-67169515D01*
X73501837Y-67280000D01*
X74068163Y-67280000D01*
X74623607Y-67169515D01*
X75104849Y-66970178D01*
X75221076Y-67250775D01*
X75467311Y-67619292D01*
X75780708Y-67932689D01*
X76149225Y-68178924D01*
X76558699Y-68348534D01*
X76993394Y-68435000D01*
X77436606Y-68435000D01*
X77871301Y-68348534D01*
X78280775Y-68178924D01*
X78649292Y-67932689D01*
X78962689Y-67619292D01*
X79145000Y-67346444D01*
X79145000Y-70576676D01*
X79083924Y-70429225D01*
X78837689Y-70060708D01*
X78524292Y-69747311D01*
X78155775Y-69501076D01*
X77746301Y-69331466D01*
X77311606Y-69245000D01*
X76868394Y-69245000D01*
X76433699Y-69331466D01*
X76024225Y-69501076D01*
X75655708Y-69747311D01*
X75342311Y-70060708D01*
X75096076Y-70429225D01*
X74979849Y-70709822D01*
X74498607Y-70510485D01*
X73943163Y-70400000D01*
X73376837Y-70400000D01*
X72821393Y-70510485D01*
X72298177Y-70727208D01*
X71827294Y-71041842D01*
X71426842Y-71442294D01*
X71112208Y-71913177D01*
X70895485Y-72436393D01*
X70785000Y-72991837D01*
X70785000Y-73558163D01*
X70895485Y-74113607D01*
X71112208Y-74636823D01*
X71426842Y-75107706D01*
X71827294Y-75508158D01*
X71912364Y-75565000D01*
X71598677Y-75565000D01*
X71524999Y-75557743D01*
X71451321Y-75565000D01*
X71451320Y-75565000D01*
X71230949Y-75586705D01*
X70948198Y-75672476D01*
X70687613Y-75811762D01*
X70459208Y-75999208D01*
X70412235Y-76056445D01*
X66301445Y-80167236D01*
X66244209Y-80214208D01*
X66056763Y-80442613D01*
X65948861Y-80644483D01*
X65917477Y-80703198D01*
X65831705Y-80985949D01*
X65802743Y-81280000D01*
X65810001Y-81353690D01*
X65810000Y-109146320D01*
X65802743Y-109220000D01*
X65831705Y-109514051D01*
X65848336Y-109568875D01*
X65917476Y-109796801D01*
X66056762Y-110057386D01*
X66244208Y-110285792D01*
X66301450Y-110332769D01*
X67183796Y-111215115D01*
X66815932Y-111288288D01*
X66269967Y-111514434D01*
X65778611Y-111842748D01*
X65664000Y-111957359D01*
X65664000Y-51421837D01*
X70910000Y-51421837D01*
X70910000Y-51988163D01*
X71020485Y-52543607D01*
X71237208Y-53066823D01*
X71551842Y-53537706D01*
X71952294Y-53938158D01*
X72423177Y-54252792D01*
X72946393Y-54469515D01*
X73501837Y-54580000D01*
X74068163Y-54580000D01*
X74623607Y-54469515D01*
X75146823Y-54252792D01*
X75617706Y-53938158D01*
X76018158Y-53537706D01*
X76332792Y-53066823D01*
X76549515Y-52543607D01*
X76636939Y-52104097D01*
X76993394Y-52175000D01*
X77436606Y-52175000D01*
X77871301Y-52088534D01*
X78280775Y-51918924D01*
X78649292Y-51672689D01*
X78962689Y-51359292D01*
X79208924Y-50990775D01*
X79378534Y-50581301D01*
X79465000Y-50146606D01*
X79465000Y-49703394D01*
X79378534Y-49268699D01*
X79208924Y-48859225D01*
X78962689Y-48490708D01*
X78649292Y-48177311D01*
X78280775Y-47931076D01*
X77871301Y-47761466D01*
X77436606Y-47675000D01*
X76993394Y-47675000D01*
X76558699Y-47761466D01*
X76149225Y-47931076D01*
X75780708Y-48177311D01*
X75467311Y-48490708D01*
X75221076Y-48859225D01*
X75104849Y-49139822D01*
X74623607Y-48940485D01*
X74068163Y-48830000D01*
X73501837Y-48830000D01*
X72946393Y-48940485D01*
X72423177Y-49157208D01*
X71952294Y-49471842D01*
X71551842Y-49872294D01*
X71237208Y-50343177D01*
X71020485Y-50866393D01*
X70910000Y-51421837D01*
X65664000Y-51421837D01*
X65664000Y-46892251D01*
X65771056Y-46688196D01*
X65994387Y-46339993D01*
X66247178Y-46012531D01*
X66527494Y-45708314D01*
X66833222Y-45429640D01*
X67162036Y-45178625D01*
X67509047Y-44958691D01*
X68241191Y-44957680D01*
X68235288Y-44971932D01*
X68120000Y-45551526D01*
X68120000Y-46142474D01*
X68235288Y-46722068D01*
X68461434Y-47268033D01*
X68789748Y-47759389D01*
X69207611Y-48177252D01*
X69698967Y-48505566D01*
X70244932Y-48731712D01*
X70824526Y-48847000D01*
X71415474Y-48847000D01*
X71995068Y-48731712D01*
X72541033Y-48505566D01*
X73032389Y-48177252D01*
X73450252Y-47759389D01*
X73778566Y-47268033D01*
X74004712Y-46722068D01*
X74120000Y-46142474D01*
X74120000Y-45551526D01*
X74004712Y-44971932D01*
X73995517Y-44949732D01*
X152858143Y-44840806D01*
X152967670Y-44886308D01*
G37*
X152967670Y-44886308D02*
X153334706Y-45077828D01*
X153683669Y-45300579D01*
X154011906Y-45552869D01*
X154316934Y-45832788D01*
X154596416Y-46138193D01*
X154848257Y-46466794D01*
X155053466Y-46789266D01*
X155034325Y-54034340D01*
X154672068Y-53884288D01*
X154092474Y-53769000D01*
X153501526Y-53769000D01*
X152921932Y-53884288D01*
X152375967Y-54110434D01*
X151884611Y-54438748D01*
X151466748Y-54856611D01*
X151138434Y-55347967D01*
X150912288Y-55893932D01*
X150843164Y-56241444D01*
X150550775Y-56046076D01*
X150270178Y-55929849D01*
X150469515Y-55448607D01*
X150580000Y-54893163D01*
X150580000Y-54326837D01*
X150469515Y-53771393D01*
X150252792Y-53248177D01*
X149938158Y-52777294D01*
X149537706Y-52376842D01*
X149066823Y-52062208D01*
X148543607Y-51845485D01*
X147988163Y-51735000D01*
X147421837Y-51735000D01*
X146866393Y-51845485D01*
X146343177Y-52062208D01*
X145872294Y-52376842D01*
X145471842Y-52777294D01*
X145157208Y-53248177D01*
X144940485Y-53771393D01*
X144830000Y-54326837D01*
X144830000Y-54893163D01*
X144940485Y-55448607D01*
X145157208Y-55971823D01*
X145471842Y-56442706D01*
X145872294Y-56843158D01*
X146343177Y-57157792D01*
X146866393Y-57374515D01*
X147305903Y-57461939D01*
X147235000Y-57818394D01*
X147235000Y-58261606D01*
X147321466Y-58696301D01*
X147491076Y-59105775D01*
X147737311Y-59474292D01*
X148050708Y-59787689D01*
X148419225Y-60033924D01*
X148828699Y-60203534D01*
X149263394Y-60290000D01*
X149706606Y-60290000D01*
X150141301Y-60203534D01*
X150550775Y-60033924D01*
X150919292Y-59787689D01*
X151232689Y-59474292D01*
X151478924Y-59105775D01*
X151599658Y-58814299D01*
X151884611Y-59099252D01*
X152375967Y-59427566D01*
X152921932Y-59653712D01*
X153501526Y-59769000D01*
X154092474Y-59769000D01*
X154672068Y-59653712D01*
X155019859Y-59509652D01*
X155019737Y-59555858D01*
X154846773Y-59827357D01*
X154594528Y-60156090D01*
X154314589Y-60461589D01*
X154009090Y-60741528D01*
X153680357Y-60993773D01*
X153330881Y-61216414D01*
X152963335Y-61407746D01*
X152580509Y-61566318D01*
X152185333Y-61690917D01*
X151780784Y-61780603D01*
X151369972Y-61834687D01*
X150950546Y-61853000D01*
X144374876Y-61853000D01*
X144395000Y-61648680D01*
X144395000Y-61648679D01*
X144402257Y-61575001D01*
X144395000Y-61501323D01*
X144395000Y-60861769D01*
X144738017Y-60930000D01*
X145131983Y-60930000D01*
X145518378Y-60853141D01*
X145882355Y-60702377D01*
X146209926Y-60483501D01*
X146488501Y-60204926D01*
X146707377Y-59877355D01*
X146858141Y-59513378D01*
X146935000Y-59126983D01*
X146935000Y-58733017D01*
X146858141Y-58346622D01*
X146707377Y-57982645D01*
X146488501Y-57655074D01*
X146209926Y-57376499D01*
X145882355Y-57157623D01*
X145518378Y-57006859D01*
X145415783Y-56986452D01*
X145411011Y-56909005D01*
X145335250Y-56621778D01*
X145204909Y-56354851D01*
X145143249Y-56262570D01*
X144855304Y-56215353D01*
X143920657Y-57150000D01*
X143934799Y-57164142D01*
X143929142Y-57169799D01*
X143915000Y-57155657D01*
X143900858Y-57169799D01*
X143895201Y-57164142D01*
X143909343Y-57150000D01*
X143213305Y-56453962D01*
X143202509Y-56431852D01*
X143915000Y-57144343D01*
X144849647Y-56209696D01*
X144802430Y-55921751D01*
X144545759Y-55772222D01*
X144264848Y-55675641D01*
X143970493Y-55635719D01*
X143674005Y-55653989D01*
X143386778Y-55729750D01*
X143119851Y-55860091D01*
X143027570Y-55921751D01*
X142980353Y-56209696D01*
X143019493Y-56248836D01*
X143005960Y-56246617D01*
X142974696Y-56215353D01*
X142895000Y-56228421D01*
X142815304Y-56215353D01*
X142784040Y-56246617D01*
X142770507Y-56248836D01*
X142809647Y-56209696D01*
X142762430Y-55921751D01*
X142505759Y-55772222D01*
X142224848Y-55675641D01*
X141930493Y-55635719D01*
X141634005Y-55653989D01*
X141346778Y-55729750D01*
X141079851Y-55860091D01*
X140987570Y-55921751D01*
X140940353Y-56209696D01*
X140979493Y-56248836D01*
X140965960Y-56246617D01*
X140934696Y-56215353D01*
X140855000Y-56228421D01*
X140775304Y-56215353D01*
X140744040Y-56246617D01*
X140730507Y-56248836D01*
X140769647Y-56209696D01*
X140722430Y-55921751D01*
X140465759Y-55772222D01*
X140184848Y-55675641D01*
X139890493Y-55635719D01*
X139594005Y-55653989D01*
X139306778Y-55729750D01*
X139066253Y-55847199D01*
X138968160Y-55766696D01*
X138836478Y-55696311D01*
X138693594Y-55652967D01*
X138545000Y-55638332D01*
X137988500Y-55642000D01*
X137799000Y-55831500D01*
X137799000Y-57146000D01*
X137819000Y-57146000D01*
X137819000Y-57154000D01*
X137799000Y-57154000D01*
X137799000Y-57174000D01*
X137791000Y-57174000D01*
X137791000Y-57154000D01*
X137771000Y-57154000D01*
X137771000Y-57146000D01*
X137791000Y-57146000D01*
X137791000Y-55831500D01*
X137663661Y-55704161D01*
X137769515Y-55448607D01*
X137880000Y-54893163D01*
X137880000Y-54326837D01*
X137769515Y-53771393D01*
X137552792Y-53248177D01*
X137238158Y-52777294D01*
X136837706Y-52376842D01*
X136366823Y-52062208D01*
X135843607Y-51845485D01*
X135288163Y-51735000D01*
X134721837Y-51735000D01*
X134166393Y-51845485D01*
X133643177Y-52062208D01*
X133172294Y-52376842D01*
X132771842Y-52777294D01*
X132457208Y-53248177D01*
X132240485Y-53771393D01*
X132130000Y-54326837D01*
X132130000Y-54893163D01*
X132240485Y-55448607D01*
X132439822Y-55929849D01*
X132159225Y-56046076D01*
X131790708Y-56292311D01*
X131477311Y-56605708D01*
X131231076Y-56974225D01*
X131061466Y-57383699D01*
X130975000Y-57818394D01*
X130975000Y-58261606D01*
X131061466Y-58696301D01*
X131231076Y-59105775D01*
X131477311Y-59474292D01*
X131790708Y-59787689D01*
X132159225Y-60033924D01*
X132568699Y-60203534D01*
X133003394Y-60290000D01*
X133446606Y-60290000D01*
X133881301Y-60203534D01*
X134290775Y-60033924D01*
X134659292Y-59787689D01*
X134972689Y-59474292D01*
X135218924Y-59105775D01*
X135388534Y-58696301D01*
X135475000Y-58261606D01*
X135475000Y-57818394D01*
X135404097Y-57461939D01*
X135843607Y-57374515D01*
X136366823Y-57157792D01*
X136372495Y-57154002D01*
X136476498Y-57154002D01*
X136287000Y-57343500D01*
X136283332Y-57900000D01*
X136297967Y-58048594D01*
X136341311Y-58191478D01*
X136411696Y-58323160D01*
X136506419Y-58438581D01*
X136621840Y-58533304D01*
X136753522Y-58603689D01*
X136835763Y-58628637D01*
X136815000Y-58733017D01*
X136815000Y-59126983D01*
X136891859Y-59513378D01*
X137042623Y-59877355D01*
X137261499Y-60204926D01*
X137540074Y-60483501D01*
X137867645Y-60702377D01*
X138231622Y-60853141D01*
X138618017Y-60930000D01*
X139011983Y-60930000D01*
X139355001Y-60861769D01*
X139355001Y-61088679D01*
X138590680Y-61853000D01*
X129333000Y-61853000D01*
X129322095Y-61853238D01*
X128886316Y-61872265D01*
X128864590Y-61874166D01*
X128432128Y-61931100D01*
X128410649Y-61934887D01*
X127984795Y-62029297D01*
X127963729Y-62034942D01*
X127782929Y-62091948D01*
X127757524Y-62008197D01*
X127618238Y-61747613D01*
X127477760Y-61576439D01*
X127430792Y-61519208D01*
X127373561Y-61472240D01*
X124710000Y-58808680D01*
X124710000Y-58733017D01*
X124633141Y-58346622D01*
X124482377Y-57982645D01*
X124263501Y-57655074D01*
X123984926Y-57376499D01*
X123657355Y-57157623D01*
X123293378Y-57006859D01*
X123190783Y-56986452D01*
X123186011Y-56909005D01*
X123110250Y-56621778D01*
X122979909Y-56354851D01*
X122918249Y-56262570D01*
X122630304Y-56215353D01*
X121695657Y-57150000D01*
X121709799Y-57164142D01*
X121704142Y-57169799D01*
X121690000Y-57155657D01*
X121675858Y-57169799D01*
X121670201Y-57164142D01*
X121684343Y-57150000D01*
X120988305Y-56453962D01*
X120977509Y-56431852D01*
X121690000Y-57144343D01*
X122624647Y-56209696D01*
X122577430Y-55921751D01*
X122320759Y-55772222D01*
X122039848Y-55675641D01*
X121745493Y-55635719D01*
X121449005Y-55653989D01*
X121161778Y-55729750D01*
X120894851Y-55860091D01*
X120802570Y-55921751D01*
X120755353Y-56209696D01*
X120794493Y-56248836D01*
X120780960Y-56246617D01*
X120749696Y-56215353D01*
X120670000Y-56228421D01*
X120590304Y-56215353D01*
X120559040Y-56246617D01*
X120545507Y-56248836D01*
X120584647Y-56209696D01*
X120537430Y-55921751D01*
X120280759Y-55772222D01*
X119999848Y-55675641D01*
X119705493Y-55635719D01*
X119409005Y-55653989D01*
X119121778Y-55729750D01*
X118854851Y-55860091D01*
X118762570Y-55921751D01*
X118715353Y-56209696D01*
X118754493Y-56248836D01*
X118740960Y-56246617D01*
X118709696Y-56215353D01*
X118630000Y-56228421D01*
X118550304Y-56215353D01*
X118519040Y-56246617D01*
X118505507Y-56248836D01*
X118544647Y-56209696D01*
X118497430Y-55921751D01*
X118240759Y-55772222D01*
X117959848Y-55675641D01*
X117665493Y-55635719D01*
X117369005Y-55653989D01*
X117081778Y-55729750D01*
X116841253Y-55847199D01*
X116743160Y-55766696D01*
X116611478Y-55696311D01*
X116468594Y-55652967D01*
X116320000Y-55638332D01*
X115763500Y-55642000D01*
X115574000Y-55831500D01*
X115574000Y-57146000D01*
X115594000Y-57146000D01*
X115594000Y-57154000D01*
X115574000Y-57154000D01*
X115574000Y-57174000D01*
X115566000Y-57174000D01*
X115566000Y-57154000D01*
X115546000Y-57154000D01*
X115546000Y-57146000D01*
X115566000Y-57146000D01*
X115566000Y-55831500D01*
X115438661Y-55704161D01*
X115544515Y-55448607D01*
X115655000Y-54893163D01*
X115655000Y-54326837D01*
X122605000Y-54326837D01*
X122605000Y-54893163D01*
X122715485Y-55448607D01*
X122932208Y-55971823D01*
X123246842Y-56442706D01*
X123647294Y-56843158D01*
X124118177Y-57157792D01*
X124641393Y-57374515D01*
X125080903Y-57461939D01*
X125010000Y-57818394D01*
X125010000Y-58261606D01*
X125096466Y-58696301D01*
X125266076Y-59105775D01*
X125512311Y-59474292D01*
X125825708Y-59787689D01*
X126194225Y-60033924D01*
X126603699Y-60203534D01*
X127038394Y-60290000D01*
X127481606Y-60290000D01*
X127916301Y-60203534D01*
X128325775Y-60033924D01*
X128694292Y-59787689D01*
X129007689Y-59474292D01*
X129253924Y-59105775D01*
X129423534Y-58696301D01*
X129510000Y-58261606D01*
X129510000Y-57818394D01*
X129423534Y-57383699D01*
X129253924Y-56974225D01*
X129007689Y-56605708D01*
X128694292Y-56292311D01*
X128325775Y-56046076D01*
X128045178Y-55929849D01*
X128244515Y-55448607D01*
X128355000Y-54893163D01*
X128355000Y-54326837D01*
X128244515Y-53771393D01*
X128027792Y-53248177D01*
X127713158Y-52777294D01*
X127312706Y-52376842D01*
X126841823Y-52062208D01*
X126318607Y-51845485D01*
X125763163Y-51735000D01*
X125196837Y-51735000D01*
X124641393Y-51845485D01*
X124118177Y-52062208D01*
X123647294Y-52376842D01*
X123246842Y-52777294D01*
X122932208Y-53248177D01*
X122715485Y-53771393D01*
X122605000Y-54326837D01*
X115655000Y-54326837D01*
X115544515Y-53771393D01*
X115327792Y-53248177D01*
X115013158Y-52777294D01*
X114612706Y-52376842D01*
X114141823Y-52062208D01*
X113618607Y-51845485D01*
X113063163Y-51735000D01*
X112496837Y-51735000D01*
X111941393Y-51845485D01*
X111418177Y-52062208D01*
X110947294Y-52376842D01*
X110546842Y-52777294D01*
X110232208Y-53248177D01*
X110015485Y-53771393D01*
X109905000Y-54326837D01*
X109905000Y-54893163D01*
X110015485Y-55448607D01*
X110214822Y-55929849D01*
X109934225Y-56046076D01*
X109565708Y-56292311D01*
X109252311Y-56605708D01*
X109006076Y-56974225D01*
X108836466Y-57383699D01*
X108750000Y-57818394D01*
X108750000Y-58261606D01*
X108836466Y-58696301D01*
X109006076Y-59105775D01*
X109252311Y-59474292D01*
X109565708Y-59787689D01*
X109934225Y-60033924D01*
X110343699Y-60203534D01*
X110778394Y-60290000D01*
X111221606Y-60290000D01*
X111656301Y-60203534D01*
X112065775Y-60033924D01*
X112434292Y-59787689D01*
X112747689Y-59474292D01*
X112993924Y-59105775D01*
X113163534Y-58696301D01*
X113250000Y-58261606D01*
X113250000Y-57818394D01*
X113179097Y-57461939D01*
X113618607Y-57374515D01*
X114141823Y-57157792D01*
X114147495Y-57154002D01*
X114251498Y-57154002D01*
X114062000Y-57343500D01*
X114058332Y-57900000D01*
X114072967Y-58048594D01*
X114116311Y-58191478D01*
X114186696Y-58323160D01*
X114281419Y-58438581D01*
X114396840Y-58533304D01*
X114528522Y-58603689D01*
X114570212Y-58616336D01*
X112606549Y-60580000D01*
X107936041Y-60580000D01*
X107854999Y-60572018D01*
X107773957Y-60580000D01*
X107773948Y-60580000D01*
X107531544Y-60603875D01*
X107220517Y-60698223D01*
X106933874Y-60851438D01*
X106682629Y-61057629D01*
X106630961Y-61120587D01*
X101345000Y-66406549D01*
X101345000Y-64183451D01*
X101594408Y-63934043D01*
X101657371Y-63882371D01*
X101863562Y-63631126D01*
X102016777Y-63344483D01*
X102111125Y-63033456D01*
X102135000Y-62791052D01*
X102135000Y-62791051D01*
X102142983Y-62710000D01*
X102135000Y-62628948D01*
X102135000Y-60060505D01*
X102257377Y-59877355D01*
X102408141Y-59513378D01*
X102485000Y-59126983D01*
X102485000Y-58733017D01*
X102408141Y-58346622D01*
X102257377Y-57982645D01*
X102038501Y-57655074D01*
X101759926Y-57376499D01*
X101432355Y-57157623D01*
X101068378Y-57006859D01*
X100965783Y-56986452D01*
X100961011Y-56909005D01*
X100885250Y-56621778D01*
X100754909Y-56354851D01*
X100693249Y-56262570D01*
X100405304Y-56215353D01*
X99470657Y-57150000D01*
X99484799Y-57164142D01*
X99479142Y-57169799D01*
X99465000Y-57155657D01*
X99450858Y-57169799D01*
X99445201Y-57164142D01*
X99459343Y-57150000D01*
X98763305Y-56453962D01*
X98752509Y-56431852D01*
X99465000Y-57144343D01*
X100399647Y-56209696D01*
X100352430Y-55921751D01*
X100095759Y-55772222D01*
X99814848Y-55675641D01*
X99520493Y-55635719D01*
X99224005Y-55653989D01*
X98936778Y-55729750D01*
X98669851Y-55860091D01*
X98577570Y-55921751D01*
X98530353Y-56209696D01*
X98569493Y-56248836D01*
X98555960Y-56246617D01*
X98524696Y-56215353D01*
X98445000Y-56228421D01*
X98365304Y-56215353D01*
X98334040Y-56246617D01*
X98320507Y-56248836D01*
X98359647Y-56209696D01*
X98312430Y-55921751D01*
X98055759Y-55772222D01*
X97774848Y-55675641D01*
X97480493Y-55635719D01*
X97184005Y-55653989D01*
X96896778Y-55729750D01*
X96629851Y-55860091D01*
X96537570Y-55921751D01*
X96490353Y-56209696D01*
X96529493Y-56248836D01*
X96515960Y-56246617D01*
X96484696Y-56215353D01*
X96405000Y-56228421D01*
X96325304Y-56215353D01*
X96294040Y-56246617D01*
X96280507Y-56248836D01*
X96319647Y-56209696D01*
X96272430Y-55921751D01*
X96015759Y-55772222D01*
X95734848Y-55675641D01*
X95440493Y-55635719D01*
X95144005Y-55653989D01*
X94856778Y-55729750D01*
X94616253Y-55847199D01*
X94518160Y-55766696D01*
X94386478Y-55696311D01*
X94243594Y-55652967D01*
X94095000Y-55638332D01*
X93538500Y-55642000D01*
X93349000Y-55831500D01*
X93349000Y-57146000D01*
X93369000Y-57146000D01*
X93369000Y-57154000D01*
X93349000Y-57154000D01*
X93349000Y-57174000D01*
X93341000Y-57174000D01*
X93341000Y-57154000D01*
X93321000Y-57154000D01*
X93321000Y-57146000D01*
X93341000Y-57146000D01*
X93341000Y-55831500D01*
X93213661Y-55704161D01*
X93319515Y-55448607D01*
X93430000Y-54893163D01*
X93430000Y-54326837D01*
X100380000Y-54326837D01*
X100380000Y-54893163D01*
X100490485Y-55448607D01*
X100707208Y-55971823D01*
X101021842Y-56442706D01*
X101422294Y-56843158D01*
X101893177Y-57157792D01*
X102416393Y-57374515D01*
X102855903Y-57461939D01*
X102785000Y-57818394D01*
X102785000Y-58261606D01*
X102871466Y-58696301D01*
X103041076Y-59105775D01*
X103287311Y-59474292D01*
X103600708Y-59787689D01*
X103969225Y-60033924D01*
X104378699Y-60203534D01*
X104813394Y-60290000D01*
X105256606Y-60290000D01*
X105691301Y-60203534D01*
X106100775Y-60033924D01*
X106469292Y-59787689D01*
X106782689Y-59474292D01*
X107028924Y-59105775D01*
X107198534Y-58696301D01*
X107285000Y-58261606D01*
X107285000Y-57818394D01*
X107198534Y-57383699D01*
X107028924Y-56974225D01*
X106782689Y-56605708D01*
X106469292Y-56292311D01*
X106100775Y-56046076D01*
X105820178Y-55929849D01*
X106019515Y-55448607D01*
X106130000Y-54893163D01*
X106130000Y-54326837D01*
X106019515Y-53771393D01*
X105802792Y-53248177D01*
X105488158Y-52777294D01*
X105087706Y-52376842D01*
X104616823Y-52062208D01*
X104093607Y-51845485D01*
X103538163Y-51735000D01*
X102971837Y-51735000D01*
X102416393Y-51845485D01*
X101893177Y-52062208D01*
X101422294Y-52376842D01*
X101021842Y-52777294D01*
X100707208Y-53248177D01*
X100490485Y-53771393D01*
X100380000Y-54326837D01*
X93430000Y-54326837D01*
X93319515Y-53771393D01*
X93102792Y-53248177D01*
X92788158Y-52777294D01*
X92387706Y-52376842D01*
X91916823Y-52062208D01*
X91393607Y-51845485D01*
X90838163Y-51735000D01*
X90271837Y-51735000D01*
X89716393Y-51845485D01*
X89193177Y-52062208D01*
X88722294Y-52376842D01*
X88321842Y-52777294D01*
X88007208Y-53248177D01*
X87790485Y-53771393D01*
X87680000Y-54326837D01*
X87680000Y-54893163D01*
X87790485Y-55448607D01*
X87989822Y-55929849D01*
X87776762Y-56018101D01*
X87752524Y-55938197D01*
X87613238Y-55677613D01*
X87472760Y-55506439D01*
X87425792Y-55449208D01*
X87368561Y-55402240D01*
X85432769Y-53466450D01*
X85385792Y-53409208D01*
X85157387Y-53221762D01*
X84896802Y-53082476D01*
X84614051Y-52996705D01*
X84393680Y-52975000D01*
X84320000Y-52967743D01*
X84246320Y-52975000D01*
X79433427Y-52975000D01*
X79379926Y-52921499D01*
X79052355Y-52702623D01*
X78688378Y-52551859D01*
X78301983Y-52475000D01*
X77908017Y-52475000D01*
X77521622Y-52551859D01*
X77157645Y-52702623D01*
X76830074Y-52921499D01*
X76551499Y-53200074D01*
X76332623Y-53527645D01*
X76181859Y-53891622D01*
X76161452Y-53994217D01*
X76084005Y-53998989D01*
X75796778Y-54074750D01*
X75529851Y-54205091D01*
X75437570Y-54266751D01*
X75390353Y-54554696D01*
X76325000Y-55489343D01*
X76339142Y-55475201D01*
X76344799Y-55480858D01*
X76330657Y-55495000D01*
X76344799Y-55509142D01*
X76339142Y-55514799D01*
X76325000Y-55500657D01*
X75628962Y-56196695D01*
X75606852Y-56207491D01*
X76319343Y-55495000D01*
X75384696Y-54560353D01*
X75096751Y-54607570D01*
X74947222Y-54864241D01*
X74850641Y-55145152D01*
X74810719Y-55439507D01*
X74828989Y-55735995D01*
X74904750Y-56023222D01*
X75035091Y-56290149D01*
X75096751Y-56382430D01*
X75384696Y-56429647D01*
X75423836Y-56390507D01*
X75421617Y-56404040D01*
X75390353Y-56435304D01*
X75403421Y-56515000D01*
X75390353Y-56594696D01*
X75421617Y-56625960D01*
X75423836Y-56639493D01*
X75384696Y-56600353D01*
X75096751Y-56647570D01*
X74947222Y-56904241D01*
X74850641Y-57185152D01*
X74810719Y-57479507D01*
X74828989Y-57775995D01*
X74904750Y-58063222D01*
X75035091Y-58330149D01*
X75096751Y-58422430D01*
X75384696Y-58469647D01*
X75423836Y-58430507D01*
X75421617Y-58444040D01*
X75390353Y-58475304D01*
X75403421Y-58555000D01*
X75390353Y-58634696D01*
X75421617Y-58665960D01*
X75423836Y-58679493D01*
X75384696Y-58640353D01*
X75096751Y-58687570D01*
X74947222Y-58944241D01*
X74850641Y-59225152D01*
X74810719Y-59519507D01*
X74828989Y-59815995D01*
X74904750Y-60103222D01*
X75022199Y-60343747D01*
X74941696Y-60441840D01*
X74871311Y-60573522D01*
X74827967Y-60716406D01*
X74813332Y-60865000D01*
X74817000Y-61421500D01*
X75006500Y-61611000D01*
X76321000Y-61611000D01*
X76321000Y-61591000D01*
X76329000Y-61591000D01*
X76329000Y-61611000D01*
X76349000Y-61611000D01*
X76349000Y-61619000D01*
X76329000Y-61619000D01*
X76329000Y-61639000D01*
X76321000Y-61639000D01*
X76321000Y-61619000D01*
X75006500Y-61619000D01*
X74879161Y-61746339D01*
X74623607Y-61640485D01*
X74068163Y-61530000D01*
X73501837Y-61530000D01*
X72946393Y-61640485D01*
X72423177Y-61857208D01*
X71952294Y-62171842D01*
X71551842Y-62572294D01*
X71237208Y-63043177D01*
X71020485Y-63566393D01*
X70910000Y-64121837D01*
X70910000Y-64688163D01*
X71020485Y-65243607D01*
X71237208Y-65766823D01*
X71551842Y-66237706D01*
X71952294Y-66638158D01*
X72423177Y-66952792D01*
X72946393Y-67169515D01*
X73501837Y-67280000D01*
X74068163Y-67280000D01*
X74623607Y-67169515D01*
X75104849Y-66970178D01*
X75221076Y-67250775D01*
X75467311Y-67619292D01*
X75780708Y-67932689D01*
X76149225Y-68178924D01*
X76558699Y-68348534D01*
X76993394Y-68435000D01*
X77436606Y-68435000D01*
X77871301Y-68348534D01*
X78280775Y-68178924D01*
X78649292Y-67932689D01*
X78962689Y-67619292D01*
X79145000Y-67346444D01*
X79145000Y-70576676D01*
X79083924Y-70429225D01*
X78837689Y-70060708D01*
X78524292Y-69747311D01*
X78155775Y-69501076D01*
X77746301Y-69331466D01*
X77311606Y-69245000D01*
X76868394Y-69245000D01*
X76433699Y-69331466D01*
X76024225Y-69501076D01*
X75655708Y-69747311D01*
X75342311Y-70060708D01*
X75096076Y-70429225D01*
X74979849Y-70709822D01*
X74498607Y-70510485D01*
X73943163Y-70400000D01*
X73376837Y-70400000D01*
X72821393Y-70510485D01*
X72298177Y-70727208D01*
X71827294Y-71041842D01*
X71426842Y-71442294D01*
X71112208Y-71913177D01*
X70895485Y-72436393D01*
X70785000Y-72991837D01*
X70785000Y-73558163D01*
X70895485Y-74113607D01*
X71112208Y-74636823D01*
X71426842Y-75107706D01*
X71827294Y-75508158D01*
X71912364Y-75565000D01*
X71598677Y-75565000D01*
X71524999Y-75557743D01*
X71451321Y-75565000D01*
X71451320Y-75565000D01*
X71230949Y-75586705D01*
X70948198Y-75672476D01*
X70687613Y-75811762D01*
X70459208Y-75999208D01*
X70412235Y-76056445D01*
X66301445Y-80167236D01*
X66244209Y-80214208D01*
X66056763Y-80442613D01*
X65948861Y-80644483D01*
X65917477Y-80703198D01*
X65831705Y-80985949D01*
X65802743Y-81280000D01*
X65810001Y-81353690D01*
X65810000Y-109146320D01*
X65802743Y-109220000D01*
X65831705Y-109514051D01*
X65848336Y-109568875D01*
X65917476Y-109796801D01*
X66056762Y-110057386D01*
X66244208Y-110285792D01*
X66301450Y-110332769D01*
X67183796Y-111215115D01*
X66815932Y-111288288D01*
X66269967Y-111514434D01*
X65778611Y-111842748D01*
X65664000Y-111957359D01*
X65664000Y-51421837D01*
X70910000Y-51421837D01*
X70910000Y-51988163D01*
X71020485Y-52543607D01*
X71237208Y-53066823D01*
X71551842Y-53537706D01*
X71952294Y-53938158D01*
X72423177Y-54252792D01*
X72946393Y-54469515D01*
X73501837Y-54580000D01*
X74068163Y-54580000D01*
X74623607Y-54469515D01*
X75146823Y-54252792D01*
X75617706Y-53938158D01*
X76018158Y-53537706D01*
X76332792Y-53066823D01*
X76549515Y-52543607D01*
X76636939Y-52104097D01*
X76993394Y-52175000D01*
X77436606Y-52175000D01*
X77871301Y-52088534D01*
X78280775Y-51918924D01*
X78649292Y-51672689D01*
X78962689Y-51359292D01*
X79208924Y-50990775D01*
X79378534Y-50581301D01*
X79465000Y-50146606D01*
X79465000Y-49703394D01*
X79378534Y-49268699D01*
X79208924Y-48859225D01*
X78962689Y-48490708D01*
X78649292Y-48177311D01*
X78280775Y-47931076D01*
X77871301Y-47761466D01*
X77436606Y-47675000D01*
X76993394Y-47675000D01*
X76558699Y-47761466D01*
X76149225Y-47931076D01*
X75780708Y-48177311D01*
X75467311Y-48490708D01*
X75221076Y-48859225D01*
X75104849Y-49139822D01*
X74623607Y-48940485D01*
X74068163Y-48830000D01*
X73501837Y-48830000D01*
X72946393Y-48940485D01*
X72423177Y-49157208D01*
X71952294Y-49471842D01*
X71551842Y-49872294D01*
X71237208Y-50343177D01*
X71020485Y-50866393D01*
X70910000Y-51421837D01*
X65664000Y-51421837D01*
X65664000Y-46892251D01*
X65771056Y-46688196D01*
X65994387Y-46339993D01*
X66247178Y-46012531D01*
X66527494Y-45708314D01*
X66833222Y-45429640D01*
X67162036Y-45178625D01*
X67509047Y-44958691D01*
X68241191Y-44957680D01*
X68235288Y-44971932D01*
X68120000Y-45551526D01*
X68120000Y-46142474D01*
X68235288Y-46722068D01*
X68461434Y-47268033D01*
X68789748Y-47759389D01*
X69207611Y-48177252D01*
X69698967Y-48505566D01*
X70244932Y-48731712D01*
X70824526Y-48847000D01*
X71415474Y-48847000D01*
X71995068Y-48731712D01*
X72541033Y-48505566D01*
X73032389Y-48177252D01*
X73450252Y-47759389D01*
X73778566Y-47268033D01*
X74004712Y-46722068D01*
X74120000Y-46142474D01*
X74120000Y-45551526D01*
X74004712Y-44971932D01*
X73995517Y-44949732D01*
X152858143Y-44840806D01*
X152967670Y-44886308D01*
G36*
X111967349Y-91847747D02*
G01*
X111824066Y-92117474D01*
X111736157Y-92409971D01*
X111726812Y-92462325D01*
X111896506Y-92706000D01*
X113661000Y-92706000D01*
X113661000Y-92686000D01*
X113669000Y-92686000D01*
X113669000Y-92706000D01*
X115433494Y-92706000D01*
X115603188Y-92462325D01*
X115593843Y-92409971D01*
X115505934Y-92117474D01*
X115362651Y-91847747D01*
X115339999Y-91820000D01*
X119036244Y-91820000D01*
X118981883Y-91921703D01*
X118864662Y-92308130D01*
X118825081Y-92710000D01*
X118864662Y-93111870D01*
X118981883Y-93498297D01*
X119172240Y-93854430D01*
X119275292Y-93980000D01*
X119172240Y-94105570D01*
X118981883Y-94461703D01*
X118864662Y-94848130D01*
X118825081Y-95250000D01*
X118864662Y-95651870D01*
X118981883Y-96038297D01*
X119172240Y-96394430D01*
X119275292Y-96520000D01*
X119172240Y-96645570D01*
X118981883Y-97001703D01*
X118864662Y-97388130D01*
X118825081Y-97790000D01*
X118864662Y-98191870D01*
X118981883Y-98578297D01*
X119172240Y-98934430D01*
X119275292Y-99060000D01*
X119172240Y-99185570D01*
X118981883Y-99541703D01*
X118864662Y-99928130D01*
X118825081Y-100330000D01*
X118864662Y-100731870D01*
X118981883Y-101118297D01*
X119172240Y-101474430D01*
X119275292Y-101600000D01*
X119172240Y-101725570D01*
X118981883Y-102081703D01*
X118864662Y-102468130D01*
X118825081Y-102870000D01*
X118864662Y-103271870D01*
X118981883Y-103658297D01*
X119172240Y-104014430D01*
X119275292Y-104140000D01*
X119172240Y-104265570D01*
X118981883Y-104621703D01*
X118864662Y-105008130D01*
X118825081Y-105410000D01*
X118864662Y-105811870D01*
X118981883Y-106198297D01*
X119172240Y-106554430D01*
X119275292Y-106680000D01*
X119172240Y-106805570D01*
X118981883Y-107161703D01*
X118864662Y-107548130D01*
X118825081Y-107950000D01*
X118864662Y-108351870D01*
X118981883Y-108738297D01*
X119172240Y-109094430D01*
X119275292Y-109220000D01*
X119172240Y-109345570D01*
X118981883Y-109701703D01*
X118864662Y-110088130D01*
X118825081Y-110490000D01*
X118864662Y-110891870D01*
X118981883Y-111278297D01*
X119036244Y-111380000D01*
X116112184Y-111380000D01*
X116121048Y-111290000D01*
X116121048Y-109690000D01*
X116096913Y-109444957D01*
X116025437Y-109209331D01*
X115909366Y-108992177D01*
X115862766Y-108935395D01*
X115968117Y-108738297D01*
X116085338Y-108351870D01*
X116124919Y-107950000D01*
X116085338Y-107548130D01*
X115968117Y-107161703D01*
X115777760Y-106805570D01*
X115674708Y-106680000D01*
X115777760Y-106554430D01*
X115968117Y-106198297D01*
X116085338Y-105811870D01*
X116124919Y-105410000D01*
X116085338Y-105008130D01*
X115968117Y-104621703D01*
X115777760Y-104265570D01*
X115674708Y-104140000D01*
X115777760Y-104014430D01*
X115968117Y-103658297D01*
X116085338Y-103271870D01*
X116124919Y-102870000D01*
X116085338Y-102468130D01*
X115968117Y-102081703D01*
X115777760Y-101725570D01*
X115674708Y-101600000D01*
X115777760Y-101474430D01*
X115968117Y-101118297D01*
X116085338Y-100731870D01*
X116124919Y-100330000D01*
X116085338Y-99928130D01*
X115968117Y-99541703D01*
X115777760Y-99185570D01*
X115674708Y-99060000D01*
X115777760Y-98934430D01*
X115968117Y-98578297D01*
X116085338Y-98191870D01*
X116124919Y-97790000D01*
X116085338Y-97388130D01*
X115968117Y-97001703D01*
X115777760Y-96645570D01*
X115674708Y-96520000D01*
X115777760Y-96394430D01*
X115968117Y-96038297D01*
X116085338Y-95651870D01*
X116124919Y-95250000D01*
X116085338Y-94848130D01*
X115968117Y-94461703D01*
X115777760Y-94105570D01*
X115521583Y-93793417D01*
X115318296Y-93626584D01*
X115362651Y-93572253D01*
X115505934Y-93302526D01*
X115593843Y-93010029D01*
X115603188Y-92957675D01*
X115433494Y-92714000D01*
X113669000Y-92714000D01*
X113669000Y-92734000D01*
X113661000Y-92734000D01*
X113661000Y-92714000D01*
X111896506Y-92714000D01*
X111726812Y-92957675D01*
X111736157Y-93010029D01*
X111824066Y-93302526D01*
X111967349Y-93572253D01*
X112011704Y-93626584D01*
X111808417Y-93793417D01*
X111552240Y-94105570D01*
X111361883Y-94461703D01*
X111244662Y-94848130D01*
X111205081Y-95250000D01*
X111244662Y-95651870D01*
X111361883Y-96038297D01*
X111552240Y-96394430D01*
X111655292Y-96520000D01*
X111552240Y-96645570D01*
X111361883Y-97001703D01*
X111244662Y-97388130D01*
X111205081Y-97790000D01*
X111244662Y-98191870D01*
X111361883Y-98578297D01*
X111416244Y-98680000D01*
X110059999Y-98680000D01*
X110082651Y-98652253D01*
X110225934Y-98382526D01*
X110313843Y-98090029D01*
X110323188Y-98037675D01*
X110153494Y-97794000D01*
X108589000Y-97794000D01*
X108589000Y-97814000D01*
X108581000Y-97814000D01*
X108581000Y-97794000D01*
X108561000Y-97794000D01*
X108561000Y-97786000D01*
X108581000Y-97786000D01*
X108581000Y-97766000D01*
X108589000Y-97766000D01*
X108589000Y-97786000D01*
X110153494Y-97786000D01*
X110323188Y-97542325D01*
X110313843Y-97489971D01*
X110225934Y-97197474D01*
X110082651Y-96927747D01*
X110038296Y-96873416D01*
X110241583Y-96706583D01*
X110497760Y-96394430D01*
X110688117Y-96038297D01*
X110805338Y-95651870D01*
X110844919Y-95250000D01*
X110805338Y-94848130D01*
X110688117Y-94461703D01*
X110497760Y-94105570D01*
X110241583Y-93793417D01*
X110235000Y-93788014D01*
X110235000Y-92123451D01*
X110538452Y-91820000D01*
X111990001Y-91820000D01*
X111967349Y-91847747D01*
G37*
X111967349Y-91847747D02*
X111824066Y-92117474D01*
X111736157Y-92409971D01*
X111726812Y-92462325D01*
X111896506Y-92706000D01*
X113661000Y-92706000D01*
X113661000Y-92686000D01*
X113669000Y-92686000D01*
X113669000Y-92706000D01*
X115433494Y-92706000D01*
X115603188Y-92462325D01*
X115593843Y-92409971D01*
X115505934Y-92117474D01*
X115362651Y-91847747D01*
X115339999Y-91820000D01*
X119036244Y-91820000D01*
X118981883Y-91921703D01*
X118864662Y-92308130D01*
X118825081Y-92710000D01*
X118864662Y-93111870D01*
X118981883Y-93498297D01*
X119172240Y-93854430D01*
X119275292Y-93980000D01*
X119172240Y-94105570D01*
X118981883Y-94461703D01*
X118864662Y-94848130D01*
X118825081Y-95250000D01*
X118864662Y-95651870D01*
X118981883Y-96038297D01*
X119172240Y-96394430D01*
X119275292Y-96520000D01*
X119172240Y-96645570D01*
X118981883Y-97001703D01*
X118864662Y-97388130D01*
X118825081Y-97790000D01*
X118864662Y-98191870D01*
X118981883Y-98578297D01*
X119172240Y-98934430D01*
X119275292Y-99060000D01*
X119172240Y-99185570D01*
X118981883Y-99541703D01*
X118864662Y-99928130D01*
X118825081Y-100330000D01*
X118864662Y-100731870D01*
X118981883Y-101118297D01*
X119172240Y-101474430D01*
X119275292Y-101600000D01*
X119172240Y-101725570D01*
X118981883Y-102081703D01*
X118864662Y-102468130D01*
X118825081Y-102870000D01*
X118864662Y-103271870D01*
X118981883Y-103658297D01*
X119172240Y-104014430D01*
X119275292Y-104140000D01*
X119172240Y-104265570D01*
X118981883Y-104621703D01*
X118864662Y-105008130D01*
X118825081Y-105410000D01*
X118864662Y-105811870D01*
X118981883Y-106198297D01*
X119172240Y-106554430D01*
X119275292Y-106680000D01*
X119172240Y-106805570D01*
X118981883Y-107161703D01*
X118864662Y-107548130D01*
X118825081Y-107950000D01*
X118864662Y-108351870D01*
X118981883Y-108738297D01*
X119172240Y-109094430D01*
X119275292Y-109220000D01*
X119172240Y-109345570D01*
X118981883Y-109701703D01*
X118864662Y-110088130D01*
X118825081Y-110490000D01*
X118864662Y-110891870D01*
X118981883Y-111278297D01*
X119036244Y-111380000D01*
X116112184Y-111380000D01*
X116121048Y-111290000D01*
X116121048Y-109690000D01*
X116096913Y-109444957D01*
X116025437Y-109209331D01*
X115909366Y-108992177D01*
X115862766Y-108935395D01*
X115968117Y-108738297D01*
X116085338Y-108351870D01*
X116124919Y-107950000D01*
X116085338Y-107548130D01*
X115968117Y-107161703D01*
X115777760Y-106805570D01*
X115674708Y-106680000D01*
X115777760Y-106554430D01*
X115968117Y-106198297D01*
X116085338Y-105811870D01*
X116124919Y-105410000D01*
X116085338Y-105008130D01*
X115968117Y-104621703D01*
X115777760Y-104265570D01*
X115674708Y-104140000D01*
X115777760Y-104014430D01*
X115968117Y-103658297D01*
X116085338Y-103271870D01*
X116124919Y-102870000D01*
X116085338Y-102468130D01*
X115968117Y-102081703D01*
X115777760Y-101725570D01*
X115674708Y-101600000D01*
X115777760Y-101474430D01*
X115968117Y-101118297D01*
X116085338Y-100731870D01*
X116124919Y-100330000D01*
X116085338Y-99928130D01*
X115968117Y-99541703D01*
X115777760Y-99185570D01*
X115674708Y-99060000D01*
X115777760Y-98934430D01*
X115968117Y-98578297D01*
X116085338Y-98191870D01*
X116124919Y-97790000D01*
X116085338Y-97388130D01*
X115968117Y-97001703D01*
X115777760Y-96645570D01*
X115674708Y-96520000D01*
X115777760Y-96394430D01*
X115968117Y-96038297D01*
X116085338Y-95651870D01*
X116124919Y-95250000D01*
X116085338Y-94848130D01*
X115968117Y-94461703D01*
X115777760Y-94105570D01*
X115521583Y-93793417D01*
X115318296Y-93626584D01*
X115362651Y-93572253D01*
X115505934Y-93302526D01*
X115593843Y-93010029D01*
X115603188Y-92957675D01*
X115433494Y-92714000D01*
X113669000Y-92714000D01*
X113669000Y-92734000D01*
X113661000Y-92734000D01*
X113661000Y-92714000D01*
X111896506Y-92714000D01*
X111726812Y-92957675D01*
X111736157Y-93010029D01*
X111824066Y-93302526D01*
X111967349Y-93572253D01*
X112011704Y-93626584D01*
X111808417Y-93793417D01*
X111552240Y-94105570D01*
X111361883Y-94461703D01*
X111244662Y-94848130D01*
X111205081Y-95250000D01*
X111244662Y-95651870D01*
X111361883Y-96038297D01*
X111552240Y-96394430D01*
X111655292Y-96520000D01*
X111552240Y-96645570D01*
X111361883Y-97001703D01*
X111244662Y-97388130D01*
X111205081Y-97790000D01*
X111244662Y-98191870D01*
X111361883Y-98578297D01*
X111416244Y-98680000D01*
X110059999Y-98680000D01*
X110082651Y-98652253D01*
X110225934Y-98382526D01*
X110313843Y-98090029D01*
X110323188Y-98037675D01*
X110153494Y-97794000D01*
X108589000Y-97794000D01*
X108589000Y-97814000D01*
X108581000Y-97814000D01*
X108581000Y-97794000D01*
X108561000Y-97794000D01*
X108561000Y-97786000D01*
X108581000Y-97786000D01*
X108581000Y-97766000D01*
X108589000Y-97766000D01*
X108589000Y-97786000D01*
X110153494Y-97786000D01*
X110323188Y-97542325D01*
X110313843Y-97489971D01*
X110225934Y-97197474D01*
X110082651Y-96927747D01*
X110038296Y-96873416D01*
X110241583Y-96706583D01*
X110497760Y-96394430D01*
X110688117Y-96038297D01*
X110805338Y-95651870D01*
X110844919Y-95250000D01*
X110805338Y-94848130D01*
X110688117Y-94461703D01*
X110497760Y-94105570D01*
X110241583Y-93793417D01*
X110235000Y-93788014D01*
X110235000Y-92123451D01*
X110538452Y-91820000D01*
X111990001Y-91820000D01*
X111967349Y-91847747D01*
G36*
X90233593Y-98301340D02*
G01*
X90372767Y-98561716D01*
X90560063Y-98789937D01*
X90617100Y-98836746D01*
X90613332Y-98875000D01*
X90617000Y-99256500D01*
X90806500Y-99446000D01*
X92071000Y-99446000D01*
X92071000Y-99426000D01*
X92079000Y-99426000D01*
X92079000Y-99446000D01*
X92099000Y-99446000D01*
X92099000Y-99454000D01*
X92079000Y-99454000D01*
X92079000Y-100593500D01*
X92268500Y-100783000D01*
X92775000Y-100786668D01*
X92923594Y-100772033D01*
X93066478Y-100728689D01*
X93105342Y-100707916D01*
X93198442Y-100978637D01*
X93280810Y-101120000D01*
X90567207Y-101120000D01*
X90568117Y-101118297D01*
X90685338Y-100731870D01*
X90717702Y-100403271D01*
X90741696Y-100448160D01*
X90836419Y-100563581D01*
X90951840Y-100658304D01*
X91083522Y-100728689D01*
X91226406Y-100772033D01*
X91375000Y-100786668D01*
X91881500Y-100783000D01*
X92071000Y-100593500D01*
X92071000Y-99454000D01*
X90806500Y-99454000D01*
X90617000Y-99643500D01*
X90616447Y-99701026D01*
X90568117Y-99541703D01*
X90377760Y-99185570D01*
X90121583Y-98873417D01*
X89918296Y-98706584D01*
X89962651Y-98652253D01*
X90105934Y-98382526D01*
X90181724Y-98130352D01*
X90233593Y-98301340D01*
G37*
X90233593Y-98301340D02*
X90372767Y-98561716D01*
X90560063Y-98789937D01*
X90617100Y-98836746D01*
X90613332Y-98875000D01*
X90617000Y-99256500D01*
X90806500Y-99446000D01*
X92071000Y-99446000D01*
X92071000Y-99426000D01*
X92079000Y-99426000D01*
X92079000Y-99446000D01*
X92099000Y-99446000D01*
X92099000Y-99454000D01*
X92079000Y-99454000D01*
X92079000Y-100593500D01*
X92268500Y-100783000D01*
X92775000Y-100786668D01*
X92923594Y-100772033D01*
X93066478Y-100728689D01*
X93105342Y-100707916D01*
X93198442Y-100978637D01*
X93280810Y-101120000D01*
X90567207Y-101120000D01*
X90568117Y-101118297D01*
X90685338Y-100731870D01*
X90717702Y-100403271D01*
X90741696Y-100448160D01*
X90836419Y-100563581D01*
X90951840Y-100658304D01*
X91083522Y-100728689D01*
X91226406Y-100772033D01*
X91375000Y-100786668D01*
X91881500Y-100783000D01*
X92071000Y-100593500D01*
X92071000Y-99454000D01*
X90806500Y-99454000D01*
X90617000Y-99643500D01*
X90616447Y-99701026D01*
X90568117Y-99541703D01*
X90377760Y-99185570D01*
X90121583Y-98873417D01*
X89918296Y-98706584D01*
X89962651Y-98652253D01*
X90105934Y-98382526D01*
X90181724Y-98130352D01*
X90233593Y-98301340D01*
G36*
X100696812Y-98037675D02*
G01*
X100719118Y-98149817D01*
X100818442Y-98438637D01*
X100972204Y-98702530D01*
X100975388Y-98706132D01*
X100928201Y-98737661D01*
X100642661Y-99023201D01*
X100418314Y-99358961D01*
X100316401Y-99605000D01*
X99884024Y-99605000D01*
X99883000Y-99498500D01*
X99693500Y-99309000D01*
X98429000Y-99309000D01*
X98429000Y-99329000D01*
X98421000Y-99329000D01*
X98421000Y-99309000D01*
X97156500Y-99309000D01*
X96967000Y-99498500D01*
X96964320Y-99777288D01*
X96748048Y-99892888D01*
X96481576Y-100111576D01*
X96426771Y-100178356D01*
X96223351Y-100381776D01*
X96156577Y-100436576D01*
X96101777Y-100503350D01*
X96101775Y-100503352D01*
X96101588Y-100503580D01*
X95983494Y-100334000D01*
X94619000Y-100334000D01*
X94619000Y-100354000D01*
X94611000Y-100354000D01*
X94611000Y-100334000D01*
X94591000Y-100334000D01*
X94591000Y-100326000D01*
X94611000Y-100326000D01*
X94611000Y-100306000D01*
X94619000Y-100306000D01*
X94619000Y-100326000D01*
X95983494Y-100326000D01*
X96153188Y-100082325D01*
X96130882Y-99970183D01*
X96031558Y-99681363D01*
X95877796Y-99417470D01*
X95874612Y-99413868D01*
X95921799Y-99382339D01*
X96207339Y-99096799D01*
X96431686Y-98761039D01*
X96586220Y-98387963D01*
X96614144Y-98247576D01*
X96694331Y-98290437D01*
X96929957Y-98361913D01*
X97055642Y-98374292D01*
X97021311Y-98438522D01*
X96977967Y-98581406D01*
X96963332Y-98730000D01*
X96967000Y-99111500D01*
X97156500Y-99301000D01*
X98421000Y-99301000D01*
X98421000Y-99281000D01*
X98429000Y-99281000D01*
X98429000Y-99301000D01*
X99693500Y-99301000D01*
X99883000Y-99111500D01*
X99886668Y-98730000D01*
X99872033Y-98581406D01*
X99828689Y-98438522D01*
X99794358Y-98374292D01*
X99920043Y-98361913D01*
X100155669Y-98290437D01*
X100372823Y-98174366D01*
X100563160Y-98018160D01*
X100719366Y-97827823D01*
X100737444Y-97794002D01*
X100866505Y-97794002D01*
X100696812Y-98037675D01*
G37*
X100696812Y-98037675D02*
X100719118Y-98149817D01*
X100818442Y-98438637D01*
X100972204Y-98702530D01*
X100975388Y-98706132D01*
X100928201Y-98737661D01*
X100642661Y-99023201D01*
X100418314Y-99358961D01*
X100316401Y-99605000D01*
X99884024Y-99605000D01*
X99883000Y-99498500D01*
X99693500Y-99309000D01*
X98429000Y-99309000D01*
X98429000Y-99329000D01*
X98421000Y-99329000D01*
X98421000Y-99309000D01*
X97156500Y-99309000D01*
X96967000Y-99498500D01*
X96964320Y-99777288D01*
X96748048Y-99892888D01*
X96481576Y-100111576D01*
X96426771Y-100178356D01*
X96223351Y-100381776D01*
X96156577Y-100436576D01*
X96101777Y-100503350D01*
X96101775Y-100503352D01*
X96101588Y-100503580D01*
X95983494Y-100334000D01*
X94619000Y-100334000D01*
X94619000Y-100354000D01*
X94611000Y-100354000D01*
X94611000Y-100334000D01*
X94591000Y-100334000D01*
X94591000Y-100326000D01*
X94611000Y-100326000D01*
X94611000Y-100306000D01*
X94619000Y-100306000D01*
X94619000Y-100326000D01*
X95983494Y-100326000D01*
X96153188Y-100082325D01*
X96130882Y-99970183D01*
X96031558Y-99681363D01*
X95877796Y-99417470D01*
X95874612Y-99413868D01*
X95921799Y-99382339D01*
X96207339Y-99096799D01*
X96431686Y-98761039D01*
X96586220Y-98387963D01*
X96614144Y-98247576D01*
X96694331Y-98290437D01*
X96929957Y-98361913D01*
X97055642Y-98374292D01*
X97021311Y-98438522D01*
X96977967Y-98581406D01*
X96963332Y-98730000D01*
X96967000Y-99111500D01*
X97156500Y-99301000D01*
X98421000Y-99301000D01*
X98421000Y-99281000D01*
X98429000Y-99281000D01*
X98429000Y-99301000D01*
X99693500Y-99301000D01*
X99883000Y-99111500D01*
X99886668Y-98730000D01*
X99872033Y-98581406D01*
X99828689Y-98438522D01*
X99794358Y-98374292D01*
X99920043Y-98361913D01*
X100155669Y-98290437D01*
X100372823Y-98174366D01*
X100563160Y-98018160D01*
X100719366Y-97827823D01*
X100737444Y-97794002D01*
X100866505Y-97794002D01*
X100696812Y-98037675D01*
G36*
X103898697Y-96889448D02*
G01*
X103902458Y-96891006D01*
X103952100Y-96931746D01*
X103948332Y-96970000D01*
X103952000Y-97351500D01*
X104141500Y-97541000D01*
X105406000Y-97541000D01*
X105406000Y-97521000D01*
X105414000Y-97521000D01*
X105414000Y-97541000D01*
X105434000Y-97541000D01*
X105434000Y-97549000D01*
X105414000Y-97549000D01*
X105414000Y-97569000D01*
X105406000Y-97569000D01*
X105406000Y-97549000D01*
X104141500Y-97549000D01*
X103952000Y-97738500D01*
X103948332Y-98120000D01*
X103962967Y-98268594D01*
X104006311Y-98411478D01*
X104076696Y-98543160D01*
X104106930Y-98580000D01*
X103569190Y-98580000D01*
X103651558Y-98438637D01*
X103750882Y-98149817D01*
X103773188Y-98037675D01*
X103603494Y-97794000D01*
X102239000Y-97794000D01*
X102239000Y-97814000D01*
X102231000Y-97814000D01*
X102231000Y-97794000D01*
X102211000Y-97794000D01*
X102211000Y-97786000D01*
X102231000Y-97786000D01*
X102231000Y-97766000D01*
X102239000Y-97766000D01*
X102239000Y-97786000D01*
X103603494Y-97786000D01*
X103773188Y-97542325D01*
X103750882Y-97430183D01*
X103651558Y-97141363D01*
X103497796Y-96877470D01*
X103494612Y-96873868D01*
X103541799Y-96842339D01*
X103656512Y-96727626D01*
X103898697Y-96889448D01*
G37*
X103898697Y-96889448D02*
X103902458Y-96891006D01*
X103952100Y-96931746D01*
X103948332Y-96970000D01*
X103952000Y-97351500D01*
X104141500Y-97541000D01*
X105406000Y-97541000D01*
X105406000Y-97521000D01*
X105414000Y-97521000D01*
X105414000Y-97541000D01*
X105434000Y-97541000D01*
X105434000Y-97549000D01*
X105414000Y-97549000D01*
X105414000Y-97569000D01*
X105406000Y-97569000D01*
X105406000Y-97549000D01*
X104141500Y-97549000D01*
X103952000Y-97738500D01*
X103948332Y-98120000D01*
X103962967Y-98268594D01*
X104006311Y-98411478D01*
X104076696Y-98543160D01*
X104106930Y-98580000D01*
X103569190Y-98580000D01*
X103651558Y-98438637D01*
X103750882Y-98149817D01*
X103773188Y-98037675D01*
X103603494Y-97794000D01*
X102239000Y-97794000D01*
X102239000Y-97814000D01*
X102231000Y-97814000D01*
X102231000Y-97794000D01*
X102211000Y-97794000D01*
X102211000Y-97786000D01*
X102231000Y-97786000D01*
X102231000Y-97766000D01*
X102239000Y-97766000D01*
X102239000Y-97786000D01*
X103603494Y-97786000D01*
X103773188Y-97542325D01*
X103750882Y-97430183D01*
X103651558Y-97141363D01*
X103497796Y-96877470D01*
X103494612Y-96873868D01*
X103541799Y-96842339D01*
X103656512Y-96727626D01*
X103898697Y-96889448D01*
G36*
X88269000Y-97786000D02*
G01*
X88289000Y-97786000D01*
X88289000Y-97794000D01*
X88269000Y-97794000D01*
X88269000Y-97814000D01*
X88261000Y-97814000D01*
X88261000Y-97794000D01*
X88241000Y-97794000D01*
X88241000Y-97786000D01*
X88261000Y-97786000D01*
X88261000Y-97766000D01*
X88269000Y-97766000D01*
X88269000Y-97786000D01*
G37*
X88269000Y-97786000D02*
X88289000Y-97786000D01*
X88289000Y-97794000D01*
X88269000Y-97794000D01*
X88269000Y-97814000D01*
X88261000Y-97814000D01*
X88261000Y-97794000D01*
X88241000Y-97794000D01*
X88241000Y-97786000D01*
X88261000Y-97786000D01*
X88261000Y-97766000D01*
X88269000Y-97766000D01*
X88269000Y-97786000D01*
G36*
X100866505Y-97785998D02*
G01*
X100741722Y-97785998D01*
X100795908Y-97684623D01*
X100866505Y-97785998D01*
G37*
X100866505Y-97785998D02*
X100741722Y-97785998D01*
X100795908Y-97684623D01*
X100866505Y-97785998D01*
G36*
X123595000Y-65391320D02*
G01*
X123595000Y-68522843D01*
X123365043Y-68453087D01*
X123120000Y-68428952D01*
X120720000Y-68428952D01*
X120474957Y-68453087D01*
X120239331Y-68524563D01*
X120022177Y-68640634D01*
X119831840Y-68796840D01*
X119675634Y-68987177D01*
X119559563Y-69204331D01*
X119551776Y-69230000D01*
X118220825Y-69230000D01*
X118126716Y-69152767D01*
X117866340Y-69013593D01*
X117583816Y-68927890D01*
X117290001Y-68898952D01*
X116389999Y-68898952D01*
X116096184Y-68927890D01*
X115813660Y-69013593D01*
X115553284Y-69152767D01*
X115325063Y-69340063D01*
X115137767Y-69568284D01*
X114998593Y-69828660D01*
X114912890Y-70111184D01*
X114883952Y-70404999D01*
X114883952Y-71055001D01*
X114912890Y-71348816D01*
X114998593Y-71631340D01*
X115064691Y-71755000D01*
X114998593Y-71878660D01*
X114912890Y-72161184D01*
X114883952Y-72454999D01*
X114883952Y-73105001D01*
X114912890Y-73398816D01*
X114998593Y-73681340D01*
X115137767Y-73941716D01*
X115196818Y-74013670D01*
X115025694Y-74128011D01*
X114768011Y-74385694D01*
X114565552Y-74688697D01*
X114426095Y-75025375D01*
X114355000Y-75382791D01*
X114355000Y-75747209D01*
X114426095Y-76104625D01*
X114565552Y-76441303D01*
X114768011Y-76744306D01*
X115025694Y-77001989D01*
X115328697Y-77204448D01*
X115665375Y-77343905D01*
X116022791Y-77415000D01*
X116387209Y-77415000D01*
X116744625Y-77343905D01*
X117081303Y-77204448D01*
X117384306Y-77001989D01*
X117641989Y-76744306D01*
X117844448Y-76441303D01*
X117983905Y-76104625D01*
X118037469Y-75835342D01*
X118093238Y-75767387D01*
X118186330Y-75593225D01*
X118232524Y-75506803D01*
X118318295Y-75224051D01*
X118347257Y-74930000D01*
X118340000Y-74856320D01*
X118340000Y-74182195D01*
X118354937Y-74169937D01*
X118542233Y-73941716D01*
X118681407Y-73681340D01*
X118767110Y-73398816D01*
X118796048Y-73105001D01*
X118796048Y-72454999D01*
X118773888Y-72230000D01*
X119901100Y-72230000D01*
X120022177Y-72329366D01*
X120109145Y-72375851D01*
X120079066Y-72432474D01*
X119991157Y-72724971D01*
X119981812Y-72777325D01*
X120151506Y-73021000D01*
X121916000Y-73021000D01*
X121916000Y-73001000D01*
X121924000Y-73001000D01*
X121924000Y-73021000D01*
X121944000Y-73021000D01*
X121944000Y-73029000D01*
X121924000Y-73029000D01*
X121924000Y-73049000D01*
X121916000Y-73049000D01*
X121916000Y-73029000D01*
X120151506Y-73029000D01*
X119981812Y-73272675D01*
X119991157Y-73325029D01*
X120079066Y-73617526D01*
X120222349Y-73887253D01*
X120266704Y-73941584D01*
X120063417Y-74108417D01*
X119807240Y-74420570D01*
X119616883Y-74776703D01*
X119499662Y-75163130D01*
X119460081Y-75565000D01*
X119499662Y-75966870D01*
X119616883Y-76353297D01*
X119807240Y-76709430D01*
X120063417Y-77021583D01*
X120375570Y-77277760D01*
X120731703Y-77468117D01*
X121118130Y-77585338D01*
X121419291Y-77615000D01*
X122420709Y-77615000D01*
X122721870Y-77585338D01*
X123108297Y-77468117D01*
X123464430Y-77277760D01*
X123595000Y-77170604D01*
X123595001Y-91944396D01*
X123588117Y-91921703D01*
X123397760Y-91565570D01*
X123141583Y-91253417D01*
X122940886Y-91088709D01*
X122923285Y-90910000D01*
X122911125Y-90786544D01*
X122816777Y-90475517D01*
X122663562Y-90188874D01*
X122457371Y-89937629D01*
X122394408Y-89885957D01*
X121569045Y-89060594D01*
X121517371Y-88997629D01*
X121266126Y-88791438D01*
X120979483Y-88638223D01*
X120668456Y-88543875D01*
X120426052Y-88520000D01*
X120426042Y-88520000D01*
X120345000Y-88512018D01*
X120263958Y-88520000D01*
X109936041Y-88520000D01*
X109854999Y-88512018D01*
X109773957Y-88520000D01*
X109773948Y-88520000D01*
X109531544Y-88543875D01*
X109220517Y-88638223D01*
X108933874Y-88791438D01*
X108682629Y-88997629D01*
X108630962Y-89060586D01*
X107475589Y-90215960D01*
X107412630Y-90267629D01*
X107326658Y-90372387D01*
X107206439Y-90518874D01*
X107053223Y-90805518D01*
X106985447Y-91028949D01*
X106958876Y-91116544D01*
X106947534Y-91231705D01*
X106927018Y-91440000D01*
X106935001Y-91521051D01*
X106935000Y-93500000D01*
X105384408Y-93500000D01*
X105314625Y-93471095D01*
X104957209Y-93400000D01*
X104592791Y-93400000D01*
X104235375Y-93471095D01*
X104118615Y-93519459D01*
X104206220Y-93307963D01*
X104285000Y-92911907D01*
X104285000Y-92508093D01*
X104206220Y-92112037D01*
X104051686Y-91738961D01*
X103851927Y-91440000D01*
X104051686Y-91141039D01*
X104206220Y-90767963D01*
X104285000Y-90371907D01*
X104285000Y-89968093D01*
X104206220Y-89572037D01*
X104126675Y-89380000D01*
X104689035Y-89380000D01*
X104775000Y-89388467D01*
X104860965Y-89380000D01*
X104860968Y-89380000D01*
X105118060Y-89354679D01*
X105447936Y-89254612D01*
X105751952Y-89092112D01*
X106018424Y-88873424D01*
X106073229Y-88806645D01*
X108491651Y-86388223D01*
X108558424Y-86333424D01*
X108777112Y-86066952D01*
X108939612Y-85762936D01*
X109039679Y-85433060D01*
X109065000Y-85175968D01*
X109065000Y-85175959D01*
X109073466Y-85090001D01*
X109065000Y-85004043D01*
X109065000Y-79206033D01*
X109262474Y-79310934D01*
X109554971Y-79398843D01*
X109607325Y-79408188D01*
X109851000Y-79238494D01*
X109851000Y-77474000D01*
X109859000Y-77474000D01*
X109859000Y-79238494D01*
X110102675Y-79408188D01*
X110155029Y-79398843D01*
X110447526Y-79310934D01*
X110717253Y-79167651D01*
X110953844Y-78974500D01*
X111148207Y-78738904D01*
X111292873Y-78469916D01*
X111382283Y-78177874D01*
X111413000Y-77874000D01*
X111413000Y-77474000D01*
X109859000Y-77474000D01*
X109851000Y-77474000D01*
X109831000Y-77474000D01*
X109831000Y-77466000D01*
X109851000Y-77466000D01*
X109851000Y-75701506D01*
X109859000Y-75701506D01*
X109859000Y-77466000D01*
X111413000Y-77466000D01*
X111413000Y-77066000D01*
X111382283Y-76762126D01*
X111292873Y-76470084D01*
X111148207Y-76201096D01*
X110953844Y-75965500D01*
X110717253Y-75772349D01*
X110447526Y-75629066D01*
X110155029Y-75541157D01*
X110102675Y-75531812D01*
X109859000Y-75701506D01*
X109851000Y-75701506D01*
X109607325Y-75531812D01*
X109554971Y-75541157D01*
X109262474Y-75629066D01*
X108992747Y-75772349D01*
X108938416Y-75816704D01*
X108771583Y-75613417D01*
X108766814Y-75609503D01*
X108853424Y-75538424D01*
X108908228Y-75471645D01*
X111031651Y-73348223D01*
X111098424Y-73293424D01*
X111317112Y-73026952D01*
X111479612Y-72722936D01*
X111579679Y-72393060D01*
X111605000Y-72135968D01*
X111605000Y-72135959D01*
X111613466Y-72050001D01*
X111605000Y-71964043D01*
X111605000Y-71324759D01*
X111758117Y-71038296D01*
X111875338Y-70651869D01*
X111905000Y-70350708D01*
X111905000Y-69349291D01*
X111875338Y-69048130D01*
X111758117Y-68661703D01*
X111567760Y-68305570D01*
X111311583Y-67993417D01*
X110999430Y-67737240D01*
X110643296Y-67546883D01*
X110256869Y-67429662D01*
X109855000Y-67390081D01*
X109453130Y-67429662D01*
X109066703Y-67546883D01*
X108710570Y-67737240D01*
X108585000Y-67840292D01*
X108459430Y-67737240D01*
X108103296Y-67546883D01*
X107716869Y-67429662D01*
X107545653Y-67412799D01*
X109173453Y-65785000D01*
X116758958Y-65785000D01*
X116840000Y-65792982D01*
X116921042Y-65785000D01*
X116921052Y-65785000D01*
X117163456Y-65761125D01*
X117474483Y-65666777D01*
X117761126Y-65513562D01*
X118012371Y-65307371D01*
X118064044Y-65244407D01*
X119739413Y-63569039D01*
X119802371Y-63517371D01*
X120008562Y-63266126D01*
X120161777Y-62979483D01*
X120256125Y-62668456D01*
X120280000Y-62426052D01*
X120280000Y-62426043D01*
X120287982Y-62345001D01*
X120280000Y-62263959D01*
X120280000Y-62076319D01*
X123595000Y-65391320D01*
G37*
X123595000Y-65391320D02*
X123595000Y-68522843D01*
X123365043Y-68453087D01*
X123120000Y-68428952D01*
X120720000Y-68428952D01*
X120474957Y-68453087D01*
X120239331Y-68524563D01*
X120022177Y-68640634D01*
X119831840Y-68796840D01*
X119675634Y-68987177D01*
X119559563Y-69204331D01*
X119551776Y-69230000D01*
X118220825Y-69230000D01*
X118126716Y-69152767D01*
X117866340Y-69013593D01*
X117583816Y-68927890D01*
X117290001Y-68898952D01*
X116389999Y-68898952D01*
X116096184Y-68927890D01*
X115813660Y-69013593D01*
X115553284Y-69152767D01*
X115325063Y-69340063D01*
X115137767Y-69568284D01*
X114998593Y-69828660D01*
X114912890Y-70111184D01*
X114883952Y-70404999D01*
X114883952Y-71055001D01*
X114912890Y-71348816D01*
X114998593Y-71631340D01*
X115064691Y-71755000D01*
X114998593Y-71878660D01*
X114912890Y-72161184D01*
X114883952Y-72454999D01*
X114883952Y-73105001D01*
X114912890Y-73398816D01*
X114998593Y-73681340D01*
X115137767Y-73941716D01*
X115196818Y-74013670D01*
X115025694Y-74128011D01*
X114768011Y-74385694D01*
X114565552Y-74688697D01*
X114426095Y-75025375D01*
X114355000Y-75382791D01*
X114355000Y-75747209D01*
X114426095Y-76104625D01*
X114565552Y-76441303D01*
X114768011Y-76744306D01*
X115025694Y-77001989D01*
X115328697Y-77204448D01*
X115665375Y-77343905D01*
X116022791Y-77415000D01*
X116387209Y-77415000D01*
X116744625Y-77343905D01*
X117081303Y-77204448D01*
X117384306Y-77001989D01*
X117641989Y-76744306D01*
X117844448Y-76441303D01*
X117983905Y-76104625D01*
X118037469Y-75835342D01*
X118093238Y-75767387D01*
X118186330Y-75593225D01*
X118232524Y-75506803D01*
X118318295Y-75224051D01*
X118347257Y-74930000D01*
X118340000Y-74856320D01*
X118340000Y-74182195D01*
X118354937Y-74169937D01*
X118542233Y-73941716D01*
X118681407Y-73681340D01*
X118767110Y-73398816D01*
X118796048Y-73105001D01*
X118796048Y-72454999D01*
X118773888Y-72230000D01*
X119901100Y-72230000D01*
X120022177Y-72329366D01*
X120109145Y-72375851D01*
X120079066Y-72432474D01*
X119991157Y-72724971D01*
X119981812Y-72777325D01*
X120151506Y-73021000D01*
X121916000Y-73021000D01*
X121916000Y-73001000D01*
X121924000Y-73001000D01*
X121924000Y-73021000D01*
X121944000Y-73021000D01*
X121944000Y-73029000D01*
X121924000Y-73029000D01*
X121924000Y-73049000D01*
X121916000Y-73049000D01*
X121916000Y-73029000D01*
X120151506Y-73029000D01*
X119981812Y-73272675D01*
X119991157Y-73325029D01*
X120079066Y-73617526D01*
X120222349Y-73887253D01*
X120266704Y-73941584D01*
X120063417Y-74108417D01*
X119807240Y-74420570D01*
X119616883Y-74776703D01*
X119499662Y-75163130D01*
X119460081Y-75565000D01*
X119499662Y-75966870D01*
X119616883Y-76353297D01*
X119807240Y-76709430D01*
X120063417Y-77021583D01*
X120375570Y-77277760D01*
X120731703Y-77468117D01*
X121118130Y-77585338D01*
X121419291Y-77615000D01*
X122420709Y-77615000D01*
X122721870Y-77585338D01*
X123108297Y-77468117D01*
X123464430Y-77277760D01*
X123595000Y-77170604D01*
X123595001Y-91944396D01*
X123588117Y-91921703D01*
X123397760Y-91565570D01*
X123141583Y-91253417D01*
X122940886Y-91088709D01*
X122923285Y-90910000D01*
X122911125Y-90786544D01*
X122816777Y-90475517D01*
X122663562Y-90188874D01*
X122457371Y-89937629D01*
X122394408Y-89885957D01*
X121569045Y-89060594D01*
X121517371Y-88997629D01*
X121266126Y-88791438D01*
X120979483Y-88638223D01*
X120668456Y-88543875D01*
X120426052Y-88520000D01*
X120426042Y-88520000D01*
X120345000Y-88512018D01*
X120263958Y-88520000D01*
X109936041Y-88520000D01*
X109854999Y-88512018D01*
X109773957Y-88520000D01*
X109773948Y-88520000D01*
X109531544Y-88543875D01*
X109220517Y-88638223D01*
X108933874Y-88791438D01*
X108682629Y-88997629D01*
X108630962Y-89060586D01*
X107475589Y-90215960D01*
X107412630Y-90267629D01*
X107326658Y-90372387D01*
X107206439Y-90518874D01*
X107053223Y-90805518D01*
X106985447Y-91028949D01*
X106958876Y-91116544D01*
X106947534Y-91231705D01*
X106927018Y-91440000D01*
X106935001Y-91521051D01*
X106935000Y-93500000D01*
X105384408Y-93500000D01*
X105314625Y-93471095D01*
X104957209Y-93400000D01*
X104592791Y-93400000D01*
X104235375Y-93471095D01*
X104118615Y-93519459D01*
X104206220Y-93307963D01*
X104285000Y-92911907D01*
X104285000Y-92508093D01*
X104206220Y-92112037D01*
X104051686Y-91738961D01*
X103851927Y-91440000D01*
X104051686Y-91141039D01*
X104206220Y-90767963D01*
X104285000Y-90371907D01*
X104285000Y-89968093D01*
X104206220Y-89572037D01*
X104126675Y-89380000D01*
X104689035Y-89380000D01*
X104775000Y-89388467D01*
X104860965Y-89380000D01*
X104860968Y-89380000D01*
X105118060Y-89354679D01*
X105447936Y-89254612D01*
X105751952Y-89092112D01*
X106018424Y-88873424D01*
X106073229Y-88806645D01*
X108491651Y-86388223D01*
X108558424Y-86333424D01*
X108777112Y-86066952D01*
X108939612Y-85762936D01*
X109039679Y-85433060D01*
X109065000Y-85175968D01*
X109065000Y-85175959D01*
X109073466Y-85090001D01*
X109065000Y-85004043D01*
X109065000Y-79206033D01*
X109262474Y-79310934D01*
X109554971Y-79398843D01*
X109607325Y-79408188D01*
X109851000Y-79238494D01*
X109851000Y-77474000D01*
X109859000Y-77474000D01*
X109859000Y-79238494D01*
X110102675Y-79408188D01*
X110155029Y-79398843D01*
X110447526Y-79310934D01*
X110717253Y-79167651D01*
X110953844Y-78974500D01*
X111148207Y-78738904D01*
X111292873Y-78469916D01*
X111382283Y-78177874D01*
X111413000Y-77874000D01*
X111413000Y-77474000D01*
X109859000Y-77474000D01*
X109851000Y-77474000D01*
X109831000Y-77474000D01*
X109831000Y-77466000D01*
X109851000Y-77466000D01*
X109851000Y-75701506D01*
X109859000Y-75701506D01*
X109859000Y-77466000D01*
X111413000Y-77466000D01*
X111413000Y-77066000D01*
X111382283Y-76762126D01*
X111292873Y-76470084D01*
X111148207Y-76201096D01*
X110953844Y-75965500D01*
X110717253Y-75772349D01*
X110447526Y-75629066D01*
X110155029Y-75541157D01*
X110102675Y-75531812D01*
X109859000Y-75701506D01*
X109851000Y-75701506D01*
X109607325Y-75531812D01*
X109554971Y-75541157D01*
X109262474Y-75629066D01*
X108992747Y-75772349D01*
X108938416Y-75816704D01*
X108771583Y-75613417D01*
X108766814Y-75609503D01*
X108853424Y-75538424D01*
X108908228Y-75471645D01*
X111031651Y-73348223D01*
X111098424Y-73293424D01*
X111317112Y-73026952D01*
X111479612Y-72722936D01*
X111579679Y-72393060D01*
X111605000Y-72135968D01*
X111605000Y-72135959D01*
X111613466Y-72050001D01*
X111605000Y-71964043D01*
X111605000Y-71324759D01*
X111758117Y-71038296D01*
X111875338Y-70651869D01*
X111905000Y-70350708D01*
X111905000Y-69349291D01*
X111875338Y-69048130D01*
X111758117Y-68661703D01*
X111567760Y-68305570D01*
X111311583Y-67993417D01*
X110999430Y-67737240D01*
X110643296Y-67546883D01*
X110256869Y-67429662D01*
X109855000Y-67390081D01*
X109453130Y-67429662D01*
X109066703Y-67546883D01*
X108710570Y-67737240D01*
X108585000Y-67840292D01*
X108459430Y-67737240D01*
X108103296Y-67546883D01*
X107716869Y-67429662D01*
X107545653Y-67412799D01*
X109173453Y-65785000D01*
X116758958Y-65785000D01*
X116840000Y-65792982D01*
X116921042Y-65785000D01*
X116921052Y-65785000D01*
X117163456Y-65761125D01*
X117474483Y-65666777D01*
X117761126Y-65513562D01*
X118012371Y-65307371D01*
X118064044Y-65244407D01*
X119739413Y-63569039D01*
X119802371Y-63517371D01*
X120008562Y-63266126D01*
X120161777Y-62979483D01*
X120256125Y-62668456D01*
X120280000Y-62426052D01*
X120280000Y-62426043D01*
X120287982Y-62345001D01*
X120280000Y-62263959D01*
X120280000Y-62076319D01*
X123595000Y-65391320D01*
G36*
X78130427Y-82020230D02*
G01*
X78127794Y-82011549D01*
X78676038Y-81463305D01*
X78698148Y-81452509D01*
X78130427Y-82020230D01*
G37*
X78130427Y-82020230D02*
X78127794Y-82011549D01*
X78676038Y-81463305D01*
X78698148Y-81452509D01*
X78130427Y-82020230D01*
G36*
X77985657Y-80125000D02*
G01*
X78699684Y-80839027D01*
X78672580Y-80823237D01*
X77980000Y-80130657D01*
X77965858Y-80144799D01*
X77960201Y-80139142D01*
X77974343Y-80125000D01*
X77960201Y-80110858D01*
X77965858Y-80105201D01*
X77980000Y-80119343D01*
X78676038Y-79423305D01*
X78698148Y-79412509D01*
X77985657Y-80125000D01*
G37*
X77985657Y-80125000D02*
X78699684Y-80839027D01*
X78672580Y-80823237D01*
X77980000Y-80130657D01*
X77965858Y-80144799D01*
X77960201Y-80139142D01*
X77974343Y-80125000D01*
X77960201Y-80110858D01*
X77965858Y-80105201D01*
X77980000Y-80119343D01*
X78676038Y-79423305D01*
X78698148Y-79412509D01*
X77985657Y-80125000D01*
G36*
X77985657Y-78085000D02*
G01*
X78699684Y-78799027D01*
X78672580Y-78783237D01*
X77980000Y-78090657D01*
X77965858Y-78104799D01*
X77960201Y-78099142D01*
X77974343Y-78085000D01*
X77960201Y-78070858D01*
X77965858Y-78065201D01*
X77980000Y-78079343D01*
X78676038Y-77383305D01*
X78698148Y-77372509D01*
X77985657Y-78085000D01*
G37*
X77985657Y-78085000D02*
X78699684Y-78799027D01*
X78672580Y-78783237D01*
X77980000Y-78090657D01*
X77965858Y-78104799D01*
X77960201Y-78099142D01*
X77974343Y-78085000D01*
X77960201Y-78070858D01*
X77965858Y-78065201D01*
X77980000Y-78079343D01*
X78676038Y-77383305D01*
X78698148Y-77372509D01*
X77985657Y-78085000D01*
G36*
X79145000Y-75147199D02*
G01*
X78920304Y-75110353D01*
X77985657Y-76045000D01*
X78699684Y-76759027D01*
X78672580Y-76743237D01*
X77980000Y-76050657D01*
X77965858Y-76064799D01*
X77960201Y-76059142D01*
X77974343Y-76045000D01*
X77822135Y-75892792D01*
X77799352Y-75858695D01*
X77980000Y-76039343D01*
X78914647Y-75104696D01*
X78867430Y-74816751D01*
X78610759Y-74667222D01*
X78329848Y-74570641D01*
X78035493Y-74530719D01*
X77739005Y-74548989D01*
X77451778Y-74624750D01*
X77184851Y-74755091D01*
X77092570Y-74816751D01*
X77045353Y-75104696D01*
X77406305Y-75465648D01*
X77372208Y-75442865D01*
X77039696Y-75110353D01*
X76801581Y-75149399D01*
X76783378Y-75141859D01*
X76396983Y-75065000D01*
X76003017Y-75065000D01*
X75909228Y-75083656D01*
X76207792Y-74636823D01*
X76424515Y-74113607D01*
X76511939Y-73674097D01*
X76868394Y-73745000D01*
X77311606Y-73745000D01*
X77746301Y-73658534D01*
X78155775Y-73488924D01*
X78524292Y-73242689D01*
X78837689Y-72929292D01*
X79083924Y-72560775D01*
X79145000Y-72413324D01*
X79145000Y-75147199D01*
G37*
X79145000Y-75147199D02*
X78920304Y-75110353D01*
X77985657Y-76045000D01*
X78699684Y-76759027D01*
X78672580Y-76743237D01*
X77980000Y-76050657D01*
X77965858Y-76064799D01*
X77960201Y-76059142D01*
X77974343Y-76045000D01*
X77822135Y-75892792D01*
X77799352Y-75858695D01*
X77980000Y-76039343D01*
X78914647Y-75104696D01*
X78867430Y-74816751D01*
X78610759Y-74667222D01*
X78329848Y-74570641D01*
X78035493Y-74530719D01*
X77739005Y-74548989D01*
X77451778Y-74624750D01*
X77184851Y-74755091D01*
X77092570Y-74816751D01*
X77045353Y-75104696D01*
X77406305Y-75465648D01*
X77372208Y-75442865D01*
X77039696Y-75110353D01*
X76801581Y-75149399D01*
X76783378Y-75141859D01*
X76396983Y-75065000D01*
X76003017Y-75065000D01*
X75909228Y-75083656D01*
X76207792Y-74636823D01*
X76424515Y-74113607D01*
X76511939Y-73674097D01*
X76868394Y-73745000D01*
X77311606Y-73745000D01*
X77746301Y-73658534D01*
X78155775Y-73488924D01*
X78524292Y-73242689D01*
X78837689Y-72929292D01*
X79083924Y-72560775D01*
X79145000Y-72413324D01*
X79145000Y-75147199D01*
G36*
X77908017Y-62595000D02*
G01*
X78013668Y-62595000D01*
X78017612Y-62598237D01*
X78278197Y-62737523D01*
X78447587Y-62788907D01*
X79145000Y-63486320D01*
X79145000Y-65023556D01*
X78962689Y-64750708D01*
X78649292Y-64437311D01*
X78280775Y-64191076D01*
X77871301Y-64021466D01*
X77436606Y-63935000D01*
X76993394Y-63935000D01*
X76636939Y-64005903D01*
X76549515Y-63566393D01*
X76332792Y-63043177D01*
X76329002Y-63037505D01*
X76329002Y-62933502D01*
X76518500Y-63123000D01*
X77075000Y-63126668D01*
X77223594Y-63112033D01*
X77366478Y-63068689D01*
X77498160Y-62998304D01*
X77613581Y-62903581D01*
X77708304Y-62788160D01*
X77778689Y-62656478D01*
X77803637Y-62574237D01*
X77908017Y-62595000D01*
G37*
X77908017Y-62595000D02*
X78013668Y-62595000D01*
X78017612Y-62598237D01*
X78278197Y-62737523D01*
X78447587Y-62788907D01*
X79145000Y-63486320D01*
X79145000Y-65023556D01*
X78962689Y-64750708D01*
X78649292Y-64437311D01*
X78280775Y-64191076D01*
X77871301Y-64021466D01*
X77436606Y-63935000D01*
X76993394Y-63935000D01*
X76636939Y-64005903D01*
X76549515Y-63566393D01*
X76332792Y-63043177D01*
X76329002Y-63037505D01*
X76329002Y-62933502D01*
X76518500Y-63123000D01*
X77075000Y-63126668D01*
X77223594Y-63112033D01*
X77366478Y-63068689D01*
X77498160Y-62998304D01*
X77613581Y-62903581D01*
X77708304Y-62788160D01*
X77778689Y-62656478D01*
X77803637Y-62574237D01*
X77908017Y-62595000D01*
G36*
X75632420Y-58876763D02*
G01*
X76325000Y-59569343D01*
X76339142Y-59555201D01*
X76344799Y-59560858D01*
X76330657Y-59575000D01*
X76344799Y-59589142D01*
X76339142Y-59594799D01*
X76325000Y-59580657D01*
X76310858Y-59594799D01*
X76305201Y-59589142D01*
X76319343Y-59575000D01*
X75605316Y-58860973D01*
X75632420Y-58876763D01*
G37*
X75632420Y-58876763D02*
X76325000Y-59569343D01*
X76339142Y-59555201D01*
X76344799Y-59560858D01*
X76330657Y-59575000D01*
X76344799Y-59589142D01*
X76339142Y-59594799D01*
X76325000Y-59580657D01*
X76310858Y-59594799D01*
X76305201Y-59589142D01*
X76319343Y-59575000D01*
X75605316Y-58860973D01*
X75632420Y-58876763D01*
G36*
X75632420Y-56836763D02*
G01*
X76325000Y-57529343D01*
X76339142Y-57515201D01*
X76344799Y-57520858D01*
X76330657Y-57535000D01*
X76344799Y-57549142D01*
X76339142Y-57554799D01*
X76325000Y-57540657D01*
X75628962Y-58236695D01*
X75606852Y-58247491D01*
X76319343Y-57535000D01*
X75605316Y-56820973D01*
X75632420Y-56836763D01*
G37*
X75632420Y-56836763D02*
X76325000Y-57529343D01*
X76339142Y-57515201D01*
X76344799Y-57520858D01*
X76330657Y-57535000D01*
X76344799Y-57549142D01*
X76339142Y-57554799D01*
X76325000Y-57540657D01*
X75628962Y-58236695D01*
X75606852Y-58247491D01*
X76319343Y-57535000D01*
X75605316Y-56820973D01*
X75632420Y-56836763D01*
G36*
X96083237Y-56457420D02*
G01*
X95390657Y-57150000D01*
X95404799Y-57164142D01*
X95399142Y-57169799D01*
X95385000Y-57155657D01*
X95370858Y-57169799D01*
X95365201Y-57164142D01*
X95379343Y-57150000D01*
X95365201Y-57135858D01*
X95370858Y-57130201D01*
X95385000Y-57144343D01*
X96099027Y-56430316D01*
X96083237Y-56457420D01*
G37*
X96083237Y-56457420D02*
X95390657Y-57150000D01*
X95404799Y-57164142D01*
X95399142Y-57169799D01*
X95385000Y-57155657D01*
X95370858Y-57169799D01*
X95365201Y-57164142D01*
X95379343Y-57150000D01*
X95365201Y-57135858D01*
X95370858Y-57130201D01*
X95385000Y-57144343D01*
X96099027Y-56430316D01*
X96083237Y-56457420D01*
G36*
X142573237Y-56457420D02*
G01*
X141880657Y-57150000D01*
X141894799Y-57164142D01*
X141889142Y-57169799D01*
X141875000Y-57155657D01*
X141860858Y-57169799D01*
X141855201Y-57164142D01*
X141869343Y-57150000D01*
X141173305Y-56453962D01*
X141162509Y-56431852D01*
X141875000Y-57144343D01*
X142589027Y-56430316D01*
X142573237Y-56457420D01*
G37*
X142573237Y-56457420D02*
X141880657Y-57150000D01*
X141894799Y-57164142D01*
X141889142Y-57169799D01*
X141875000Y-57155657D01*
X141860858Y-57169799D01*
X141855201Y-57164142D01*
X141869343Y-57150000D01*
X141173305Y-56453962D01*
X141162509Y-56431852D01*
X141875000Y-57144343D01*
X142589027Y-56430316D01*
X142573237Y-56457420D01*
G36*
X98123237Y-56457420D02*
G01*
X97430657Y-57150000D01*
X97444799Y-57164142D01*
X97439142Y-57169799D01*
X97425000Y-57155657D01*
X97410858Y-57169799D01*
X97405201Y-57164142D01*
X97419343Y-57150000D01*
X96723305Y-56453962D01*
X96712509Y-56431852D01*
X97425000Y-57144343D01*
X98139027Y-56430316D01*
X98123237Y-56457420D01*
G37*
X98123237Y-56457420D02*
X97430657Y-57150000D01*
X97444799Y-57164142D01*
X97439142Y-57169799D01*
X97425000Y-57155657D01*
X97410858Y-57169799D01*
X97405201Y-57164142D01*
X97419343Y-57150000D01*
X96723305Y-56453962D01*
X96712509Y-56431852D01*
X97425000Y-57144343D01*
X98139027Y-56430316D01*
X98123237Y-56457420D01*
G36*
X118308237Y-56457420D02*
G01*
X117615657Y-57150000D01*
X117629799Y-57164142D01*
X117624142Y-57169799D01*
X117610000Y-57155657D01*
X117595858Y-57169799D01*
X117590201Y-57164142D01*
X117604343Y-57150000D01*
X117590201Y-57135858D01*
X117595858Y-57130201D01*
X117610000Y-57144343D01*
X118324027Y-56430316D01*
X118308237Y-56457420D01*
G37*
X118308237Y-56457420D02*
X117615657Y-57150000D01*
X117629799Y-57164142D01*
X117624142Y-57169799D01*
X117610000Y-57155657D01*
X117595858Y-57169799D01*
X117590201Y-57164142D01*
X117604343Y-57150000D01*
X117590201Y-57135858D01*
X117595858Y-57130201D01*
X117610000Y-57144343D01*
X118324027Y-56430316D01*
X118308237Y-56457420D01*
G36*
X120348237Y-56457420D02*
G01*
X119655657Y-57150000D01*
X119669799Y-57164142D01*
X119664142Y-57169799D01*
X119650000Y-57155657D01*
X119635858Y-57169799D01*
X119630201Y-57164142D01*
X119644343Y-57150000D01*
X118948305Y-56453962D01*
X118937509Y-56431852D01*
X119650000Y-57144343D01*
X120364027Y-56430316D01*
X120348237Y-56457420D01*
G37*
X120348237Y-56457420D02*
X119655657Y-57150000D01*
X119669799Y-57164142D01*
X119664142Y-57169799D01*
X119650000Y-57155657D01*
X119635858Y-57169799D01*
X119630201Y-57164142D01*
X119644343Y-57150000D01*
X118948305Y-56453962D01*
X118937509Y-56431852D01*
X119650000Y-57144343D01*
X120364027Y-56430316D01*
X120348237Y-56457420D01*
G36*
X140533237Y-56457420D02*
G01*
X139840657Y-57150000D01*
X139854799Y-57164142D01*
X139849142Y-57169799D01*
X139835000Y-57155657D01*
X139820858Y-57169799D01*
X139815201Y-57164142D01*
X139829343Y-57150000D01*
X139815201Y-57135858D01*
X139820858Y-57130201D01*
X139835000Y-57144343D01*
X140549027Y-56430316D01*
X140533237Y-56457420D01*
G37*
X140533237Y-56457420D02*
X139840657Y-57150000D01*
X139854799Y-57164142D01*
X139849142Y-57169799D01*
X139835000Y-57155657D01*
X139820858Y-57169799D01*
X139815201Y-57164142D01*
X139829343Y-57150000D01*
X139815201Y-57135858D01*
X139820858Y-57130201D01*
X139835000Y-57144343D01*
X140549027Y-56430316D01*
X140533237Y-56457420D01*
M02*
