G04 #@! TF.GenerationSoftware,KiCad,Pcbnew,5.1.5-52549c5~84~ubuntu18.04.1*
G04 #@! TF.CreationDate,2020-03-02T16:39:28-05:00*
G04 #@! TF.ProjectId,Etapa de potencia,45746170-6120-4646-9520-706f74656e63,rev?*
G04 #@! TF.SameCoordinates,Original*
G04 #@! TF.FileFunction,Legend,Top*
G04 #@! TF.FilePolarity,Positive*
%FSLAX46Y46*%
G04 Gerber Fmt 4.6, Leading zero omitted, Abs format (unit mm)*
G04 Created by KiCad (PCBNEW 5.1.5-52549c5~84~ubuntu18.04.1) date 2020-03-02 16:39:28*
%MOMM*%
%LPD*%
G04 APERTURE LIST*
%ADD10C,0.500000*%
%ADD11C,0.350000*%
%ADD12C,0.400000*%
%ADD13C,0.120000*%
%ADD14C,0.150000*%
%ADD15C,0.300000*%
G04 APERTURE END LIST*
D10*
X109301000Y-81954714D02*
X108301000Y-81954714D01*
X108301000Y-83526142D02*
X108301000Y-80526142D01*
X109729571Y-80526142D01*
X110872428Y-83526142D02*
X110872428Y-81526142D01*
X110872428Y-80526142D02*
X110729571Y-80669000D01*
X110872428Y-80811857D01*
X111015285Y-80669000D01*
X110872428Y-80526142D01*
X110872428Y-80811857D01*
X111872428Y-81526142D02*
X113015285Y-81526142D01*
X112301000Y-80526142D02*
X112301000Y-83097571D01*
X112443857Y-83383285D01*
X112729571Y-83526142D01*
X113015285Y-83526142D01*
X114443857Y-83526142D02*
X114158142Y-83383285D01*
X114015285Y-83240428D01*
X113872428Y-82954714D01*
X113872428Y-82097571D01*
X114015285Y-81811857D01*
X114158142Y-81669000D01*
X114443857Y-81526142D01*
X114872428Y-81526142D01*
X115158142Y-81669000D01*
X115301000Y-81811857D01*
X115443857Y-82097571D01*
X115443857Y-82954714D01*
X115301000Y-83240428D01*
X115158142Y-83383285D01*
X114872428Y-83526142D01*
X114443857Y-83526142D01*
X116301000Y-81526142D02*
X117443857Y-81526142D01*
X116729571Y-80526142D02*
X116729571Y-83097571D01*
X116872428Y-83383285D01*
X117158142Y-83526142D01*
X117443857Y-83526142D01*
X118443857Y-83526142D02*
X118443857Y-81526142D01*
X118443857Y-82097571D02*
X118586714Y-81811857D01*
X118729571Y-81669000D01*
X119015285Y-81526142D01*
X119301000Y-81526142D01*
X120729571Y-83526142D02*
X120443857Y-83383285D01*
X120301000Y-83240428D01*
X120158142Y-82954714D01*
X120158142Y-82097571D01*
X120301000Y-81811857D01*
X120443857Y-81669000D01*
X120729571Y-81526142D01*
X121158142Y-81526142D01*
X121443857Y-81669000D01*
X121586714Y-81811857D01*
X121729571Y-82097571D01*
X121729571Y-82954714D01*
X121586714Y-83240428D01*
X121443857Y-83383285D01*
X121158142Y-83526142D01*
X120729571Y-83526142D01*
X123015285Y-81526142D02*
X123015285Y-83526142D01*
X123015285Y-81811857D02*
X123158142Y-81669000D01*
X123443857Y-81526142D01*
X123872428Y-81526142D01*
X124158142Y-81669000D01*
X124301000Y-81954714D01*
X124301000Y-83526142D01*
X127586714Y-80526142D02*
X128586714Y-83526142D01*
X129586714Y-80526142D01*
X132158142Y-83526142D02*
X130443857Y-83526142D01*
X131301000Y-83526142D02*
X131301000Y-80526142D01*
X131015285Y-80954714D01*
X130729571Y-81240428D01*
X130443857Y-81383285D01*
X133443857Y-83240428D02*
X133586714Y-83383285D01*
X133443857Y-83526142D01*
X133301000Y-83383285D01*
X133443857Y-83240428D01*
X133443857Y-83526142D01*
X135443857Y-80526142D02*
X135729571Y-80526142D01*
X136015285Y-80669000D01*
X136158142Y-80811857D01*
X136301000Y-81097571D01*
X136443857Y-81669000D01*
X136443857Y-82383285D01*
X136301000Y-82954714D01*
X136158142Y-83240428D01*
X136015285Y-83383285D01*
X135729571Y-83526142D01*
X135443857Y-83526142D01*
X135158142Y-83383285D01*
X135015285Y-83240428D01*
X134872428Y-82954714D01*
X134729571Y-82383285D01*
X134729571Y-81669000D01*
X134872428Y-81097571D01*
X135015285Y-80811857D01*
X135158142Y-80669000D01*
X135443857Y-80526142D01*
X74001285Y-91457285D02*
X73858428Y-91885857D01*
X73715571Y-92028714D01*
X73429857Y-92171571D01*
X73001285Y-92171571D01*
X72715571Y-92028714D01*
X72572714Y-91885857D01*
X72429857Y-91600142D01*
X72429857Y-90457285D01*
X75429857Y-90457285D01*
X75429857Y-91457285D01*
X75287000Y-91743000D01*
X75144142Y-91885857D01*
X74858428Y-92028714D01*
X74572714Y-92028714D01*
X74287000Y-91885857D01*
X74144142Y-91743000D01*
X74001285Y-91457285D01*
X74001285Y-90457285D01*
X74429857Y-93171571D02*
X72429857Y-93885857D01*
X74429857Y-94600142D02*
X72429857Y-93885857D01*
X71715571Y-93600142D01*
X71572714Y-93457285D01*
X71429857Y-93171571D01*
X72429857Y-98028714D02*
X75429857Y-98028714D01*
X75429857Y-98743000D01*
X75287000Y-99171571D01*
X75001285Y-99457285D01*
X74715571Y-99600142D01*
X74144142Y-99743000D01*
X73715571Y-99743000D01*
X73144142Y-99600142D01*
X72858428Y-99457285D01*
X72572714Y-99171571D01*
X72429857Y-98743000D01*
X72429857Y-98028714D01*
X72429857Y-102314428D02*
X74001285Y-102314428D01*
X74287000Y-102171571D01*
X74429857Y-101885857D01*
X74429857Y-101314428D01*
X74287000Y-101028714D01*
X72572714Y-102314428D02*
X72429857Y-102028714D01*
X72429857Y-101314428D01*
X72572714Y-101028714D01*
X72858428Y-100885857D01*
X73144142Y-100885857D01*
X73429857Y-101028714D01*
X73572714Y-101314428D01*
X73572714Y-102028714D01*
X73715571Y-102314428D01*
X74429857Y-103314428D02*
X74429857Y-104457285D01*
X75429857Y-103743000D02*
X72858428Y-103743000D01*
X72572714Y-103885857D01*
X72429857Y-104171571D01*
X72429857Y-104457285D01*
X72429857Y-106743000D02*
X74001285Y-106743000D01*
X74287000Y-106600142D01*
X74429857Y-106314428D01*
X74429857Y-105743000D01*
X74287000Y-105457285D01*
X72572714Y-106743000D02*
X72429857Y-106457285D01*
X72429857Y-105743000D01*
X72572714Y-105457285D01*
X72858428Y-105314428D01*
X73144142Y-105314428D01*
X73429857Y-105457285D01*
X73572714Y-105743000D01*
X73572714Y-106457285D01*
X73715571Y-106743000D01*
X72429857Y-108600142D02*
X72572714Y-108314428D01*
X72858428Y-108171571D01*
X75429857Y-108171571D01*
X72429857Y-109743000D02*
X74429857Y-109743000D01*
X75429857Y-109743000D02*
X75287000Y-109600142D01*
X75144142Y-109743000D01*
X75287000Y-109885857D01*
X75429857Y-109743000D01*
X75144142Y-109743000D01*
X72572714Y-112457285D02*
X72429857Y-112171571D01*
X72429857Y-111600142D01*
X72572714Y-111314428D01*
X72715571Y-111171571D01*
X73001285Y-111028714D01*
X73858428Y-111028714D01*
X74144142Y-111171571D01*
X74287000Y-111314428D01*
X74429857Y-111600142D01*
X74429857Y-112171571D01*
X74287000Y-112457285D01*
X72429857Y-115028714D02*
X74001285Y-115028714D01*
X74287000Y-114885857D01*
X74429857Y-114600142D01*
X74429857Y-114028714D01*
X74287000Y-113743000D01*
X72572714Y-115028714D02*
X72429857Y-114743000D01*
X72429857Y-114028714D01*
X72572714Y-113743000D01*
X72858428Y-113600142D01*
X73144142Y-113600142D01*
X73429857Y-113743000D01*
X73572714Y-114028714D01*
X73572714Y-114743000D01*
X73715571Y-115028714D01*
D11*
X66321000Y-118495333D02*
X66321000Y-119562000D01*
X65787666Y-119028666D02*
X66854333Y-119028666D01*
X65787666Y-120962000D02*
X65787666Y-120162000D01*
X65787666Y-120562000D02*
X67187666Y-120562000D01*
X66987666Y-120428666D01*
X66854333Y-120295333D01*
X66787666Y-120162000D01*
X67054333Y-121495333D02*
X67121000Y-121562000D01*
X67187666Y-121695333D01*
X67187666Y-122028666D01*
X67121000Y-122162000D01*
X67054333Y-122228666D01*
X66921000Y-122295333D01*
X66787666Y-122295333D01*
X66587666Y-122228666D01*
X65787666Y-121428666D01*
X65787666Y-122295333D01*
X67121000Y-124695333D02*
X67187666Y-124562000D01*
X67187666Y-124362000D01*
X67121000Y-124162000D01*
X66987666Y-124028666D01*
X66854333Y-123962000D01*
X66587666Y-123895333D01*
X66387666Y-123895333D01*
X66121000Y-123962000D01*
X65987666Y-124028666D01*
X65854333Y-124162000D01*
X65787666Y-124362000D01*
X65787666Y-124495333D01*
X65854333Y-124695333D01*
X65921000Y-124762000D01*
X66387666Y-124762000D01*
X66387666Y-124495333D01*
X65787666Y-125362000D02*
X67187666Y-125362000D01*
X65787666Y-126162000D01*
X67187666Y-126162000D01*
X65787666Y-126828666D02*
X67187666Y-126828666D01*
X67187666Y-127162000D01*
X67121000Y-127362000D01*
X66987666Y-127495333D01*
X66854333Y-127562000D01*
X66587666Y-127628666D01*
X66387666Y-127628666D01*
X66121000Y-127562000D01*
X65987666Y-127495333D01*
X65854333Y-127362000D01*
X65787666Y-127162000D01*
X65787666Y-126828666D01*
X67121000Y-130028666D02*
X67187666Y-129895333D01*
X67187666Y-129695333D01*
X67121000Y-129495333D01*
X66987666Y-129362000D01*
X66854333Y-129295333D01*
X66587666Y-129228666D01*
X66387666Y-129228666D01*
X66121000Y-129295333D01*
X65987666Y-129362000D01*
X65854333Y-129495333D01*
X65787666Y-129695333D01*
X65787666Y-129828666D01*
X65854333Y-130028666D01*
X65921000Y-130095333D01*
X66387666Y-130095333D01*
X66387666Y-129828666D01*
X65787666Y-130695333D02*
X67187666Y-130695333D01*
X65787666Y-131495333D01*
X67187666Y-131495333D01*
X65787666Y-132162000D02*
X67187666Y-132162000D01*
X67187666Y-132495333D01*
X67121000Y-132695333D01*
X66987666Y-132828666D01*
X66854333Y-132895333D01*
X66587666Y-132962000D01*
X66387666Y-132962000D01*
X66121000Y-132895333D01*
X65987666Y-132828666D01*
X65854333Y-132695333D01*
X65787666Y-132495333D01*
X65787666Y-132162000D01*
X66321000Y-134628666D02*
X66321000Y-135695333D01*
X65787666Y-135162000D02*
X66854333Y-135162000D01*
X67187666Y-137028666D02*
X67187666Y-136362000D01*
X66521000Y-136295333D01*
X66587666Y-136362000D01*
X66654333Y-136495333D01*
X66654333Y-136828666D01*
X66587666Y-136962000D01*
X66521000Y-137028666D01*
X66387666Y-137095333D01*
X66054333Y-137095333D01*
X65921000Y-137028666D01*
X65854333Y-136962000D01*
X65787666Y-136828666D01*
X65787666Y-136495333D01*
X65854333Y-136362000D01*
X65921000Y-136295333D01*
D12*
X152892142Y-113616142D02*
X152892142Y-114282809D01*
X153939761Y-114282809D02*
X151939761Y-114282809D01*
X151939761Y-113330428D01*
X151939761Y-112568523D02*
X153558809Y-112568523D01*
X153749285Y-112473285D01*
X153844523Y-112378047D01*
X153939761Y-112187571D01*
X153939761Y-111806619D01*
X153844523Y-111616142D01*
X153749285Y-111520904D01*
X153558809Y-111425666D01*
X151939761Y-111425666D01*
X152892142Y-110473285D02*
X152892142Y-109806619D01*
X153939761Y-109520904D02*
X153939761Y-110473285D01*
X151939761Y-110473285D01*
X151939761Y-109520904D01*
X153939761Y-108663761D02*
X151939761Y-108663761D01*
X153939761Y-107520904D01*
X151939761Y-107520904D01*
X151939761Y-106854238D02*
X151939761Y-105711380D01*
X153939761Y-106282809D02*
X151939761Y-106282809D01*
X152892142Y-105044714D02*
X152892142Y-104378047D01*
X153939761Y-104092333D02*
X153939761Y-105044714D01*
X151939761Y-105044714D01*
X151939761Y-104092333D01*
X153749285Y-100568523D02*
X153844523Y-100663761D01*
X153939761Y-100949476D01*
X153939761Y-101139952D01*
X153844523Y-101425666D01*
X153654047Y-101616142D01*
X153463571Y-101711380D01*
X153082619Y-101806619D01*
X152796904Y-101806619D01*
X152415952Y-101711380D01*
X152225476Y-101616142D01*
X152035000Y-101425666D01*
X151939761Y-101139952D01*
X151939761Y-100949476D01*
X152035000Y-100663761D01*
X152130238Y-100568523D01*
X153368333Y-99806619D02*
X153368333Y-98854238D01*
X153939761Y-99997095D02*
X151939761Y-99330428D01*
X153939761Y-98663761D01*
X153939761Y-96854238D02*
X152987380Y-97520904D01*
X153939761Y-97997095D02*
X151939761Y-97997095D01*
X151939761Y-97235190D01*
X152035000Y-97044714D01*
X152130238Y-96949476D01*
X152320714Y-96854238D01*
X152606428Y-96854238D01*
X152796904Y-96949476D01*
X152892142Y-97044714D01*
X152987380Y-97235190D01*
X152987380Y-97997095D01*
X152035000Y-94949476D02*
X151939761Y-95139952D01*
X151939761Y-95425666D01*
X152035000Y-95711380D01*
X152225476Y-95901857D01*
X152415952Y-95997095D01*
X152796904Y-96092333D01*
X153082619Y-96092333D01*
X153463571Y-95997095D01*
X153654047Y-95901857D01*
X153844523Y-95711380D01*
X153939761Y-95425666D01*
X153939761Y-95235190D01*
X153844523Y-94949476D01*
X153749285Y-94854238D01*
X153082619Y-94854238D01*
X153082619Y-95235190D01*
X153368333Y-94092333D02*
X153368333Y-93139952D01*
X153939761Y-94282809D02*
X151939761Y-93616142D01*
X153939761Y-92949476D01*
D13*
X148270000Y-138240000D02*
X131630000Y-138240000D01*
X148270000Y-138240000D02*
X148270000Y-130535000D01*
X131630000Y-138240000D02*
X131630000Y-130535000D01*
X148270000Y-122360000D02*
X131630000Y-122360000D01*
X148270000Y-122360000D02*
X148270000Y-128035000D01*
X131630000Y-122360000D02*
X131630000Y-128035000D01*
X148510000Y-130675000D02*
X149010000Y-130175000D01*
X149010000Y-130175000D02*
X149010000Y-131175000D01*
X149010000Y-131175000D02*
X148510000Y-130675000D01*
X106850000Y-131175000D02*
X106350000Y-130675000D01*
X106850000Y-130175000D02*
X106850000Y-131175000D01*
X106350000Y-130675000D02*
X106850000Y-130175000D01*
X89470000Y-122360000D02*
X89470000Y-128035000D01*
X106110000Y-122360000D02*
X106110000Y-128035000D01*
X106110000Y-122360000D02*
X89470000Y-122360000D01*
X89470000Y-138240000D02*
X89470000Y-130535000D01*
X106110000Y-138240000D02*
X106110000Y-130535000D01*
X106110000Y-138240000D02*
X89470000Y-138240000D01*
X137845000Y-93235000D02*
X150445000Y-93235000D01*
X137845000Y-113535000D02*
X137845000Y-93235000D01*
X138795000Y-113535000D02*
X137845000Y-113535000D01*
X138495000Y-114085000D02*
X138795000Y-113535000D01*
X140545000Y-114085000D02*
X138495000Y-114085000D01*
X140245000Y-113535000D02*
X140545000Y-114085000D01*
X145645000Y-113535000D02*
X140245000Y-113535000D01*
X145395000Y-114035000D02*
X145645000Y-113535000D01*
X150445000Y-114035000D02*
X145395000Y-114035000D01*
X150445000Y-93235000D02*
X150445000Y-114035000D01*
X137170000Y-66025000D02*
X137170000Y-66505000D01*
X147310000Y-66025000D02*
X137170000Y-66025000D01*
X147310000Y-66505000D02*
X147310000Y-66025000D01*
X137170000Y-69865000D02*
X137170000Y-69385000D01*
X147310000Y-69865000D02*
X137170000Y-69865000D01*
X147310000Y-69385000D02*
X147310000Y-69865000D01*
X95775000Y-116900000D02*
X97425000Y-116900000D01*
X95775000Y-81220000D02*
X95775000Y-116900000D01*
X101075000Y-81220000D02*
X95775000Y-81220000D01*
X101075000Y-116900000D02*
X101075000Y-81220000D01*
X99425000Y-116900000D02*
X101075000Y-116900000D01*
X97425000Y-116900000D02*
G75*
G02X99425000Y-116900000I1000000J0D01*
G01*
X127980000Y-69155000D02*
X126730000Y-69155000D01*
X127980000Y-76895000D02*
X127980000Y-69155000D01*
X123480000Y-76895000D02*
X127980000Y-76895000D01*
X123480000Y-69155000D02*
X123480000Y-76895000D01*
X124730000Y-69155000D02*
X123480000Y-69155000D01*
X126730000Y-69155000D02*
G75*
G02X124730000Y-69155000I-1000000J0D01*
G01*
X130405000Y-86910000D02*
X107085000Y-86910000D01*
X132945000Y-93810000D02*
X132945000Y-119240000D01*
X107085000Y-86910000D02*
X107085000Y-119240000D01*
X109205000Y-121370000D02*
X130815000Y-121370000D01*
D14*
G36*
X133985000Y-113665000D02*
G01*
X133985000Y-112395000D01*
X133350000Y-113030000D01*
X133985000Y-113665000D01*
G37*
X133985000Y-113665000D02*
X133985000Y-112395000D01*
X133350000Y-113030000D01*
X133985000Y-113665000D01*
D13*
X132945000Y-93810000D02*
X130405000Y-93810000D01*
X130405000Y-93810000D02*
X130405000Y-86910000D01*
X132945000Y-119240000D02*
G75*
G02X130815000Y-121370000I-2130000J0D01*
G01*
X109215000Y-121370000D02*
G75*
G02X107085000Y-119240000I0J2130000D01*
G01*
X81230000Y-117525000D02*
X81230000Y-138325000D01*
X81230000Y-138325000D02*
X76180000Y-138325000D01*
X76180000Y-138325000D02*
X76430000Y-137825000D01*
X76430000Y-137825000D02*
X71030000Y-137825000D01*
X71030000Y-137825000D02*
X71330000Y-138375000D01*
X71330000Y-138375000D02*
X69280000Y-138375000D01*
X69280000Y-138375000D02*
X69580000Y-137825000D01*
X69580000Y-137825000D02*
X68630000Y-137825000D01*
X68630000Y-137825000D02*
X68630000Y-117525000D01*
X68630000Y-117525000D02*
X81230000Y-117525000D01*
X88585000Y-49085000D02*
X105225000Y-49085000D01*
X88585000Y-49085000D02*
X88585000Y-56790000D01*
X105225000Y-49085000D02*
X105225000Y-56790000D01*
X88585000Y-64965000D02*
X105225000Y-64965000D01*
X88585000Y-64965000D02*
X88585000Y-59290000D01*
X105225000Y-64965000D02*
X105225000Y-59290000D01*
X88345000Y-56650000D02*
X87845000Y-57150000D01*
X87845000Y-57150000D02*
X87845000Y-56150000D01*
X87845000Y-56150000D02*
X88345000Y-56650000D01*
X75200000Y-88685000D02*
X75700000Y-88185000D01*
X76200000Y-88685000D02*
X75200000Y-88685000D01*
X75700000Y-88185000D02*
X76200000Y-88685000D01*
X84015000Y-71305000D02*
X78340000Y-71305000D01*
X84015000Y-87945000D02*
X78340000Y-87945000D01*
X84015000Y-87945000D02*
X84015000Y-71305000D01*
X68135000Y-71305000D02*
X75840000Y-71305000D01*
X68135000Y-87945000D02*
X75840000Y-87945000D01*
X68135000Y-87945000D02*
X68135000Y-71305000D01*
X133035000Y-49085000D02*
X149675000Y-49085000D01*
X133035000Y-49085000D02*
X133035000Y-56790000D01*
X149675000Y-49085000D02*
X149675000Y-56790000D01*
X133035000Y-64965000D02*
X149675000Y-64965000D01*
X133035000Y-64965000D02*
X133035000Y-59290000D01*
X149675000Y-64965000D02*
X149675000Y-59290000D01*
X132795000Y-56650000D02*
X132295000Y-57150000D01*
X132295000Y-57150000D02*
X132295000Y-56150000D01*
X132295000Y-56150000D02*
X132795000Y-56650000D01*
X110070000Y-56150000D02*
X110570000Y-56650000D01*
X110070000Y-57150000D02*
X110070000Y-56150000D01*
X110570000Y-56650000D02*
X110070000Y-57150000D01*
X127450000Y-64965000D02*
X127450000Y-59290000D01*
X110810000Y-64965000D02*
X110810000Y-59290000D01*
X110810000Y-64965000D02*
X127450000Y-64965000D01*
X127450000Y-49085000D02*
X127450000Y-56790000D01*
X110810000Y-49085000D02*
X110810000Y-56790000D01*
X110810000Y-49085000D02*
X127450000Y-49085000D01*
X68260000Y-66375000D02*
X68260000Y-49735000D01*
X68260000Y-66375000D02*
X75965000Y-66375000D01*
X68260000Y-49735000D02*
X75965000Y-49735000D01*
X84140000Y-66375000D02*
X84140000Y-49735000D01*
X84140000Y-66375000D02*
X78465000Y-66375000D01*
X84140000Y-49735000D02*
X78465000Y-49735000D01*
X75825000Y-66615000D02*
X76325000Y-67115000D01*
X76325000Y-67115000D02*
X75325000Y-67115000D01*
X75325000Y-67115000D02*
X75825000Y-66615000D01*
X128055000Y-131175000D02*
X127555000Y-130675000D01*
X128055000Y-130175000D02*
X128055000Y-131175000D01*
X127555000Y-130675000D02*
X128055000Y-130175000D01*
X110675000Y-122360000D02*
X110675000Y-128035000D01*
X127315000Y-122360000D02*
X127315000Y-128035000D01*
X127315000Y-122360000D02*
X110675000Y-122360000D01*
X110675000Y-138240000D02*
X110675000Y-130535000D01*
X127315000Y-138240000D02*
X127315000Y-130535000D01*
X127315000Y-138240000D02*
X110675000Y-138240000D01*
X83455000Y-116900000D02*
G75*
G02X85455000Y-116900000I1000000J0D01*
G01*
X85455000Y-116900000D02*
X86705000Y-116900000D01*
X86705000Y-116900000D02*
X86705000Y-96460000D01*
X86705000Y-96460000D02*
X82205000Y-96460000D01*
X82205000Y-96460000D02*
X82205000Y-116900000D01*
X82205000Y-116900000D02*
X83455000Y-116900000D01*
X90745000Y-71410000D02*
X90745000Y-72660000D01*
X111185000Y-71410000D02*
X90745000Y-71410000D01*
X111185000Y-75910000D02*
X111185000Y-71410000D01*
X90745000Y-75910000D02*
X111185000Y-75910000D01*
X90745000Y-74660000D02*
X90745000Y-75910000D01*
X90745000Y-72660000D02*
G75*
G02X90745000Y-74660000I0J-1000000D01*
G01*
X139660000Y-87115000D02*
X149900000Y-87115000D01*
X139660000Y-71225000D02*
X149900000Y-71225000D01*
X139660000Y-71225000D02*
X139660000Y-87115000D01*
X149900000Y-71225000D02*
X149900000Y-87115000D01*
X142240000Y-87115000D02*
X142240000Y-89655000D01*
X144780000Y-87115000D02*
X144780000Y-89655000D01*
X147320000Y-87115000D02*
X147320000Y-89655000D01*
D14*
X145804142Y-121102380D02*
X145804142Y-120102380D01*
X146042238Y-120102380D01*
X146185095Y-120150000D01*
X146280333Y-120245238D01*
X146327952Y-120340476D01*
X146375571Y-120530952D01*
X146375571Y-120673809D01*
X146327952Y-120864285D01*
X146280333Y-120959523D01*
X146185095Y-121054761D01*
X146042238Y-121102380D01*
X145804142Y-121102380D01*
X146804142Y-121102380D02*
X146804142Y-120102380D01*
X146804142Y-120578571D02*
X147375571Y-120578571D01*
X147375571Y-121102380D02*
X147375571Y-120102380D01*
X147708904Y-120102380D02*
X148280333Y-120102380D01*
X147994619Y-121102380D02*
X147994619Y-120102380D01*
X148566047Y-120197619D02*
X148613666Y-120150000D01*
X148708904Y-120102380D01*
X148947000Y-120102380D01*
X149042238Y-120150000D01*
X149089857Y-120197619D01*
X149137476Y-120292857D01*
X149137476Y-120388095D01*
X149089857Y-120530952D01*
X148518428Y-121102380D01*
X149137476Y-121102380D01*
X103235285Y-121308761D02*
X103378142Y-121356380D01*
X103616238Y-121356380D01*
X103711476Y-121308761D01*
X103759095Y-121261142D01*
X103806714Y-121165904D01*
X103806714Y-121070666D01*
X103759095Y-120975428D01*
X103711476Y-120927809D01*
X103616238Y-120880190D01*
X103425761Y-120832571D01*
X103330523Y-120784952D01*
X103282904Y-120737333D01*
X103235285Y-120642095D01*
X103235285Y-120546857D01*
X103282904Y-120451619D01*
X103330523Y-120404000D01*
X103425761Y-120356380D01*
X103663857Y-120356380D01*
X103806714Y-120404000D01*
X104235285Y-121356380D02*
X104235285Y-120356380D01*
X104235285Y-120832571D02*
X104806714Y-120832571D01*
X104806714Y-121356380D02*
X104806714Y-120356380D01*
X105806714Y-121356380D02*
X105235285Y-121356380D01*
X105521000Y-121356380D02*
X105521000Y-120356380D01*
X105425761Y-120499238D01*
X105330523Y-120594476D01*
X105235285Y-120642095D01*
X135977380Y-94186333D02*
X136691666Y-94186333D01*
X136834523Y-94233952D01*
X136929761Y-94329190D01*
X136977380Y-94472047D01*
X136977380Y-94567285D01*
X136310714Y-93281571D02*
X136977380Y-93281571D01*
X135929761Y-93519666D02*
X136644047Y-93757761D01*
X136644047Y-93138714D01*
X135977333Y-71445380D02*
X135644000Y-70969190D01*
X135405904Y-71445380D02*
X135405904Y-70445380D01*
X135786857Y-70445380D01*
X135882095Y-70493000D01*
X135929714Y-70540619D01*
X135977333Y-70635857D01*
X135977333Y-70778714D01*
X135929714Y-70873952D01*
X135882095Y-70921571D01*
X135786857Y-70969190D01*
X135405904Y-70969190D01*
X136834476Y-70445380D02*
X136644000Y-70445380D01*
X136548761Y-70493000D01*
X136501142Y-70540619D01*
X136405904Y-70683476D01*
X136358285Y-70873952D01*
X136358285Y-71254904D01*
X136405904Y-71350142D01*
X136453523Y-71397761D01*
X136548761Y-71445380D01*
X136739238Y-71445380D01*
X136834476Y-71397761D01*
X136882095Y-71350142D01*
X136929714Y-71254904D01*
X136929714Y-71016809D01*
X136882095Y-70921571D01*
X136834476Y-70873952D01*
X136739238Y-70826333D01*
X136548761Y-70826333D01*
X136453523Y-70873952D01*
X136405904Y-70921571D01*
X136358285Y-71016809D01*
X103887380Y-117381904D02*
X104696904Y-117381904D01*
X104792142Y-117334285D01*
X104839761Y-117286666D01*
X104887380Y-117191428D01*
X104887380Y-117000952D01*
X104839761Y-116905714D01*
X104792142Y-116858095D01*
X104696904Y-116810476D01*
X103887380Y-116810476D01*
X104887380Y-115810476D02*
X104887380Y-116381904D01*
X104887380Y-116096190D02*
X103887380Y-116096190D01*
X104030238Y-116191428D01*
X104125476Y-116286666D01*
X104173095Y-116381904D01*
X124968095Y-67607380D02*
X124968095Y-68416904D01*
X125015714Y-68512142D01*
X125063333Y-68559761D01*
X125158571Y-68607380D01*
X125349047Y-68607380D01*
X125444285Y-68559761D01*
X125491904Y-68512142D01*
X125539523Y-68416904D01*
X125539523Y-67607380D01*
X126444285Y-67940714D02*
X126444285Y-68607380D01*
X126206190Y-67559761D02*
X125968095Y-68274047D01*
X126587142Y-68274047D01*
X108683095Y-85482380D02*
X108683095Y-86291904D01*
X108730714Y-86387142D01*
X108778333Y-86434761D01*
X108873571Y-86482380D01*
X109064047Y-86482380D01*
X109159285Y-86434761D01*
X109206904Y-86387142D01*
X109254523Y-86291904D01*
X109254523Y-85482380D01*
X110206904Y-85482380D02*
X109730714Y-85482380D01*
X109683095Y-85958571D01*
X109730714Y-85910952D01*
X109825952Y-85863333D01*
X110064047Y-85863333D01*
X110159285Y-85910952D01*
X110206904Y-85958571D01*
X110254523Y-86053809D01*
X110254523Y-86291904D01*
X110206904Y-86387142D01*
X110159285Y-86434761D01*
X110064047Y-86482380D01*
X109825952Y-86482380D01*
X109730714Y-86434761D01*
X109683095Y-86387142D01*
X81532380Y-128008333D02*
X82246666Y-128008333D01*
X82389523Y-128055952D01*
X82484761Y-128151190D01*
X82532380Y-128294047D01*
X82532380Y-128389285D01*
X82532380Y-127008333D02*
X82532380Y-127579761D01*
X82532380Y-127294047D02*
X81532380Y-127294047D01*
X81675238Y-127389285D01*
X81770476Y-127484523D01*
X81818095Y-127579761D01*
D15*
X91865285Y-46525571D02*
X91151000Y-46525571D01*
X91151000Y-45025571D01*
X93008142Y-45525571D02*
X93008142Y-46525571D01*
X92365285Y-45525571D02*
X92365285Y-46311285D01*
X92436714Y-46454142D01*
X92579571Y-46525571D01*
X92793857Y-46525571D01*
X92936714Y-46454142D01*
X93008142Y-46382714D01*
X94365285Y-46454142D02*
X94222428Y-46525571D01*
X93936714Y-46525571D01*
X93793857Y-46454142D01*
X93722428Y-46382714D01*
X93651000Y-46239857D01*
X93651000Y-45811285D01*
X93722428Y-45668428D01*
X93793857Y-45597000D01*
X93936714Y-45525571D01*
X94222428Y-45525571D01*
X94365285Y-45597000D01*
X95579571Y-46454142D02*
X95436714Y-46525571D01*
X95151000Y-46525571D01*
X95008142Y-46454142D01*
X94936714Y-46311285D01*
X94936714Y-45739857D01*
X95008142Y-45597000D01*
X95151000Y-45525571D01*
X95436714Y-45525571D01*
X95579571Y-45597000D01*
X95651000Y-45739857D01*
X95651000Y-45882714D01*
X94936714Y-46025571D01*
X96222428Y-46454142D02*
X96365285Y-46525571D01*
X96651000Y-46525571D01*
X96793857Y-46454142D01*
X96865285Y-46311285D01*
X96865285Y-46239857D01*
X96793857Y-46097000D01*
X96651000Y-46025571D01*
X96436714Y-46025571D01*
X96293857Y-45954142D01*
X96222428Y-45811285D01*
X96222428Y-45739857D01*
X96293857Y-45597000D01*
X96436714Y-45525571D01*
X96651000Y-45525571D01*
X96793857Y-45597000D01*
X99436714Y-46525571D02*
X98579571Y-46525571D01*
X99008142Y-46525571D02*
X99008142Y-45025571D01*
X98865285Y-45239857D01*
X98722428Y-45382714D01*
X98579571Y-45454142D01*
X100079571Y-45954142D02*
X101222428Y-45954142D01*
X102579571Y-45525571D02*
X102579571Y-46525571D01*
X102222428Y-44954142D02*
X101865285Y-46025571D01*
X102793857Y-46025571D01*
X65218571Y-88057571D02*
X66718571Y-87557571D01*
X65218571Y-87057571D01*
X66647142Y-85986142D02*
X66718571Y-86129000D01*
X66718571Y-86414714D01*
X66647142Y-86557571D01*
X66504285Y-86629000D01*
X65932857Y-86629000D01*
X65790000Y-86557571D01*
X65718571Y-86414714D01*
X65718571Y-86129000D01*
X65790000Y-85986142D01*
X65932857Y-85914714D01*
X66075714Y-85914714D01*
X66218571Y-86629000D01*
X65718571Y-85271857D02*
X66718571Y-85271857D01*
X65861428Y-85271857D02*
X65790000Y-85200428D01*
X65718571Y-85057571D01*
X65718571Y-84843285D01*
X65790000Y-84700428D01*
X65932857Y-84629000D01*
X66718571Y-84629000D01*
X65718571Y-84129000D02*
X65718571Y-83557571D01*
X65218571Y-83914714D02*
X66504285Y-83914714D01*
X66647142Y-83843285D01*
X66718571Y-83700428D01*
X66718571Y-83557571D01*
X66718571Y-83057571D02*
X65718571Y-83057571D01*
X65218571Y-83057571D02*
X65290000Y-83129000D01*
X65361428Y-83057571D01*
X65290000Y-82986142D01*
X65218571Y-83057571D01*
X65361428Y-83057571D01*
X66718571Y-82129000D02*
X66647142Y-82271857D01*
X66504285Y-82343285D01*
X65218571Y-82343285D01*
X66718571Y-80914714D02*
X65932857Y-80914714D01*
X65790000Y-80986142D01*
X65718571Y-81129000D01*
X65718571Y-81414714D01*
X65790000Y-81557571D01*
X66647142Y-80914714D02*
X66718571Y-81057571D01*
X66718571Y-81414714D01*
X66647142Y-81557571D01*
X66504285Y-81629000D01*
X66361428Y-81629000D01*
X66218571Y-81557571D01*
X66147142Y-81414714D01*
X66147142Y-81057571D01*
X66075714Y-80914714D01*
X66718571Y-79557571D02*
X65218571Y-79557571D01*
X66647142Y-79557571D02*
X66718571Y-79700428D01*
X66718571Y-79986142D01*
X66647142Y-80129000D01*
X66575714Y-80200428D01*
X66432857Y-80271857D01*
X66004285Y-80271857D01*
X65861428Y-80200428D01*
X65790000Y-80129000D01*
X65718571Y-79986142D01*
X65718571Y-79700428D01*
X65790000Y-79557571D01*
X66718571Y-78629000D02*
X66647142Y-78771857D01*
X66575714Y-78843285D01*
X66432857Y-78914714D01*
X66004285Y-78914714D01*
X65861428Y-78843285D01*
X65790000Y-78771857D01*
X65718571Y-78629000D01*
X65718571Y-78414714D01*
X65790000Y-78271857D01*
X65861428Y-78200428D01*
X66004285Y-78129000D01*
X66432857Y-78129000D01*
X66575714Y-78200428D01*
X66647142Y-78271857D01*
X66718571Y-78414714D01*
X66718571Y-78629000D01*
X66718571Y-77486142D02*
X65718571Y-77486142D01*
X66004285Y-77486142D02*
X65861428Y-77414714D01*
X65790000Y-77343285D01*
X65718571Y-77200428D01*
X65718571Y-77057571D01*
X66718571Y-74629000D02*
X66718571Y-75486142D01*
X66718571Y-75057571D02*
X65218571Y-75057571D01*
X65432857Y-75200428D01*
X65575714Y-75343285D01*
X65647142Y-75486142D01*
X66147142Y-73986142D02*
X66147142Y-72843285D01*
X65718571Y-71486142D02*
X66718571Y-71486142D01*
X65147142Y-71843285D02*
X66218571Y-72200428D01*
X66218571Y-71271857D01*
X133601000Y-46652571D02*
X133601000Y-45152571D01*
X133601000Y-45866857D02*
X134458142Y-45866857D01*
X134458142Y-46652571D02*
X134458142Y-45152571D01*
X135172428Y-46652571D02*
X135172428Y-45152571D01*
X135529571Y-45152571D01*
X135743857Y-45224000D01*
X135886714Y-45366857D01*
X135958142Y-45509714D01*
X136029571Y-45795428D01*
X136029571Y-46009714D01*
X135958142Y-46295428D01*
X135886714Y-46438285D01*
X135743857Y-46581142D01*
X135529571Y-46652571D01*
X135172428Y-46652571D01*
X137172428Y-45866857D02*
X136672428Y-45866857D01*
X136672428Y-46652571D02*
X136672428Y-45152571D01*
X137386714Y-45152571D01*
X140315285Y-46652571D02*
X140243857Y-46652571D01*
X140101000Y-46581142D01*
X139886714Y-46366857D01*
X139529571Y-45938285D01*
X139386714Y-45724000D01*
X139315285Y-45509714D01*
X139315285Y-45366857D01*
X139386714Y-45224000D01*
X139529571Y-45152571D01*
X139601000Y-45152571D01*
X139743857Y-45224000D01*
X139815285Y-45366857D01*
X139815285Y-45438285D01*
X139743857Y-45581142D01*
X139672428Y-45652571D01*
X139243857Y-45938285D01*
X139172428Y-46009714D01*
X139101000Y-46152571D01*
X139101000Y-46366857D01*
X139172428Y-46509714D01*
X139243857Y-46581142D01*
X139386714Y-46652571D01*
X139601000Y-46652571D01*
X139743857Y-46581142D01*
X139815285Y-46509714D01*
X140029571Y-46224000D01*
X140101000Y-46009714D01*
X140101000Y-45866857D01*
X142029571Y-46581142D02*
X142243857Y-46652571D01*
X142601000Y-46652571D01*
X142743857Y-46581142D01*
X142815285Y-46509714D01*
X142886714Y-46366857D01*
X142886714Y-46224000D01*
X142815285Y-46081142D01*
X142743857Y-46009714D01*
X142601000Y-45938285D01*
X142315285Y-45866857D01*
X142172428Y-45795428D01*
X142101000Y-45724000D01*
X142029571Y-45581142D01*
X142029571Y-45438285D01*
X142101000Y-45295428D01*
X142172428Y-45224000D01*
X142315285Y-45152571D01*
X142672428Y-45152571D01*
X142886714Y-45224000D01*
X143529571Y-46652571D02*
X143529571Y-45152571D01*
X143529571Y-45866857D02*
X144386714Y-45866857D01*
X144386714Y-46652571D02*
X144386714Y-45152571D01*
X145886714Y-46652571D02*
X145029571Y-46652571D01*
X145458142Y-46652571D02*
X145458142Y-45152571D01*
X145315285Y-45366857D01*
X145172428Y-45509714D01*
X145029571Y-45581142D01*
X146529571Y-46081142D02*
X147672428Y-46081142D01*
X148315285Y-45295428D02*
X148386714Y-45224000D01*
X148529571Y-45152571D01*
X148886714Y-45152571D01*
X149029571Y-45224000D01*
X149101000Y-45295428D01*
X149172428Y-45438285D01*
X149172428Y-45581142D01*
X149101000Y-45795428D01*
X148243857Y-46652571D01*
X149172428Y-46652571D01*
X108221285Y-45152571D02*
X108721285Y-46652571D01*
X109221285Y-45152571D01*
X110292714Y-46581142D02*
X110149857Y-46652571D01*
X109864142Y-46652571D01*
X109721285Y-46581142D01*
X109649857Y-46438285D01*
X109649857Y-45866857D01*
X109721285Y-45724000D01*
X109864142Y-45652571D01*
X110149857Y-45652571D01*
X110292714Y-45724000D01*
X110364142Y-45866857D01*
X110364142Y-46009714D01*
X109649857Y-46152571D01*
X111007000Y-45652571D02*
X111007000Y-46652571D01*
X111007000Y-45795428D02*
X111078428Y-45724000D01*
X111221285Y-45652571D01*
X111435571Y-45652571D01*
X111578428Y-45724000D01*
X111649857Y-45866857D01*
X111649857Y-46652571D01*
X112435571Y-46652571D02*
X112721285Y-46652571D01*
X112864142Y-46581142D01*
X112935571Y-46509714D01*
X113078428Y-46295428D01*
X113149857Y-46009714D01*
X113149857Y-45438285D01*
X113078428Y-45295428D01*
X113007000Y-45224000D01*
X112864142Y-45152571D01*
X112578428Y-45152571D01*
X112435571Y-45224000D01*
X112364142Y-45295428D01*
X112292714Y-45438285D01*
X112292714Y-45795428D01*
X112364142Y-45938285D01*
X112435571Y-46009714D01*
X112578428Y-46081142D01*
X112864142Y-46081142D01*
X113007000Y-46009714D01*
X113078428Y-45938285D01*
X113149857Y-45795428D01*
X113792714Y-46081142D02*
X114935571Y-46081142D01*
X116435571Y-46652571D02*
X115578428Y-46652571D01*
X116007000Y-46652571D02*
X116007000Y-45152571D01*
X115864142Y-45366857D01*
X115721285Y-45509714D01*
X115578428Y-45581142D01*
X117364142Y-45152571D02*
X117507000Y-45152571D01*
X117649857Y-45224000D01*
X117721285Y-45295428D01*
X117792714Y-45438285D01*
X117864142Y-45724000D01*
X117864142Y-46081142D01*
X117792714Y-46366857D01*
X117721285Y-46509714D01*
X117649857Y-46581142D01*
X117507000Y-46652571D01*
X117364142Y-46652571D01*
X117221285Y-46581142D01*
X117149857Y-46509714D01*
X117078428Y-46366857D01*
X117007000Y-46081142D01*
X117007000Y-45724000D01*
X117078428Y-45438285D01*
X117149857Y-45295428D01*
X117221285Y-45224000D01*
X117364142Y-45152571D01*
X120864142Y-46652571D02*
X120792714Y-46652571D01*
X120649857Y-46581142D01*
X120435571Y-46366857D01*
X120078428Y-45938285D01*
X119935571Y-45724000D01*
X119864142Y-45509714D01*
X119864142Y-45366857D01*
X119935571Y-45224000D01*
X120078428Y-45152571D01*
X120149857Y-45152571D01*
X120292714Y-45224000D01*
X120364142Y-45366857D01*
X120364142Y-45438285D01*
X120292714Y-45581142D01*
X120221285Y-45652571D01*
X119792714Y-45938285D01*
X119721285Y-46009714D01*
X119649857Y-46152571D01*
X119649857Y-46366857D01*
X119721285Y-46509714D01*
X119792714Y-46581142D01*
X119935571Y-46652571D01*
X120149857Y-46652571D01*
X120292714Y-46581142D01*
X120364142Y-46509714D01*
X120578428Y-46224000D01*
X120649857Y-46009714D01*
X120649857Y-45866857D01*
X122649857Y-46652571D02*
X122649857Y-45152571D01*
X123149857Y-46224000D01*
X123649857Y-45152571D01*
X123649857Y-46652571D01*
X124578428Y-46652571D02*
X124435571Y-46581142D01*
X124364142Y-46509714D01*
X124292714Y-46366857D01*
X124292714Y-45938285D01*
X124364142Y-45795428D01*
X124435571Y-45724000D01*
X124578428Y-45652571D01*
X124792714Y-45652571D01*
X124935571Y-45724000D01*
X125007000Y-45795428D01*
X125078428Y-45938285D01*
X125078428Y-46366857D01*
X125007000Y-46509714D01*
X124935571Y-46581142D01*
X124792714Y-46652571D01*
X124578428Y-46652571D01*
X125507000Y-45652571D02*
X126078428Y-45652571D01*
X125721285Y-45152571D02*
X125721285Y-46438285D01*
X125792714Y-46581142D01*
X125935571Y-46652571D01*
X126078428Y-46652571D01*
X127364142Y-46652571D02*
X126507000Y-46652571D01*
X126935571Y-46652571D02*
X126935571Y-45152571D01*
X126792714Y-45366857D01*
X126649857Y-45509714D01*
X126507000Y-45581142D01*
X128007000Y-46081142D02*
X129149857Y-46081142D01*
X129792714Y-45295428D02*
X129864142Y-45224000D01*
X130007000Y-45152571D01*
X130364142Y-45152571D01*
X130507000Y-45224000D01*
X130578428Y-45295428D01*
X130649857Y-45438285D01*
X130649857Y-45581142D01*
X130578428Y-45795428D01*
X129721285Y-46652571D01*
X130649857Y-46652571D01*
X65091571Y-66467571D02*
X66591571Y-65967571D01*
X65091571Y-65467571D01*
X66520142Y-64396142D02*
X66591571Y-64538999D01*
X66591571Y-64824714D01*
X66520142Y-64967571D01*
X66377285Y-65038999D01*
X65805857Y-65038999D01*
X65663000Y-64967571D01*
X65591571Y-64824714D01*
X65591571Y-64538999D01*
X65663000Y-64396142D01*
X65805857Y-64324714D01*
X65948714Y-64324714D01*
X66091571Y-65038999D01*
X65591571Y-63681857D02*
X66591571Y-63681857D01*
X65734428Y-63681857D02*
X65663000Y-63610428D01*
X65591571Y-63467571D01*
X65591571Y-63253285D01*
X65663000Y-63110428D01*
X65805857Y-63038999D01*
X66591571Y-63038999D01*
X65591571Y-62539000D02*
X65591571Y-61967571D01*
X65091571Y-62324714D02*
X66377285Y-62324714D01*
X66520142Y-62253285D01*
X66591571Y-62110428D01*
X66591571Y-61967571D01*
X66591571Y-61467571D02*
X65591571Y-61467571D01*
X65091571Y-61467571D02*
X65163000Y-61539000D01*
X65234428Y-61467571D01*
X65163000Y-61396142D01*
X65091571Y-61467571D01*
X65234428Y-61467571D01*
X66591571Y-60539000D02*
X66520142Y-60681857D01*
X66377285Y-60753285D01*
X65091571Y-60753285D01*
X66591571Y-59324714D02*
X65805857Y-59324714D01*
X65663000Y-59396142D01*
X65591571Y-59539000D01*
X65591571Y-59824714D01*
X65663000Y-59967571D01*
X66520142Y-59324714D02*
X66591571Y-59467571D01*
X66591571Y-59824714D01*
X66520142Y-59967571D01*
X66377285Y-60039000D01*
X66234428Y-60039000D01*
X66091571Y-59967571D01*
X66020142Y-59824714D01*
X66020142Y-59467571D01*
X65948714Y-59324714D01*
X66591571Y-57967571D02*
X65091571Y-57967571D01*
X66520142Y-57967571D02*
X66591571Y-58110428D01*
X66591571Y-58396142D01*
X66520142Y-58539000D01*
X66448714Y-58610428D01*
X66305857Y-58681857D01*
X65877285Y-58681857D01*
X65734428Y-58610428D01*
X65663000Y-58539000D01*
X65591571Y-58396142D01*
X65591571Y-58110428D01*
X65663000Y-57967571D01*
X66591571Y-57039000D02*
X66520142Y-57181857D01*
X66448714Y-57253285D01*
X66305857Y-57324714D01*
X65877285Y-57324714D01*
X65734428Y-57253285D01*
X65663000Y-57181857D01*
X65591571Y-57039000D01*
X65591571Y-56824714D01*
X65663000Y-56681857D01*
X65734428Y-56610428D01*
X65877285Y-56539000D01*
X66305857Y-56539000D01*
X66448714Y-56610428D01*
X66520142Y-56681857D01*
X66591571Y-56824714D01*
X66591571Y-57039000D01*
X66591571Y-55896142D02*
X65591571Y-55896142D01*
X65877285Y-55896142D02*
X65734428Y-55824714D01*
X65663000Y-55753285D01*
X65591571Y-55610428D01*
X65591571Y-55467571D01*
X65091571Y-53110428D02*
X65091571Y-53824714D01*
X65805857Y-53896142D01*
X65734428Y-53824714D01*
X65663000Y-53681857D01*
X65663000Y-53324714D01*
X65734428Y-53181857D01*
X65805857Y-53110428D01*
X65948714Y-53039000D01*
X66305857Y-53039000D01*
X66448714Y-53110428D01*
X66520142Y-53181857D01*
X66591571Y-53324714D01*
X66591571Y-53681857D01*
X66520142Y-53824714D01*
X66448714Y-53896142D01*
X66020142Y-52396142D02*
X66020142Y-51253285D01*
X65734428Y-50324714D02*
X65663000Y-50467571D01*
X65591571Y-50539000D01*
X65448714Y-50610428D01*
X65377285Y-50610428D01*
X65234428Y-50539000D01*
X65163000Y-50467571D01*
X65091571Y-50324714D01*
X65091571Y-50039000D01*
X65163000Y-49896142D01*
X65234428Y-49824714D01*
X65377285Y-49753285D01*
X65448714Y-49753285D01*
X65591571Y-49824714D01*
X65663000Y-49896142D01*
X65734428Y-50039000D01*
X65734428Y-50324714D01*
X65805857Y-50467571D01*
X65877285Y-50539000D01*
X66020142Y-50610428D01*
X66305857Y-50610428D01*
X66448714Y-50539000D01*
X66520142Y-50467571D01*
X66591571Y-50324714D01*
X66591571Y-50039000D01*
X66520142Y-49896142D01*
X66448714Y-49824714D01*
X66305857Y-49753285D01*
X66020142Y-49753285D01*
X65877285Y-49824714D01*
X65805857Y-49896142D01*
X65734428Y-50039000D01*
D14*
X134755142Y-120975380D02*
X134755142Y-119975380D01*
X134993238Y-119975380D01*
X135136095Y-120023000D01*
X135231333Y-120118238D01*
X135278952Y-120213476D01*
X135326571Y-120403952D01*
X135326571Y-120546809D01*
X135278952Y-120737285D01*
X135231333Y-120832523D01*
X135136095Y-120927761D01*
X134993238Y-120975380D01*
X134755142Y-120975380D01*
X135755142Y-120975380D02*
X135755142Y-119975380D01*
X135755142Y-120451571D02*
X136326571Y-120451571D01*
X136326571Y-120975380D02*
X136326571Y-119975380D01*
X136659904Y-119975380D02*
X137231333Y-119975380D01*
X136945619Y-120975380D02*
X136945619Y-119975380D01*
X138088476Y-120975380D02*
X137517047Y-120975380D01*
X137802761Y-120975380D02*
X137802761Y-119975380D01*
X137707523Y-120118238D01*
X137612285Y-120213476D01*
X137517047Y-120261095D01*
X83693095Y-117352380D02*
X83693095Y-118161904D01*
X83740714Y-118257142D01*
X83788333Y-118304761D01*
X83883571Y-118352380D01*
X84074047Y-118352380D01*
X84169285Y-118304761D01*
X84216904Y-118257142D01*
X84264523Y-118161904D01*
X84264523Y-117352380D01*
X84693095Y-117447619D02*
X84740714Y-117400000D01*
X84835952Y-117352380D01*
X85074047Y-117352380D01*
X85169285Y-117400000D01*
X85216904Y-117447619D01*
X85264523Y-117542857D01*
X85264523Y-117638095D01*
X85216904Y-117780952D01*
X84645476Y-118352380D01*
X85264523Y-118352380D01*
X89197380Y-74421904D02*
X90006904Y-74421904D01*
X90102142Y-74374285D01*
X90149761Y-74326666D01*
X90197380Y-74231428D01*
X90197380Y-74040952D01*
X90149761Y-73945714D01*
X90102142Y-73898095D01*
X90006904Y-73850476D01*
X89197380Y-73850476D01*
X89197380Y-73469523D02*
X89197380Y-72850476D01*
X89578333Y-73183809D01*
X89578333Y-73040952D01*
X89625952Y-72945714D01*
X89673571Y-72898095D01*
X89768809Y-72850476D01*
X90006904Y-72850476D01*
X90102142Y-72898095D01*
X90149761Y-72945714D01*
X90197380Y-73040952D01*
X90197380Y-73326666D01*
X90149761Y-73421904D01*
X90102142Y-73469523D01*
X150772904Y-72207380D02*
X150772904Y-71207380D01*
X151011000Y-71207380D01*
X151153857Y-71255000D01*
X151249095Y-71350238D01*
X151296714Y-71445476D01*
X151344333Y-71635952D01*
X151344333Y-71778809D01*
X151296714Y-71969285D01*
X151249095Y-72064523D01*
X151153857Y-72159761D01*
X151011000Y-72207380D01*
X150772904Y-72207380D01*
X152296714Y-72207380D02*
X151725285Y-72207380D01*
X152011000Y-72207380D02*
X152011000Y-71207380D01*
X151915761Y-71350238D01*
X151820523Y-71445476D01*
X151725285Y-71493095D01*
M02*
