M48
; DRILL file {KiCad 5.1.5-52549c5~84~ubuntu18.04.1} date lun 02 mar 2020 16:39:20 -05
; FORMAT={3:3/ absolute / metric / suppress trailing zeros}
; #@! TF.CreationDate,2020-03-02T16:39:20-05:00
; #@! TF.GenerationSoftware,Kicad,Pcbnew,5.1.5-52549c5~84~ubuntu18.04.1
; #@! TF.FileFunction,Plated,1,2,PTH
FMAT,2
METRIC,LZ
T1C0.400
T2C0.800
T3C0.890
T4C1.000
T5C1.100
T6C1.200
T7C1.320
T8C1.570
T9C3.000
%
G90
G05
T1
X086995Y-118745
X09017Y-118745
X099695Y-10541
X099695Y-10795
T2
X078232Y-068834
X086995Y-12319
X088646Y-09525
X091948Y-100838
X104775Y-09525
X104775Y-10033
X106045Y-10287
X108585Y-13589
X116205Y-075565
X117602Y-095885
X11899Y-075556
X12954Y-13589
X113665Y-09271
X113665Y-09525
X113665Y-09779
X113665Y-10033
X113665Y-10287
X113665Y-10541
X113665Y-10795
X113665Y-11049
X121285Y-09271
X121285Y-09525
X121285Y-09779
X121285Y-10033
X121285Y-10287
X121285Y-10541
X121285Y-10795
X121285Y-11049
X094615Y-08255
X094615Y-08509
X094615Y-08763
X094615Y-09017
X094615Y-09271
X094615Y-09525
X094615Y-09779
X094615Y-10033
X094615Y-10287
X094615Y-10541
X094615Y-10795
X094615Y-11049
X094615Y-11303
X094615Y-11557
X102235Y-08255
X102235Y-08509
X102235Y-08763
X102235Y-09017
X102235Y-09271
X102235Y-09525
X102235Y-09779
X102235Y-10033
X102235Y-10287
X102235Y-10541
X102235Y-10795
X102235Y-11049
X102235Y-11303
X102235Y-11557
X080645Y-09779
X080645Y-10033
X080645Y-10287
X080645Y-10541
X080645Y-10795
X080645Y-11049
X080645Y-11303
X080645Y-11557
X088265Y-09779
X088265Y-10033
X088265Y-10287
X088265Y-10541
X088265Y-10795
X088265Y-11049
X088265Y-11303
X088265Y-11557
X12192Y-070485
X12192Y-073025
X12192Y-075565
X12954Y-070485
X12954Y-073025
X12954Y-075565
X092075Y-06985
X092075Y-07747
X094615Y-06985
X094615Y-07747
X097155Y-06985
X097155Y-07747
X099695Y-06985
X099695Y-07747
X102235Y-06985
X102235Y-07747
X104775Y-06985
X104775Y-07747
X107315Y-06985
X107315Y-07747
X109855Y-06985
X109855Y-07747
T3
X137795Y-05715
X138815Y-05893
X139835Y-05715
X140855Y-05893
X141875Y-05715
X142895Y-05893
X143915Y-05715
X144935Y-05893
X0762Y-077065
X0762Y-079105
X0762Y-081145
X0762Y-083185
X07798Y-076045
X07798Y-078085
X07798Y-080125
X07798Y-082165
X115415Y-128395
X116435Y-130175
X117455Y-128395
X118475Y-130175
X119495Y-128395
X120515Y-130175
X121535Y-128395
X122555Y-130175
X093345Y-05715
X094365Y-05893
X095385Y-05715
X096405Y-05893
X097425Y-05715
X098445Y-05893
X099465Y-05715
X100485Y-05893
X13637Y-128395
X13739Y-130175
X13841Y-128395
X13943Y-130175
X14045Y-128395
X14147Y-130175
X14249Y-128395
X14351Y-130175
X11557Y-05715
X11659Y-05893
X11761Y-05715
X11863Y-05893
X11965Y-05715
X12067Y-05893
X12169Y-05715
X12271Y-05893
X09421Y-128395
X09523Y-130175
X09625Y-128395
X09727Y-130175
X09829Y-128395
X09931Y-130175
X10033Y-128395
X10135Y-130175
X076325Y-055495
X076325Y-057535
X076325Y-059575
X076325Y-061615
X078105Y-054475
X078105Y-056515
X078105Y-058555
X078105Y-060595
T4
X083185Y-12446
X11303Y-07366
X132715Y-075565
X13843Y-08509
X108585Y-09525
X108585Y-09779
X108585Y-10033
X108585Y-10287
X108585Y-10541
X108585Y-10795
X108585Y-11049
X108585Y-11303
X131445Y-09525
X131445Y-09779
X131445Y-10033
X131445Y-10287
X131445Y-10541
X131445Y-10795
X131445Y-11049
X131445Y-11303
T5
X14224Y-090805
X14478Y-090805
X14732Y-090805
T6
X13589Y-067945
X14859Y-067945
T7
X144145Y-095885
X144145Y-100885
X144145Y-105885
X144145Y-110885
X07493Y-120175
X07493Y-125175
X07493Y-130175
X07493Y-135175
T8
X133225Y-05804
X149485Y-05804
X07709Y-071495
X07709Y-087755
X110865Y-129285
X127125Y-129285
X088775Y-05804
X105035Y-05804
X13182Y-129285
X14808Y-129285
X111Y-05804
X12726Y-05804
X08966Y-129285
X10592Y-129285
X077215Y-049925
X077215Y-066185
T9
X067691Y-114173
X07112Y-045847
X153797Y-056769
X153797Y-096012
X153797Y-131953
T0
M30
